Geologica-BlackItalic.ufo
<glyph name="numbersign" format="2">
  <advance width="1163"/>
  <unicode hex="0023"/>
  <outline>
    <contour>
      <point x="96" y="32" type="line"/>
      <point x="368" y="32" type="line"/>
      <point x="440" y="336" type="line"/>
      <point x="624" y="334" type="line"/>
      <point x="552" y="32" type="line"/>
      <point x="824" y="32" type="line"/>
      <point x="898" y="334" type="line"/>
      <point x="1060" y="334" type="line"/>
      <point x="1122" y="592" type="line"/>
      <point x="962" y="592" type="line"/>
      <point x="1010" y="802" type="line"/>
      <point x="1170" y="802" type="line"/>
      <point x="1230" y="1058" type="line"/>
      <point x="1072" y="1058" type="line"/>
      <point x="1146" y="1368" type="line"/>
      <point x="874" y="1368" type="line"/>
      <point x="800" y="1058" type="line"/>
      <point x="614" y="1058" type="line"/>
      <point x="688" y="1368" type="line"/>
      <point x="416" y="1368" type="line"/>
      <point x="342" y="1058" type="line"/>
      <point x="180" y="1058" type="line"/>
      <point x="118" y="802" type="line"/>
      <point x="280" y="802" type="line"/>
      <point x="230" y="592" type="line"/>
      <point x="70" y="592" type="line"/>
      <point x="8" y="336" type="line"/>
      <point x="168" y="336" type="line"/>
    </contour>
    <contour>
      <point x="502" y="592" type="line"/>
      <point x="550" y="802" type="line"/>
      <point x="738" y="802" type="line"/>
      <point x="690" y="592" type="line"/>
    </contour>
  </outline>
</glyph>
<glyph name="ampersand" format="2">
  <advance width="1562"/>
  <unicode hex="0026"/>
  <outline>
    <contour>
      <point x="502" y="-30" type="curve" smooth="yes"/>
      <point x="638" y="-30"/>
      <point x="794" y="18"/>
      <point x="914" y="102" type="curve"/>
      <point x="988" y="0" type="line"/>
      <point x="1404" y="0" type="line"/>
      <point x="1178" y="322" type="line"/>
      <point x="1308" y="432"/>
      <point x="1470" y="636"/>
      <point x="1534" y="772" type="curve"/>
      <point x="1240" y="892" type="line"/>
      <point x="1166" y="740"/>
      <point x="1098" y="650"/>
      <point x="1012" y="562" type="curve"/>
      <point x="890" y="726" type="line"/>
      <point x="1110" y="832"/>
      <point x="1210" y="954"/>
      <point x="1210" y="1116" type="curve" smooth="yes"/>
      <point x="1210" y="1302"/>
      <point x="1044" y="1430"/>
      <point x="814" y="1430" type="curve" smooth="yes"/>
      <point x="562" y="1430"/>
      <point x="350" y="1252"/>
      <point x="350" y="1022" type="curve" smooth="yes"/>
      <point x="350" y="952"/>
      <point x="370" y="884"/>
      <point x="414" y="812" type="curve"/>
      <point x="208" y="726"/>
      <point x="62" y="566"/>
      <point x="62" y="350" type="curve" smooth="yes"/>
      <point x="62" y="130"/>
      <point x="236" y="-30"/>
    </contour>
    <contour>
      <point x="570" y="286" type="curve" smooth="yes"/>
      <point x="482" y="286"/>
      <point x="422" y="332"/>
      <point x="422" y="400" type="curve" smooth="yes"/>
      <point x="422" y="470"/>
      <point x="490" y="550"/>
      <point x="570" y="584" type="curve"/>
      <point x="744" y="344" type="line"/>
      <point x="696" y="308"/>
      <point x="628" y="286"/>
    </contour>
    <contour>
      <point x="734" y="920" type="curve"/>
      <point x="696" y="960"/>
      <point x="676" y="1010"/>
      <point x="676" y="1048" type="curve" smooth="yes"/>
      <point x="676" y="1110"/>
      <point x="728" y="1152"/>
      <point x="792" y="1152" type="curve" smooth="yes"/>
      <point x="852" y="1152"/>
      <point x="888" y="1118"/>
      <point x="888" y="1064" type="curve" smooth="yes"/>
      <point x="888" y="998"/>
      <point x="824" y="946"/>
    </contour>
  </outline>
</glyph>
<glyph name="quotesingle" format="2">
  <advance width="516"/>
  <unicode hex="0027"/>
  <outline>
    <contour>
      <point x="159" y="702" type="line"/>
      <point x="439" y="702" type="line"/>
      <point x="625" y="1400" type="line"/>
      <point x="265" y="1400" type="line"/>
    </contour>
  </outline>
</glyph>
<glyph name="parenleft" format="2">
  <advance width="756"/>
  <unicode hex="0028"/>
  <outline>
    <contour>
      <point x="208" y="-230" type="curve"/>
      <point x="532" y="-122" type="line"/>
      <point x="480" y="20"/>
      <point x="456" y="178"/>
      <point x="456" y="342" type="curve" smooth="yes"/>
      <point x="456" y="758"/>
      <point x="618" y="1198"/>
      <point x="894" y="1492" type="curve"/>
      <point x="586" y="1610" type="line"/>
      <point x="282" y="1248"/>
      <point x="106" y="816"/>
      <point x="106" y="358" type="curve" smooth="yes"/>
      <point x="106" y="160"/>
      <point x="138" y="-36"/>
    </contour>
  </outline>
</glyph>
<glyph name="parenright" format="2">
  <advance width="756"/>
  <unicode hex="0029"/>
  <outline>
    <contour>
      <point x="243" y="-230" type="line"/>
      <point x="547" y="132"/>
      <point x="723" y="564"/>
      <point x="723" y="1022" type="curve" smooth="yes"/>
      <point x="723" y="1220"/>
      <point x="691" y="1416"/>
      <point x="621" y="1610" type="curve"/>
      <point x="297" y="1502" type="line"/>
      <point x="349" y="1360"/>
      <point x="373" y="1202"/>
      <point x="373" y="1038" type="curve" smooth="yes"/>
      <point x="373" y="622"/>
      <point x="211" y="182"/>
      <point x="-65" y="-112" type="curve"/>
    </contour>
  </outline>
</glyph>
<glyph name="comma" format="2">
  <advance width="609"/>
  <unicode hex="002C"/>
  <outline>
    <contour>
      <point x="-54" y="-396" type="line"/>
      <point x="224" y="-259"/>
      <point x="471" y="-69"/>
      <point x="471" y="179" type="curve" smooth="yes"/>
      <point x="471" y="323"/>
      <point x="376" y="416"/>
      <point x="232" y="416" type="curve" smooth="yes"/>
      <point x="93" y="416"/>
      <point x="-12" y="315"/>
      <point x="-12" y="181" type="curve" smooth="yes"/>
      <point x="-12" y="67"/>
      <point x="78" y="-7"/>
      <point x="201" y="-12" type="curve"/>
      <point x="143" y="-99"/>
      <point x="18" y="-177"/>
      <point x="-131" y="-238" type="curve"/>
    </contour>
  </outline>
</glyph>
<glyph name="period" format="2">
  <advance width="609"/>
  <unicode hex="002E"/>
  <outline>
    <contour>
      <point x="216" y="-30" type="curve" smooth="yes"/>
      <point x="348" y="-30"/>
      <point x="472" y="62"/>
      <point x="472" y="218" type="curve" smooth="yes"/>
      <point x="472" y="342"/>
      <point x="378" y="416"/>
      <point x="256" y="416" type="curve" smooth="yes"/>
      <point x="124" y="416"/>
      <point x="-2" y="324"/>
      <point x="-2" y="166" type="curve" smooth="yes"/>
      <point x="-2" y="46"/>
      <point x="94" y="-30"/>
    </contour>
  </outline>
</glyph>
<glyph name="slash" format="2">
  <advance width="904"/>
  <unicode hex="002F"/>
  <outline>
    <contour>
      <point x="132" y="-230" type="line"/>
      <point x="1132" y="1440" type="line"/>
      <point x="848" y="1610" type="line"/>
      <point x="-152" y="-60" type="line"/>
    </contour>
  </outline>
</glyph>
<glyph name="zero" format="2">
  <advance width="1403"/>
  <unicode hex="0030"/>
  <outline>
    <contour>
      <point x="656" y="-30" type="curve" smooth="yes"/>
      <point x="1076" y="-30"/>
      <point x="1370" y="390"/>
      <point x="1370" y="848" type="curve" smooth="yes"/>
      <point x="1370" y="1176"/>
      <point x="1190" y="1430"/>
      <point x="824" y="1430" type="curve" smooth="yes"/>
      <point x="404" y="1430"/>
      <point x="110" y="1010"/>
      <point x="110" y="552" type="curve" smooth="yes"/>
      <point x="110" y="224"/>
      <point x="294" y="-30"/>
    </contour>
    <contour>
      <point x="680" y="312" type="curve" smooth="yes"/>
      <point x="560" y="312"/>
      <point x="494" y="396"/>
      <point x="494" y="558" type="curve" smooth="yes"/>
      <point x="494" y="794"/>
      <point x="600" y="1088"/>
      <point x="800" y="1088" type="curve" smooth="yes"/>
      <point x="920" y="1088"/>
      <point x="988" y="1002"/>
      <point x="988" y="844" type="curve" smooth="yes"/>
      <point x="988" y="618"/>
      <point x="884" y="312"/>
    </contour>
  </outline>
</glyph>
<glyph name="one" format="2">
  <advance width="1011"/>
  <unicode hex="0031"/>
  <outline>
    <contour>
      <point x="338" y="0" type="line"/>
      <point x="706" y="0" type="line"/>
      <point x="1010" y="1430" type="line"/>
      <point x="982" y="1430" type="line"/>
      <point x="140" y="1166" type="line"/>
      <point x="234" y="858" type="line"/>
      <point x="542" y="952" type="line"/>
    </contour>
  </outline>
</glyph>
<glyph name="three" format="2">
  <advance width="1172"/>
  <unicode hex="0033"/>
  <outline>
    <contour>
      <point x="468" y="-32" type="curve" smooth="yes"/>
      <point x="782" y="-32"/>
      <point x="1050" y="164"/>
      <point x="1050" y="464" type="curve" smooth="yes"/>
      <point x="1050" y="658"/>
      <point x="922" y="778"/>
      <point x="784" y="814" type="curve"/>
      <point x="1134" y="1108" type="line"/>
      <point x="1194" y="1400" type="line"/>
      <point x="258" y="1400" type="line"/>
      <point x="190" y="1078" type="line"/>
      <point x="670" y="1078" type="line"/>
      <point x="310" y="822" type="line"/>
      <point x="358" y="586" type="line"/>
      <point x="404" y="596"/>
      <point x="450" y="600"/>
      <point x="494" y="600" type="curve" smooth="yes"/>
      <point x="606" y="600"/>
      <point x="682" y="552"/>
      <point x="682" y="464" type="curve" smooth="yes"/>
      <point x="682" y="366"/>
      <point x="594" y="302"/>
      <point x="474" y="302" type="curve" smooth="yes"/>
      <point x="342" y="302"/>
      <point x="212" y="364"/>
      <point x="156" y="456" type="curve"/>
      <point x="-16" y="160" type="line"/>
      <point x="54" y="54"/>
      <point x="260" y="-32"/>
    </contour>
  </outline>
</glyph>
<glyph name="six" format="2">
  <advance width="1304"/>
  <unicode hex="0036"/>
  <outline>
    <contour>
      <point x="636" y="-30" type="curve" smooth="yes"/>
      <point x="958" y="-30"/>
      <point x="1224" y="200"/>
      <point x="1224" y="488" type="curve" smooth="yes"/>
      <point x="1224" y="724"/>
      <point x="1032" y="914"/>
      <point x="740" y="914" type="curve" smooth="yes"/>
      <point x="702" y="914"/>
      <point x="658" y="908"/>
      <point x="618" y="892" type="curve"/>
      <point x="760" y="1010"/>
      <point x="974" y="1086"/>
      <point x="1280" y="1138" type="curve"/>
      <point x="1208" y="1430" type="line"/>
      <point x="636" y="1374"/>
      <point x="90" y="1028"/>
      <point x="90" y="506" type="curve" smooth="yes"/>
      <point x="90" y="192"/>
      <point x="312" y="-30"/>
    </contour>
    <contour>
      <point x="646" y="286" type="curve" smooth="yes"/>
      <point x="542" y="286"/>
      <point x="470" y="352"/>
      <point x="470" y="438" type="curve" smooth="yes"/>
      <point x="470" y="544"/>
      <point x="562" y="618"/>
      <point x="672" y="618" type="curve" smooth="yes"/>
      <point x="776" y="618"/>
      <point x="846" y="552"/>
      <point x="846" y="468" type="curve" smooth="yes"/>
      <point x="846" y="360"/>
      <point x="756" y="286"/>
    </contour>
  </outline>
</glyph>
<glyph name="seven" format="2">
  <advance width="1164"/>
  <unicode hex="0037"/>
  <outline>
    <contour>
      <point x="28" y="0" type="line"/>
      <point x="468" y="0" type="line"/>
      <point x="1224" y="1128" type="line"/>
      <point x="1280" y="1400" type="line"/>
      <point x="258" y="1400" type="line"/>
      <point x="182" y="1042" type="line"/>
      <point x="740" y="1042" type="line"/>
    </contour>
  </outline>
</glyph>
<glyph name="nine" format="2">
  <advance width="1284"/>
  <unicode hex="0039"/>
  <outline>
    <contour>
      <point x="164" y="-30" type="line"/>
      <point x="731" y="27"/>
      <point x="1272" y="377"/>
      <point x="1272" y="906" type="curve" smooth="yes"/>
      <point x="1272" y="1213"/>
      <point x="1050" y="1430"/>
      <point x="726" y="1430" type="curve" smooth="yes"/>
      <point x="410" y="1430"/>
      <point x="162" y="1217"/>
      <point x="162" y="936" type="curve" smooth="yes"/>
      <point x="162" y="700"/>
      <point x="349" y="510"/>
      <point x="634" y="510" type="curve" smooth="yes"/>
      <point x="668" y="510"/>
      <point x="708" y="516"/>
      <point x="744" y="532" type="curve"/>
      <point x="604" y="402"/>
      <point x="393" y="319"/>
      <point x="92" y="262" type="curve"/>
    </contour>
    <contour>
      <point x="702" y="806" type="curve" smooth="yes"/>
      <point x="605" y="806"/>
      <point x="540" y="867"/>
      <point x="540" y="944" type="curve" smooth="yes"/>
      <point x="540" y="1045"/>
      <point x="625" y="1114"/>
      <point x="728" y="1114" type="curve" smooth="yes"/>
      <point x="825" y="1114"/>
      <point x="892" y="1053"/>
      <point x="892" y="974" type="curve" smooth="yes"/>
      <point x="892" y="875"/>
      <point x="806" y="806"/>
    </contour>
  </outline>
</glyph>
<glyph name="less" format="2">
  <advance width="1296"/>
  <unicode hex="003C"/>
  <outline>
    <contour>
      <point x="1064" y="70" type="line"/>
      <point x="1170" y="324" type="line"/>
      <point x="508" y="612" type="line"/>
      <point x="1346" y="928" type="line"/>
      <point x="1252" y="1182" type="line"/>
      <point x="120" y="764" type="line"/>
      <point x="64" y="494" type="line"/>
    </contour>
  </outline>
</glyph>
<glyph name="equal" format="2">
  <advance width="1296"/>
  <unicode hex="003D"/>
  <outline>
    <contour>
      <point x="125" y="782" type="line"/>
      <point x="1285" y="782" type="line"/>
      <point x="1341" y="1050" type="line"/>
      <point x="181" y="1050" type="line"/>
    </contour>
    <contour>
      <point x="21" y="290" type="line"/>
      <point x="1181" y="290" type="line"/>
      <point x="1237" y="558" type="line"/>
      <point x="77" y="558" type="line"/>
    </contour>
  </outline>
</glyph>
<glyph name="greater" format="2">
  <advance width="1296"/>
  <unicode hex="003E"/>
  <outline>
    <contour>
      <point x="91" y="76" type="line"/>
      <point x="1223" y="494" type="line"/>
      <point x="1279" y="764" type="line"/>
      <point x="279" y="1188" type="line"/>
      <point x="173" y="934" type="line"/>
      <point x="835" y="646" type="line"/>
      <point x="-3" y="330" type="line"/>
    </contour>
  </outline>
</glyph>
<glyph name="at" format="2">
  <advance width="1698"/>
  <unicode hex="0040"/>
  <guideline x="499" y="264" angle="86.6499"/>
  <outline>
    <contour>
      <point x="867" y="-234" type="curve" smooth="yes"/>
      <point x="1071" y="-234"/>
      <point x="1269" y="-174"/>
      <point x="1429" y="-64" type="curve"/>
      <point x="1349" y="116" type="line"/>
      <point x="1211" y="14"/>
      <point x="1043" y="-40"/>
      <point x="863" y="-40" type="curve" smooth="yes"/>
      <point x="521" y="-40"/>
      <point x="289" y="170"/>
      <point x="289" y="480" type="curve" smooth="yes"/>
      <point x="289" y="810"/>
      <point x="541" y="1054"/>
      <point x="879" y="1054" type="curve" smooth="yes"/>
      <point x="1201" y="1054"/>
      <point x="1421" y="860"/>
      <point x="1421" y="576" type="curve" smooth="yes"/>
      <point x="1421" y="428"/>
      <point x="1369" y="346"/>
      <point x="1275" y="346" type="curve" smooth="yes"/>
      <point x="1215" y="346"/>
      <point x="1185" y="382"/>
      <point x="1189" y="450" type="curve" smooth="yes"/>
      <point x="1211" y="840" type="line"/>
      <point x="1025" y="840" type="line"/>
      <point x="1023" y="788" type="line"/>
      <point x="957" y="842"/>
      <point x="891" y="866"/>
      <point x="813" y="866" type="curve" smooth="yes"/>
      <point x="603" y="866"/>
      <point x="451" y="708"/>
      <point x="451" y="492" type="curve" smooth="yes"/>
      <point x="451" y="292"/>
      <point x="587" y="154"/>
      <point x="785" y="154" type="curve" smooth="yes"/>
      <point x="883" y="154"/>
      <point x="955" y="186"/>
      <point x="1029" y="262" type="curve"/>
      <point x="1073" y="192"/>
      <point x="1151" y="154"/>
      <point x="1255" y="154" type="curve" smooth="yes"/>
      <point x="1461" y="154"/>
      <point x="1629" y="344"/>
      <point x="1629" y="576" type="curve" smooth="yes"/>
      <point x="1629" y="970"/>
      <point x="1325" y="1242"/>
      <point x="885" y="1242" type="curve" smooth="yes"/>
      <point x="423" y="1242"/>
      <point x="81" y="920"/>
      <point x="81" y="486" type="curve" smooth="yes"/>
      <point x="81" y="60"/>
      <point x="403" y="-234"/>
    </contour>
    <contour>
      <point x="811" y="366" type="curve" smooth="yes"/>
      <point x="741" y="366"/>
      <point x="699" y="412"/>
      <point x="699" y="490" type="curve" smooth="yes"/>
      <point x="699" y="588"/>
      <point x="755" y="652"/>
      <point x="839" y="652" type="curve" smooth="yes"/>
      <point x="911" y="652"/>
      <point x="953" y="606"/>
      <point x="953" y="528" type="curve" smooth="yes"/>
      <point x="953" y="428"/>
      <point x="897" y="366"/>
    </contour>
  </outline>
</glyph>
<glyph name="A" format="2">
  <advance width="1496"/>
  <unicode hex="0041"/>
  <anchor x="645" y="0" name="bottom"/>
  <anchor x="1343" y="0" name="ogonek"/>
  <anchor x="941" y="1400" name="top"/>
  <anchor x="453" y="1400" name="topleft"/>
  <outline>
    <contour>
      <point x="-113" y="0" type="line"/>
      <point x="351" y="0" type="line"/>
      <point x="483" y="250" type="line"/>
      <point x="915" y="250" type="line"/>
      <point x="941" y="0" type="line"/>
      <point x="1387" y="0" type="line"/>
      <point x="1181" y="1400" type="line"/>
      <point x="703" y="1400" type="line"/>
    </contour>
    <contour>
      <point x="639" y="584" type="line"/>
      <point x="855" y="974" type="line"/>
      <point x="901" y="584" type="line"/>
    </contour>
  </outline>
</glyph>
<glyph name="B" format="2">
  <advance width="1362"/>
  <unicode hex="0042"/>
  <outline>
    <contour>
      <point x="48" y="0" type="line"/>
      <point x="700" y="0" type="line" smooth="yes"/>
      <point x="1012" y="0"/>
      <point x="1268" y="168"/>
      <point x="1268" y="452" type="curve" smooth="yes"/>
      <point x="1268" y="586"/>
      <point x="1204" y="696"/>
      <point x="1090" y="756" type="curve"/>
      <point x="1240" y="814"/>
      <point x="1346" y="920"/>
      <point x="1346" y="1074" type="curve" smooth="yes"/>
      <point x="1346" y="1282"/>
      <point x="1172" y="1400"/>
      <point x="874" y="1400" type="curve" smooth="yes"/>
      <point x="344" y="1400" type="line"/>
    </contour>
    <contour>
      <point x="512" y="290" type="line"/>
      <point x="574" y="574" type="line"/>
      <point x="688" y="574" type="line" smooth="yes"/>
      <point x="792" y="574"/>
      <point x="844" y="532"/>
      <point x="844" y="450" type="curve" smooth="yes"/>
      <point x="844" y="356"/>
      <point x="780" y="290"/>
      <point x="676" y="290" type="curve" smooth="yes"/>
    </contour>
    <contour>
      <point x="630" y="842" type="line"/>
      <point x="688" y="1110" type="line"/>
      <point x="784" y="1110" type="line" smooth="yes"/>
      <point x="890" y="1110"/>
      <point x="942" y="1072"/>
      <point x="942" y="994" type="curve" smooth="yes"/>
      <point x="942" y="916"/>
      <point x="888" y="842"/>
      <point x="802" y="842" type="curve" smooth="yes"/>
    </contour>
  </outline>
</glyph>
<glyph name="C" format="2">
  <advance width="1401"/>
  <unicode hex="0043"/>
  <guideline x="454" y="700" angle="81"/>
  <anchor x="688" y="0" name="bottom"/>
  <anchor x="914" y="1400" name="top"/>
  <outline>
    <contour>
      <point x="790" y="-30" type="curve" smooth="yes"/>
      <point x="994" y="-30"/>
      <point x="1160" y="22"/>
      <point x="1286" y="102" type="curve"/>
      <point x="1172" y="454" type="line"/>
      <point x="1066" y="390"/>
      <point x="950" y="364"/>
      <point x="852" y="364" type="curve" smooth="yes"/>
      <point x="646" y="364"/>
      <point x="532" y="470"/>
      <point x="532" y="642" type="curve" smooth="yes"/>
      <point x="532" y="868"/>
      <point x="670" y="1036"/>
      <point x="896" y="1036" type="curve" smooth="yes"/>
      <point x="1028" y="1036"/>
      <point x="1138" y="990"/>
      <point x="1198" y="902" type="curve"/>
      <point x="1454" y="1214" type="line"/>
      <point x="1310" y="1368"/>
      <point x="1154" y="1430"/>
      <point x="914" y="1430" type="curve" smooth="yes"/>
      <point x="458" y="1430"/>
      <point x="102" y="1062"/>
      <point x="102" y="586" type="curve" smooth="yes"/>
      <point x="102" y="196"/>
      <point x="396" y="-30"/>
    </contour>
  </outline>
</glyph>
<glyph name="G" format="2">
  <advance width="1517"/>
  <unicode hex="0047"/>
  <anchor x="783" y="0" name="bottom"/>
  <anchor x="947" y="1400" name="top"/>
  <outline>
    <contour>
      <point x="843" y="-30" type="curve" smooth="yes"/>
      <point x="981" y="-30"/>
      <point x="1153" y="-4"/>
      <point x="1281" y="44" type="curve"/>
      <point x="1451" y="838" type="line"/>
      <point x="835" y="838" type="line"/>
      <point x="767" y="522" type="line"/>
      <point x="1033" y="522" type="line"/>
      <point x="991" y="328" type="line"/>
      <point x="959" y="322"/>
      <point x="929" y="320"/>
      <point x="899" y="320" type="curve" smooth="yes"/>
      <point x="693" y="320"/>
      <point x="525" y="428"/>
      <point x="525" y="642" type="curve" smooth="yes"/>
      <point x="525" y="892"/>
      <point x="689" y="1068"/>
      <point x="953" y="1068" type="curve" smooth="yes"/>
      <point x="1089" y="1068"/>
      <point x="1193" y="1034"/>
      <point x="1283" y="962" type="curve"/>
      <point x="1505" y="1256" type="line"/>
      <point x="1319" y="1403"/>
      <point x="1115" y="1430"/>
      <point x="957" y="1430" type="curve" smooth="yes"/>
      <point x="481" y="1430"/>
      <point x="107" y="1084"/>
      <point x="107" y="618" type="curve" smooth="yes"/>
      <point x="107" y="216"/>
      <point x="433" y="-30"/>
    </contour>
  </outline>
</glyph>
<glyph name="H" format="2">
  <advance width="1586"/>
  <unicode hex="0048"/>
  <anchor x="979" y="1400" name="top"/>
  <anchor x="225" y="1400" name="topleft"/>
  <outline>
    <contour>
      <point x="45" y="0" type="line"/>
      <point x="449" y="0" type="line"/>
      <point x="563" y="538" type="line"/>
      <point x="1031" y="538" type="line"/>
      <point x="917" y="0" type="line"/>
      <point x="1321" y="0" type="line"/>
      <point x="1617" y="1400" type="line"/>
      <point x="1213" y="1400" type="line"/>
      <point x="1109" y="906" type="line"/>
      <point x="641" y="906" type="line"/>
      <point x="745" y="1400" type="line"/>
      <point x="341" y="1400" type="line"/>
    </contour>
  </outline>
</glyph>
<glyph name="K" format="2">
  <advance width="1526"/>
  <unicode hex="004B"/>
  <anchor x="684" y="0" name="bottom"/>
  <outline>
    <contour>
      <point x="48" y="0" type="line"/>
      <point x="452" y="0" type="line"/>
      <point x="520" y="314" type="line"/>
      <point x="672" y="450" type="line"/>
      <point x="924" y="0" type="line"/>
      <point x="1426" y="0" type="line"/>
      <point x="988" y="736" type="line"/>
      <point x="1658" y="1400" type="line"/>
      <point x="1126" y="1400" type="line"/>
      <point x="644" y="914" type="line"/>
      <point x="748" y="1400" type="line"/>
      <point x="344" y="1400" type="line"/>
    </contour>
  </outline>
</glyph>
<glyph name="L" format="2">
  <advance width="1146"/>
  <unicode hex="004C"/>
  <anchor x="513" y="0" name="bottom"/>
  <anchor x="755" y="1440" name="caron"/>
  <anchor x="543" y="1400" name="top"/>
  <outline>
    <contour>
      <point x="45" y="0" type="line"/>
      <point x="979" y="0" type="line"/>
      <point x="1057" y="368" type="line"/>
      <point x="527" y="368" type="line"/>
      <point x="745" y="1400" type="line"/>
      <point x="341" y="1400" type="line"/>
    </contour>
  </outline>
</glyph>
<glyph name="M" format="2">
  <advance width="1906"/>
  <unicode hex="004D"/>
  <outline>
    <contour>
      <point x="45" y="0" type="line"/>
      <point x="415" y="0" type="line"/>
      <point x="599" y="904" type="line"/>
      <point x="521" y="896" type="line"/>
      <point x="763" y="238" type="line"/>
      <point x="1025" y="238" type="line"/>
      <point x="1499" y="830" type="line"/>
      <point x="1441" y="868" type="line"/>
      <point x="1251" y="0" type="line"/>
      <point x="1641" y="0" type="line"/>
      <point x="1937" y="1400" type="line"/>
      <point x="1549" y="1400" type="line"/>
      <point x="891" y="564" type="line"/>
      <point x="1047" y="534" type="line"/>
      <point x="733" y="1400" type="line"/>
      <point x="341" y="1400" type="line"/>
    </contour>
  </outline>
</glyph>
<glyph name="N" format="2">
  <advance width="1594"/>
  <unicode hex="004E"/>
  <anchor x="687" y="0" name="bottom"/>
  <anchor x="983" y="1400" name="top"/>
  <outline>
    <contour>
      <point x="45" y="0" type="line"/>
      <point x="435" y="0" type="line"/>
      <point x="601" y="778" type="line"/>
      <point x="933" y="0" type="line"/>
      <point x="1329" y="0" type="line"/>
      <point x="1625" y="1400" type="line"/>
      <point x="1235" y="1400" type="line"/>
      <point x="1071" y="634" type="line"/>
      <point x="739" y="1400" type="line"/>
      <point x="341" y="1400" type="line"/>
    </contour>
  </outline>
</glyph>
<glyph name="O" format="2">
  <advance width="1658"/>
  <unicode hex="004F"/>
  <anchor x="755" y="0" name="bottom"/>
  <anchor x="1383" y="1400" name="horn"/>
  <anchor x="1021" y="0" name="ogonek"/>
  <anchor x="979" y="1400" name="top"/>
  <anchor x="273" y="1400" name="topleft"/>
  <outline>
    <contour>
      <point x="799" y="-30" type="curve" smooth="yes"/>
      <point x="1255" y="-30"/>
      <point x="1629" y="332"/>
      <point x="1629" y="782" type="curve" smooth="yes"/>
      <point x="1629" y="1148"/>
      <point x="1353" y="1430"/>
      <point x="933" y="1430" type="curve" smooth="yes"/>
      <point x="477" y="1430"/>
      <point x="105" y="1070"/>
      <point x="105" y="614" type="curve" smooth="yes"/>
      <point x="105" y="244"/>
      <point x="381" y="-30"/>
    </contour>
    <contour>
      <point x="833" y="348" type="curve" smooth="yes"/>
      <point x="649" y="348"/>
      <point x="531" y="462"/>
      <point x="531" y="644" type="curve" smooth="yes"/>
      <point x="531" y="872"/>
      <point x="681" y="1052"/>
      <point x="901" y="1052" type="curve" smooth="yes"/>
      <point x="1085" y="1052"/>
      <point x="1203" y="938"/>
      <point x="1203" y="756" type="curve" smooth="yes"/>
      <point x="1203" y="528"/>
      <point x="1053" y="348"/>
    </contour>
  </outline>
</glyph>
<glyph name="R" format="2">
  <advance width="1408"/>
  <unicode hex="0052"/>
  <anchor x="623" y="0" name="bottom"/>
  <anchor x="853" y="1400" name="top"/>
  <outline>
    <contour>
      <point x="45" y="0" type="line"/>
      <point x="449" y="0" type="line"/>
      <point x="551" y="482" type="line"/>
      <point x="629" y="482" type="line"/>
      <point x="805" y="0" type="line"/>
      <point x="1267" y="0" type="line"/>
      <point x="1031" y="554" type="line"/>
      <point x="1245" y="616"/>
      <point x="1395" y="792"/>
      <point x="1395" y="1010" type="curve" smooth="yes"/>
      <point x="1395" y="1252"/>
      <point x="1201" y="1400"/>
      <point x="871" y="1400" type="curve" smooth="yes"/>
      <point x="341" y="1400" type="line"/>
    </contour>
    <contour>
      <point x="619" y="800" type="line"/>
      <point x="677" y="1072" type="line"/>
      <point x="795" y="1072" type="line" smooth="yes"/>
      <point x="911" y="1072"/>
      <point x="979" y="1046"/>
      <point x="979" y="954" type="curve" smooth="yes"/>
      <point x="979" y="854"/>
      <point x="909" y="800"/>
      <point x="805" y="800" type="curve" smooth="yes"/>
    </contour>
  </outline>
</glyph>
<glyph name="S" format="2">
  <advance width="1284"/>
  <unicode hex="0053"/>
  <anchor x="575" y="0" name="bottom"/>
  <anchor x="839" y="1400" name="top"/>
  <outline>
    <contour>
      <point x="605" y="-30" type="curve" smooth="yes"/>
      <point x="939" y="-30"/>
      <point x="1215" y="168"/>
      <point x="1215" y="474" type="curve" smooth="yes"/>
      <point x="1215" y="642"/>
      <point x="1105" y="756"/>
      <point x="863" y="848" type="curve" smooth="yes"/>
      <point x="763" y="886" type="line" smooth="yes"/>
      <point x="645" y="930"/>
      <point x="605" y="954"/>
      <point x="605" y="996" type="curve" smooth="yes"/>
      <point x="605" y="1054"/>
      <point x="675" y="1092"/>
      <point x="775" y="1092" type="curve" smooth="yes"/>
      <point x="909" y="1092"/>
      <point x="1047" y="1030"/>
      <point x="1109" y="946" type="curve"/>
      <point x="1353" y="1220" type="line"/>
      <point x="1247" y="1347"/>
      <point x="1034" y="1430"/>
      <point x="795" y="1430" type="curve" smooth="yes"/>
      <point x="485" y="1430"/>
      <point x="209" y="1230"/>
      <point x="209" y="934" type="curve" smooth="yes"/>
      <point x="209" y="772"/>
      <point x="309" y="638"/>
      <point x="551" y="552" type="curve" smooth="yes"/>
      <point x="647" y="518" type="line" smooth="yes"/>
      <point x="767" y="476"/>
      <point x="809" y="442"/>
      <point x="809" y="394" type="curve" smooth="yes"/>
      <point x="809" y="336"/>
      <point x="739" y="306"/>
      <point x="639" y="306" type="curve" smooth="yes"/>
      <point x="497" y="306"/>
      <point x="315" y="376"/>
      <point x="237" y="474" type="curve"/>
      <point x="1" y="192" type="line"/>
      <point x="134" y="52"/>
      <point x="366" y="-30"/>
    </contour>
  </outline>
</glyph>
<glyph name="T" format="2">
  <advance width="1188"/>
  <unicode hex="0054"/>
  <anchor x="622" y="644" name="bar"/>
  <anchor x="484" y="0" name="bottom"/>
  <anchor x="780" y="1400" name="top"/>
  <outline>
    <contour>
      <point x="282" y="0" type="line"/>
      <point x="688" y="0" type="line"/>
      <point x="906" y="1032" type="line"/>
      <point x="1266" y="1032" type="line"/>
      <point x="1344" y="1400" type="line"/>
      <point x="218" y="1400" type="line"/>
      <point x="140" y="1032" type="line"/>
      <point x="500" y="1032" type="line"/>
    </contour>
  </outline>
</glyph>
<glyph name="U" format="2">
  <advance width="1545"/>
  <unicode hex="0055"/>
  <guideline x="877" y="0" angle="257.9716"/>
  <anchor x="697" y="0" name="bottom"/>
  <anchor x="1581" y="1400" name="horn"/>
  <anchor x="1077" y="0" name="ogonek"/>
  <anchor x="959" y="1400" name="top"/>
  <outline>
    <contour>
      <point x="713" y="-30" type="curve" smooth="yes"/>
      <point x="1091" y="-30"/>
      <point x="1329" y="208"/>
      <point x="1411" y="596" type="curve" smooth="yes"/>
      <point x="1581" y="1400" type="line"/>
      <point x="1175" y="1400" type="line"/>
      <point x="999" y="574" type="line" smooth="yes"/>
      <point x="965" y="412"/>
      <point x="873" y="348"/>
      <point x="745" y="348" type="curve" smooth="yes"/>
      <point x="591" y="348"/>
      <point x="533" y="424"/>
      <point x="565" y="574" type="curve" smooth="yes"/>
      <point x="741" y="1400" type="line"/>
      <point x="337" y="1400" type="line"/>
      <point x="167" y="596" type="line" smooth="yes"/>
      <point x="83" y="202"/>
      <point x="309" y="-30"/>
    </contour>
  </outline>
</glyph>
<glyph name="V" format="2">
  <advance width="1440"/>
  <unicode hex="0056"/>
  <outline>
    <contour>
      <point x="369" y="0" type="line"/>
      <point x="837" y="0" type="line"/>
      <point x="1647" y="1400" type="line"/>
      <point x="1177" y="1400" type="line"/>
      <point x="707" y="518" type="line"/>
      <point x="615" y="1400" type="line"/>
      <point x="167" y="1400" type="line"/>
    </contour>
  </outline>
</glyph>
<glyph name="Z" format="2">
  <advance width="1186"/>
  <unicode hex="005A"/>
  <anchor x="783" y="1400" name="top"/>
  <outline>
    <contour>
      <point x="-41" y="0" type="line"/>
      <point x="1013" y="0" type="line"/>
      <point x="1091" y="368" type="line"/>
      <point x="547" y="368" type="line"/>
      <point x="1235" y="1062" type="line"/>
      <point x="1305" y="1400" type="line"/>
      <point x="279" y="1400" type="line"/>
      <point x="201" y="1032" type="line"/>
      <point x="719" y="1032" type="line"/>
      <point x="29" y="338" type="line"/>
    </contour>
  </outline>
</glyph>
<glyph name="bracketleft" format="2">
  <advance width="756"/>
  <unicode hex="005B"/>
  <outline>
    <contour>
      <point x="-6" y="-220" type="line"/>
      <point x="510" y="-220" type="line"/>
      <point x="568" y="46" type="line"/>
      <point x="368" y="46" type="line"/>
      <point x="640" y="1334" type="line"/>
      <point x="840" y="1334" type="line"/>
      <point x="898" y="1600" type="line"/>
      <point x="382" y="1600" type="line"/>
    </contour>
  </outline>
</glyph>
<glyph name="backslash" format="2">
  <advance width="996"/>
  <unicode hex="005C"/>
  <outline>
    <contour>
      <point x="530" y="-230" type="line"/>
      <point x="882" y="-162" type="line"/>
      <point x="542" y="1610" type="line"/>
      <point x="190" y="1546" type="line"/>
    </contour>
  </outline>
</glyph>
<glyph name="a" format="2">
  <advance width="1213"/>
  <unicode hex="0061"/>
  <anchor x="471" y="0" name="bottom"/>
  <anchor x="989" y="0" name="ogonek"/>
  <anchor x="689" y="1040" name="top"/>
  <outline>
    <contour>
      <point x="349" y="-28" type="curve" smooth="yes"/>
      <point x="485" y="-28"/>
      <point x="603" y="20"/>
      <point x="667" y="102" type="curve"/>
      <point x="647" y="0" type="line"/>
      <point x="989" y="0" type="line"/>
      <point x="1105" y="562" type="line" smooth="yes"/>
      <point x="1169" y="874"/>
      <point x="1003" y="1080"/>
      <point x="629" y="1080" type="curve" smooth="yes"/>
      <point x="463" y="1080"/>
      <point x="315" y="1045"/>
      <point x="194" y="971" type="curve"/>
      <point x="251" y="702" type="line"/>
      <point x="317" y="750"/>
      <point x="431" y="782"/>
      <point x="531" y="782" type="curve" smooth="yes"/>
      <point x="693" y="782"/>
      <point x="763" y="730"/>
      <point x="737" y="614" type="curve" smooth="yes"/>
      <point x="691" y="402" type="line" smooth="yes"/>
      <point x="669" y="304"/>
      <point x="597" y="250"/>
      <point x="493" y="250" type="curve" smooth="yes"/>
      <point x="423" y="250"/>
      <point x="381" y="276"/>
      <point x="381" y="322" type="curve" smooth="yes"/>
      <point x="381" y="415"/>
      <point x="549" y="452"/>
      <point x="743" y="422" type="curve"/>
      <point x="793" y="648" type="line"/>
      <point x="303" y="690"/>
      <point x="11" y="558"/>
      <point x="11" y="286" type="curve" smooth="yes"/>
      <point x="11" y="94"/>
      <point x="143" y="-28"/>
    </contour>
  </outline>
</glyph>
<glyph name="b" format="2">
  <advance width="1373"/>
  <unicode hex="0062"/>
  <outline>
    <contour>
      <point x="745" y="-30" type="curve" smooth="yes"/>
      <point x="1081" y="-30"/>
      <point x="1323" y="252"/>
      <point x="1323" y="596" type="curve" smooth="yes"/>
      <point x="1323" y="870"/>
      <point x="1139" y="1070"/>
      <point x="851" y="1070" type="curve" smooth="yes"/>
      <point x="721" y="1070"/>
      <point x="621" y="1024"/>
      <point x="515" y="918" type="curve"/>
      <point x="589" y="808" type="line"/>
      <point x="723" y="1440" type="line"/>
      <point x="325" y="1440" type="line"/>
      <point x="19" y="0" type="line"/>
      <point x="359" y="0" type="line"/>
      <point x="419" y="280" type="line"/>
      <point x="345" y="216" type="line"/>
      <point x="377" y="70"/>
      <point x="545" y="-30"/>
    </contour>
    <contour>
      <point x="707" y="310" type="curve" smooth="yes"/>
      <point x="601" y="310"/>
      <point x="525" y="380"/>
      <point x="525" y="490" type="curve" smooth="yes"/>
      <point x="525" y="614"/>
      <point x="611" y="730"/>
      <point x="749" y="730" type="curve" smooth="yes"/>
      <point x="855" y="730"/>
      <point x="931" y="664"/>
      <point x="931" y="556" type="curve" smooth="yes"/>
      <point x="931" y="428"/>
      <point x="843" y="310"/>
    </contour>
  </outline>
</glyph>
<glyph name="c" format="2">
  <advance width="1122"/>
  <unicode hex="0063"/>
  <anchor x="513" y="0" name="bottom"/>
  <anchor x="693" y="1040" name="top"/>
  <outline>
    <contour>
      <point x="587" y="-30" type="curve" smooth="yes"/>
      <point x="729" y="-30"/>
      <point x="883" y="12"/>
      <point x="1005" y="84" type="curve"/>
      <point x="913" y="402" type="line"/>
      <point x="829" y="340"/>
      <point x="747" y="310"/>
      <point x="661" y="310" type="curve" smooth="yes"/>
      <point x="523" y="310"/>
      <point x="445" y="376"/>
      <point x="445" y="499" type="curve" smooth="yes"/>
      <point x="445" y="628"/>
      <point x="535" y="730"/>
      <point x="689" y="730" type="curve" smooth="yes"/>
      <point x="779" y="730"/>
      <point x="861" y="700"/>
      <point x="923" y="628" type="curve"/>
      <point x="1143" y="906" type="line"/>
      <point x="1033" y="1012"/>
      <point x="877" y="1070"/>
      <point x="699" y="1070" type="curve" smooth="yes"/>
      <point x="347" y="1070"/>
      <point x="47" y="802"/>
      <point x="47" y="460" type="curve" smooth="yes"/>
      <point x="47" y="178"/>
      <point x="267" y="-30"/>
    </contour>
  </outline>
</glyph>
<glyph name="f" format="2">
  <advance width="878"/>
  <unicode hex="0066"/>
  <outline>
    <contour>
      <point x="91" y="0" type="line"/>
      <point x="491" y="0" type="line"/>
      <point x="645" y="728" type="line"/>
      <point x="887" y="728" type="line"/>
      <point x="953" y="1040" type="line"/>
      <point x="711" y="1040" type="line"/>
      <point x="717" y="1064" type="line" smooth="yes"/>
      <point x="729" y="1116"/>
      <point x="767" y="1144"/>
      <point x="827" y="1144" type="curve" smooth="yes"/>
      <point x="859" y="1144"/>
      <point x="897" y="1138"/>
      <point x="931" y="1112" type="curve"/>
      <point x="1045" y="1402" type="line"/>
      <point x="957" y="1454"/>
      <point x="861" y="1470"/>
      <point x="767" y="1470" type="curve" smooth="yes"/>
      <point x="521" y="1470"/>
      <point x="373" y="1328"/>
      <point x="321" y="1086" type="curve" smooth="yes"/>
    </contour>
    <contour>
      <point x="81" y="728" type="line"/>
      <point x="277" y="728" type="line"/>
      <point x="341" y="1040" type="line"/>
      <point x="145" y="1040" type="line"/>
    </contour>
  </outline>
</glyph>
<glyph name="n" format="2">
  <advance width="1362"/>
  <unicode hex="006E"/>
  <anchor x="575" y="0" name="bottom"/>
  <anchor x="799" y="1040" name="top"/>
  <outline>
    <contour>
      <point x="15" y="0" type="line"/>
      <point x="415" y="0" type="line"/>
      <point x="529" y="536" type="line" smooth="yes"/>
      <point x="553" y="650"/>
      <point x="623" y="710"/>
      <point x="731" y="710" type="curve" smooth="yes"/>
      <point x="831" y="710"/>
      <point x="877" y="660"/>
      <point x="849" y="536" type="curve" smooth="yes"/>
      <point x="735" y="0" type="line"/>
      <point x="1135" y="0" type="line"/>
      <point x="1275" y="662" type="line" smooth="yes"/>
      <point x="1321" y="906"/>
      <point x="1169" y="1070"/>
      <point x="937" y="1070" type="curve" smooth="yes"/>
      <point x="813" y="1070"/>
      <point x="697" y="1020"/>
      <point x="607" y="912" type="curve"/>
      <point x="637" y="1040" type="line"/>
      <point x="237" y="1040" type="line"/>
    </contour>
  </outline>
</glyph>
<glyph name="o" format="2">
  <advance width="1292"/>
  <unicode hex="006F"/>
  <guideline x="342" y="450" angle="84.9575"/>
  <anchor x="562" y="0" name="bottom"/>
  <anchor x="1130" y="1040" name="horn"/>
  <anchor x="836" y="0" name="ogonek"/>
  <anchor x="730" y="1040" name="top"/>
  <outline>
    <contour>
      <point x="594" y="-30" type="curve" smooth="yes"/>
      <point x="940" y="-30"/>
      <point x="1242" y="244"/>
      <point x="1242" y="578" type="curve" smooth="yes"/>
      <point x="1242" y="848"/>
      <point x="1032" y="1070"/>
      <point x="698" y="1070" type="curve" smooth="yes"/>
      <point x="352" y="1070"/>
      <point x="50" y="796"/>
      <point x="50" y="464" type="curve" smooth="yes"/>
      <point x="50" y="192"/>
      <point x="258" y="-30"/>
    </contour>
    <contour>
      <point x="624" y="310" type="curve" smooth="yes"/>
      <point x="518" y="310"/>
      <point x="442" y="380"/>
      <point x="442" y="490" type="curve" smooth="yes"/>
      <point x="442" y="616"/>
      <point x="532" y="730"/>
      <point x="668" y="730" type="curve" smooth="yes"/>
      <point x="776" y="730"/>
      <point x="850" y="662"/>
      <point x="850" y="552" type="curve" smooth="yes"/>
      <point x="850" y="426"/>
      <point x="762" y="310"/>
    </contour>
  </outline>
</glyph>
<glyph name="p" format="2">
  <advance width="1365"/>
  <unicode hex="0070"/>
  <outline>
    <contour>
      <point x="-73" y="-420" type="line"/>
      <point x="325" y="-420" type="line"/>
      <point x="431" y="76" type="line"/>
      <point x="511" y="4"/>
      <point x="617" y="-30"/>
      <point x="727" y="-30" type="curve" smooth="yes"/>
      <point x="1071" y="-30"/>
      <point x="1321" y="260"/>
      <point x="1321" y="608" type="curve" smooth="yes"/>
      <point x="1321" y="892"/>
      <point x="1133" y="1070"/>
      <point x="861" y="1070" type="curve" smooth="yes"/>
      <point x="737" y="1070"/>
      <point x="635" y="1032"/>
      <point x="561" y="962" type="curve"/>
      <point x="577" y="1040" type="line"/>
      <point x="237" y="1040" type="line"/>
    </contour>
    <contour>
      <point x="703" y="310" type="curve" smooth="yes"/>
      <point x="595" y="310"/>
      <point x="521" y="382"/>
      <point x="521" y="496" type="curve" smooth="yes"/>
      <point x="521" y="618"/>
      <point x="611" y="730"/>
      <point x="747" y="730" type="curve" smooth="yes"/>
      <point x="853" y="730"/>
      <point x="929" y="664"/>
      <point x="929" y="556" type="curve" smooth="yes"/>
      <point x="929" y="404"/>
      <point x="825" y="310"/>
    </contour>
  </outline>
</glyph>
<glyph name="q" format="2">
  <advance width="1366"/>
  <unicode hex="0071"/>
  <outline>
    <contour>
      <point x="642" y="-420" type="line"/>
      <point x="1040" y="-420" type="line"/>
      <point x="1350" y="1040" type="line"/>
      <point x="1010" y="1040" type="line"/>
      <point x="950" y="758" type="line"/>
      <point x="1026" y="822" type="line"/>
      <point x="994" y="966"/>
      <point x="824" y="1070"/>
      <point x="624" y="1070" type="curve" smooth="yes"/>
      <point x="288" y="1070"/>
      <point x="48" y="788"/>
      <point x="48" y="448" type="curve" smooth="yes"/>
      <point x="48" y="174"/>
      <point x="230" y="-30"/>
      <point x="498" y="-30" type="curve" smooth="yes"/>
      <point x="646" y="-30"/>
      <point x="748" y="22"/>
      <point x="854" y="130" type="curve"/>
      <point x="780" y="232" type="line"/>
    </contour>
    <contour>
      <point x="620" y="310" type="curve" smooth="yes"/>
      <point x="514" y="310"/>
      <point x="438" y="378"/>
      <point x="438" y="486" type="curve" smooth="yes"/>
      <point x="438" y="614"/>
      <point x="526" y="730"/>
      <point x="664" y="730" type="curve" smooth="yes"/>
      <point x="768" y="730"/>
      <point x="846" y="660"/>
      <point x="846" y="548" type="curve" smooth="yes"/>
      <point x="846" y="424"/>
      <point x="758" y="310"/>
    </contour>
  </outline>
</glyph>
<glyph name="r" format="2">
  <advance width="930"/>
  <unicode hex="0072"/>
  <anchor x="215" y="0" name="bottom"/>
  <anchor x="637" y="1040" name="top"/>
  <outline>
    <contour>
      <point x="15" y="0" type="line"/>
      <point x="415" y="0" type="line"/>
      <point x="523" y="506" type="line" smooth="yes"/>
      <point x="549" y="632"/>
      <point x="635" y="680"/>
      <point x="735" y="680" type="curve" smooth="yes"/>
      <point x="791" y="680"/>
      <point x="849" y="666"/>
      <point x="897" y="646" type="curve"/>
      <point x="1027" y="1058" type="line"/>
      <point x="993" y="1066"/>
      <point x="957" y="1072"/>
      <point x="915" y="1072" type="curve" smooth="yes"/>
      <point x="795" y="1072"/>
      <point x="671" y="1012"/>
      <point x="603" y="888" type="curve"/>
      <point x="637" y="1040" type="line"/>
      <point x="237" y="1040" type="line"/>
    </contour>
  </outline>
</glyph>
<glyph name="s" format="2">
  <advance width="1084"/>
  <unicode hex="0073"/>
  <anchor x="445" y="0" name="bottom"/>
  <anchor x="617" y="1040" name="top"/>
  <outline>
    <contour>
      <point x="483" y="-28" type="curve" smooth="yes"/>
      <point x="767" y="-28"/>
      <point x="979" y="128"/>
      <point x="979" y="370" type="curve" smooth="yes"/>
      <point x="979" y="518"/>
      <point x="869" y="602"/>
      <point x="601" y="672" type="curve" smooth="yes"/>
      <point x="483" y="702"/>
      <point x="459" y="712"/>
      <point x="459" y="736" type="curve" smooth="yes"/>
      <point x="459" y="768"/>
      <point x="501" y="788"/>
      <point x="569" y="788" type="curve" smooth="yes"/>
      <point x="677" y="788"/>
      <point x="813" y="738"/>
      <point x="899" y="666" type="curve"/>
      <point x="1061" y="922" type="line"/>
      <point x="955" y="1016"/>
      <point x="777" y="1080"/>
      <point x="583" y="1080" type="curve" smooth="yes"/>
      <point x="317" y="1080"/>
      <point x="99" y="934"/>
      <point x="99" y="688" type="curve" smooth="yes"/>
      <point x="99" y="526"/>
      <point x="219" y="428"/>
      <point x="473" y="376" type="curve" smooth="yes"/>
      <point x="597" y="350"/>
      <point x="623" y="344"/>
      <point x="623" y="322" type="curve" smooth="yes"/>
      <point x="623" y="284"/>
      <point x="583" y="264"/>
      <point x="507" y="264" type="curve" smooth="yes"/>
      <point x="391" y="264"/>
      <point x="247" y="316"/>
      <point x="127" y="396" type="curve"/>
      <point x="-37" y="141" type="line"/>
      <point x="99" y="22"/>
      <point x="295" y="-28"/>
    </contour>
  </outline>
</glyph>
<glyph name="t" format="2">
  <advance width="928"/>
  <unicode hex="0074"/>
  <anchor x="419" y="534" name="bar"/>
  <anchor x="445" y="0" name="bottom"/>
  <anchor x="797" y="1440" name="caron"/>
  <outline>
    <contour>
      <point x="523" y="-30" type="curve" smooth="yes"/>
      <point x="619" y="-30"/>
      <point x="707" y="-8"/>
      <point x="773" y="22" type="curve"/>
      <point x="795" y="346" type="line"/>
      <point x="757" y="328"/>
      <point x="717" y="320"/>
      <point x="679" y="320" type="curve" smooth="yes"/>
      <point x="595" y="320"/>
      <point x="567" y="362"/>
      <point x="583" y="440" type="curve" smooth="yes"/>
      <point x="645" y="728" type="line"/>
      <point x="861" y="728" type="line"/>
      <point x="927" y="1040" type="line"/>
      <point x="711" y="1040" type="line"/>
      <point x="773" y="1334" type="line"/>
      <point x="373" y="1334" type="line"/>
      <point x="171" y="378" type="line" smooth="yes"/>
      <point x="117" y="118"/>
      <point x="257" y="-30"/>
    </contour>
    <contour>
      <point x="61" y="728" type="line"/>
      <point x="277" y="728" type="line"/>
      <point x="343" y="1040" type="line"/>
      <point x="127" y="1040" type="line"/>
    </contour>
  </outline>
</glyph>
<glyph name="u" format="2">
  <advance width="1328"/>
  <unicode hex="0075"/>
  <anchor x="546" y="0" name="bottom"/>
  <anchor x="1088" y="0" name="descender"/>
  <anchor x="1310" y="1040" name="horn"/>
  <anchor x="1088" y="0" name="ogonek"/>
  <anchor x="780" y="1040" name="top"/>
  <outline>
    <contour>
      <point x="426" y="-30" type="curve" smooth="yes"/>
      <point x="602" y="-30"/>
      <point x="710" y="50"/>
      <point x="778" y="136" type="curve"/>
      <point x="748" y="0" type="line"/>
      <point x="1088" y="0" type="line"/>
      <point x="1310" y="1040" type="line"/>
      <point x="910" y="1040" type="line"/>
      <point x="792" y="482" type="line" smooth="yes"/>
      <point x="770" y="384"/>
      <point x="707" y="330"/>
      <point x="610" y="330" type="curve" smooth="yes"/>
      <point x="515" y="330"/>
      <point x="494" y="382"/>
      <point x="512" y="482" type="curve" smooth="yes"/>
      <point x="630" y="1040" type="line"/>
      <point x="230" y="1040" type="line"/>
      <point x="100" y="428" type="line" smooth="yes"/>
      <point x="44" y="140"/>
      <point x="166" y="-30"/>
    </contour>
  </outline>
</glyph>
<glyph name="w" format="2">
  <advance width="1720"/>
  <unicode hex="0077"/>
  <anchor x="964" y="1034" name="top"/>
  <outline>
    <contour>
      <point x="200" y="0" type="line"/>
      <point x="594" y="0" type="line"/>
      <point x="870" y="546" type="line"/>
      <point x="900" y="0" type="line"/>
      <point x="1290" y="0" type="line"/>
      <point x="1822" y="1040" type="line"/>
      <point x="1433" y="1040" type="line"/>
      <point x="1185" y="472" type="line"/>
      <point x="1149" y="1040" type="line"/>
      <point x="791" y="1040" type="line"/>
      <point x="505" y="466" type="line"/>
      <point x="493" y="1040" type="line"/>
      <point x="120" y="1040" type="line"/>
    </contour>
  </outline>
</glyph>
<glyph name="x" format="2">
  <advance width="1346"/>
  <unicode hex="0078"/>
  <outline>
    <contour>
      <point x="-90" y="0" type="line"/>
      <point x="416" y="0" type="line"/>
      <point x="616" y="248" type="line"/>
      <point x="720" y="0" type="line"/>
      <point x="1214" y="0" type="line"/>
      <point x="948" y="496" type="line"/>
      <point x="1410" y="1040" type="line"/>
      <point x="892" y="1040" type="line"/>
      <point x="716" y="776" type="line"/>
      <point x="630" y="1040" type="line"/>
      <point x="144" y="1040" type="line"/>
      <point x="392" y="522" type="line"/>
    </contour>
  </outline>
</glyph>
<glyph name="y" format="2">
  <advance width="1232"/>
  <unicode hex="0079"/>
  <anchor x="1004" y="0" name="bottom"/>
  <anchor x="728" y="1040" name="top"/>
  <outline>
    <contour>
      <point x="166" y="-450" type="curve" smooth="yes"/>
      <point x="352" y="-450"/>
      <point x="538" y="-364"/>
      <point x="680" y="-116" type="curve" smooth="yes"/>
      <point x="1344" y="1040" type="line"/>
      <point x="900" y="1040" type="line"/>
      <point x="592" y="398" type="line"/>
      <point x="536" y="1040" type="line"/>
      <point x="110" y="1040" type="line"/>
      <point x="292" y="22" type="line"/>
      <point x="270" y="-26" type="line" smooth="yes"/>
      <point x="246" y="-74"/>
      <point x="198" y="-88"/>
      <point x="144" y="-88" type="curve" smooth="yes"/>
      <point x="94" y="-88"/>
      <point x="36" y="-72"/>
      <point x="-10" y="-48" type="curve"/>
      <point x="-156" y="-372" type="line"/>
      <point x="-76" y="-422"/>
      <point x="44" y="-450"/>
    </contour>
  </outline>
</glyph>
<glyph name="z" format="2">
  <advance width="1066"/>
  <unicode hex="007A"/>
  <anchor x="645" y="1040" name="top"/>
  <outline>
    <contour>
      <point x="-31" y="0" type="line"/>
      <point x="879" y="0" type="line"/>
      <point x="953" y="350" type="line"/>
      <point x="583" y="350" type="line"/>
      <point x="1037" y="780" type="line"/>
      <point x="1091" y="1040" type="line"/>
      <point x="207" y="1040" type="line"/>
      <point x="133" y="690" type="line"/>
      <point x="507" y="690" type="line"/>
      <point x="23" y="262" type="line"/>
    </contour>
  </outline>
</glyph>
<glyph name="braceright" format="2">
  <advance width="734"/>
  <unicode hex="007D"/>
  <outline>
    <contour>
      <point x="-92" y="-226" type="line"/>
      <point x="274" y="-254"/>
      <point x="458" y="-124"/>
      <point x="468" y="190" type="curve" smooth="yes"/>
      <point x="476" y="434" type="line" smooth="yes"/>
      <point x="478" y="526"/>
      <point x="526" y="558"/>
      <point x="676" y="558" type="curve"/>
      <point x="734" y="824" type="line"/>
      <point x="584" y="824"/>
      <point x="548" y="856"/>
      <point x="586" y="948" type="curve" smooth="yes"/>
      <point x="680" y="1188" type="line" smooth="yes"/>
      <point x="804" y="1504"/>
      <point x="676" y="1634"/>
      <point x="300" y="1606" type="curve"/>
      <point x="242" y="1340" type="line"/>
      <point x="368" y="1348"/>
      <point x="406" y="1310"/>
      <point x="370" y="1216" type="curve" smooth="yes"/>
      <point x="262" y="938" type="line" smooth="yes"/>
      <point x="208" y="808"/>
      <point x="250" y="714"/>
      <point x="378" y="692" type="curve"/>
      <point x="376" y="690" type="line"/>
      <point x="236" y="664"/>
      <point x="156" y="570"/>
      <point x="150" y="442" type="curve" smooth="yes"/>
      <point x="146" y="164" type="line" smooth="yes"/>
      <point x="144" y="74"/>
      <point x="90" y="34"/>
      <point x="-34" y="40" type="curve"/>
    </contour>
  </outline>
</glyph>
<glyph name="exclamdown" format="2">
  <advance width="726"/>
  <unicode hex="00A1"/>
  <outline>
    <contour>
      <point x="-54" y="-360" type="line"/>
      <point x="406" y="-360" type="line"/>
      <point x="530" y="504" type="line"/>
      <point x="190" y="504" type="line"/>
    </contour>
    <contour>
      <point x="414" y="624" type="curve" smooth="yes"/>
      <point x="546" y="624"/>
      <point x="670" y="718"/>
      <point x="670" y="876" type="curve" smooth="yes"/>
      <point x="670" y="996"/>
      <point x="572" y="1070"/>
      <point x="454" y="1070" type="curve" smooth="yes"/>
      <point x="322" y="1070"/>
      <point x="196" y="978"/>
      <point x="196" y="820" type="curve" smooth="yes"/>
      <point x="196" y="700"/>
      <point x="292" y="624"/>
    </contour>
  </outline>
</glyph>
<glyph name="cent" format="2">
  <advance width="1296"/>
  <unicode hex="00A2"/>
  <outline>
    <contour>
      <point x="444" y="-160" type="line"/>
      <point x="704" y="-160" type="line"/>
      <point x="738" y="2" type="line"/>
      <point x="834" y="8"/>
      <point x="932" y="28"/>
      <point x="1010" y="70" type="curve"/>
      <point x="976" y="364" type="line"/>
      <point x="918" y="336"/>
      <point x="862" y="324"/>
      <point x="806" y="322" type="curve"/>
      <point x="886" y="700" type="line"/>
      <point x="924" y="692"/>
      <point x="962" y="678"/>
      <point x="996" y="656" type="curve"/>
      <point x="1176" y="896" type="line"/>
      <point x="1128" y="944"/>
      <point x="1042" y="990"/>
      <point x="952" y="1012" type="curve"/>
      <point x="992" y="1200" type="line"/>
      <point x="732" y="1200" type="line"/>
      <point x="696" y="1034" type="line"/>
      <point x="390" y="1004"/>
      <point x="160" y="756"/>
      <point x="160" y="456" type="curve" smooth="yes"/>
      <point x="160" y="252"/>
      <point x="278" y="84"/>
      <point x="484" y="26" type="curve"/>
    </contour>
    <contour>
      <point x="552" y="348" type="line"/>
      <point x="498" y="368"/>
      <point x="466" y="422"/>
      <point x="466" y="494" type="curve" smooth="yes"/>
      <point x="466" y="602"/>
      <point x="544" y="704"/>
      <point x="628" y="706" type="curve"/>
    </contour>
  </outline>
</glyph>
<glyph name="sterling" format="2">
  <advance width="1296"/>
  <unicode hex="00A3"/>
  <outline>
    <contour>
      <point x="10" y="0" type="line"/>
      <point x="1118" y="0" type="line"/>
      <point x="1182" y="298" type="line"/>
      <point x="606" y="298" type="line"/>
      <point x="672" y="380"/>
      <point x="700" y="480"/>
      <point x="700" y="548" type="curve" smooth="yes"/>
      <point x="700" y="660"/>
      <point x="702" y="820"/>
      <point x="700" y="918" type="curve" smooth="yes"/>
      <point x="700" y="1034"/>
      <point x="774" y="1124"/>
      <point x="904" y="1124" type="curve" smooth="yes"/>
      <point x="992" y="1124"/>
      <point x="1082" y="1098"/>
      <point x="1172" y="1016" type="curve"/>
      <point x="1356" y="1252" type="line"/>
      <point x="1290" y="1338"/>
      <point x="1120" y="1426"/>
      <point x="906" y="1426" type="curve" smooth="yes"/>
      <point x="574" y="1426"/>
      <point x="334" y="1228"/>
      <point x="334" y="940" type="curve" smooth="yes"/>
      <point x="334" y="814"/>
      <point x="368" y="606"/>
      <point x="368" y="524" type="curve" smooth="yes"/>
      <point x="368" y="344"/>
      <point x="250" y="308"/>
      <point x="70" y="292" type="curve"/>
    </contour>
    <contour>
      <point x="110" y="560" type="line"/>
      <point x="1026" y="560" type="line"/>
      <point x="1078" y="810" type="line"/>
      <point x="162" y="810" type="line"/>
    </contour>
  </outline>
</glyph>
<glyph name="currency" format="2">
  <advance width="1296"/>
  <unicode hex="00A4"/>
  <outline>
    <contour>
      <point x="253" y="66" type="line"/>
      <point x="423" y="220" type="line"/>
      <point x="485" y="184"/>
      <point x="551" y="170"/>
      <point x="627" y="170" type="curve" smooth="yes"/>
      <point x="697" y="170"/>
      <point x="763" y="188"/>
      <point x="829" y="222" type="curve"/>
      <point x="969" y="66" type="line"/>
      <point x="1191" y="264" type="line"/>
      <point x="1055" y="416" type="line"/>
      <point x="1105" y="492"/>
      <point x="1131" y="568"/>
      <point x="1131" y="662" type="curve" smooth="yes"/>
      <point x="1131" y="718"/>
      <point x="1119" y="778"/>
      <point x="1097" y="828" type="curve"/>
      <point x="1267" y="980" type="line"/>
      <point x="1089" y="1178" type="line"/>
      <point x="919" y="1024" type="line"/>
      <point x="857" y="1060"/>
      <point x="791" y="1074"/>
      <point x="717" y="1074" type="curve" smooth="yes"/>
      <point x="647" y="1074"/>
      <point x="579" y="1056"/>
      <point x="513" y="1022" type="curve"/>
      <point x="373" y="1178" type="line"/>
      <point x="151" y="980" type="line"/>
      <point x="287" y="828" type="line"/>
      <point x="243" y="758"/>
      <point x="211" y="676"/>
      <point x="211" y="580" type="curve" smooth="yes"/>
      <point x="211" y="526"/>
      <point x="221" y="468"/>
      <point x="243" y="416" type="curve"/>
      <point x="75" y="264" type="line"/>
    </contour>
    <contour>
      <point x="655" y="456" type="curve" smooth="yes"/>
      <point x="561" y="456"/>
      <point x="503" y="516"/>
      <point x="503" y="600" type="curve" smooth="yes"/>
      <point x="503" y="704"/>
      <point x="583" y="786"/>
      <point x="685" y="786" type="curve" smooth="yes"/>
      <point x="777" y="786"/>
      <point x="839" y="728"/>
      <point x="839" y="640" type="curve" smooth="yes"/>
      <point x="839" y="532"/>
      <point x="753" y="456"/>
    </contour>
  </outline>
</glyph>
<glyph name="section" format="2">
  <advance width="1301"/>
  <unicode hex="00A7"/>
  <outline>
    <contour>
      <point x="487" y="-450" type="curve" smooth="yes"/>
      <point x="787" y="-450"/>
      <point x="1039" y="-288"/>
      <point x="1039" y="-8" type="curve" smooth="yes"/>
      <point x="1039" y="168"/>
      <point x="921" y="270"/>
      <point x="671" y="338" type="curve" smooth="yes"/>
      <point x="523" y="378"/>
      <point x="435" y="420"/>
      <point x="435" y="494" type="curve" smooth="yes"/>
      <point x="435" y="602"/>
      <point x="555" y="658"/>
      <point x="689" y="652" type="curve"/>
      <point x="721" y="858" type="line"/>
      <point x="375" y="858"/>
      <point x="83" y="726"/>
      <point x="83" y="444" type="curve" smooth="yes"/>
      <point x="83" y="258"/>
      <point x="241" y="166"/>
      <point x="535" y="86" type="curve" smooth="yes"/>
      <point x="669" y="50"/>
      <point x="711" y="16"/>
      <point x="711" y="-36" type="curve" smooth="yes"/>
      <point x="711" y="-104"/>
      <point x="627" y="-142"/>
      <point x="527" y="-142" type="curve" smooth="yes"/>
      <point x="387" y="-142"/>
      <point x="235" y="-84"/>
      <point x="131" y="-2" type="curve"/>
      <point x="-43" y="-272" type="line"/>
      <point x="73" y="-374"/>
      <point x="271" y="-450"/>
    </contour>
    <contour>
      <point x="591" y="128" type="line"/>
      <point x="935" y="128"/>
      <point x="1229" y="256"/>
      <point x="1229" y="544" type="curve" smooth="yes"/>
      <point x="1229" y="722"/>
      <point x="1075" y="820"/>
      <point x="799" y="894" type="curve" smooth="yes"/>
      <point x="647" y="936"/>
      <point x="603" y="964"/>
      <point x="603" y="1016" type="curve" smooth="yes"/>
      <point x="603" y="1092"/>
      <point x="685" y="1122"/>
      <point x="775" y="1122" type="curve" smooth="yes"/>
      <point x="895" y="1122"/>
      <point x="1053" y="1068"/>
      <point x="1151" y="982" type="curve"/>
      <point x="1325" y="1252" type="line"/>
      <point x="1201" y="1364"/>
      <point x="1007" y="1430"/>
      <point x="813" y="1430" type="curve" smooth="yes"/>
      <point x="517" y="1430"/>
      <point x="277" y="1268"/>
      <point x="277" y="990" type="curve" smooth="yes"/>
      <point x="277" y="814"/>
      <point x="393" y="710"/>
      <point x="633" y="650" type="curve" smooth="yes"/>
      <point x="799" y="608"/>
      <point x="879" y="566"/>
      <point x="879" y="494" type="curve" smooth="yes"/>
      <point x="879" y="380"/>
      <point x="755" y="324"/>
      <point x="621" y="332" type="curve"/>
    </contour>
  </outline>
</glyph>
<glyph name="ordfeminine" format="2">
  <advance width="860"/>
  <unicode hex="00AA"/>
  <guideline x="205" y="450" angle="0"/>
  <anchor x="465" y="722" name="bottom"/>
  <anchor x="809" y="722" name="ogonek"/>
  <anchor x="607" y="1398" name="top"/>
  <outline>
    <contour>
      <point x="385" y="704" type="curve" smooth="yes"/>
      <point x="481" y="704"/>
      <point x="559" y="738"/>
      <point x="599" y="788" type="curve"/>
      <point x="587" y="722" type="line"/>
      <point x="809" y="722" type="line"/>
      <point x="885" y="1088" type="line" smooth="yes"/>
      <point x="927" y="1290"/>
      <point x="827" y="1424"/>
      <point x="567" y="1424" type="curve" smooth="yes"/>
      <point x="423" y="1424"/>
      <point x="311" y="1384"/>
      <point x="223" y="1300" type="curve"/>
      <point x="255" y="1462" type="line"/>
      <point x="317" y="1178" type="line"/>
      <point x="359" y="1208"/>
      <point x="437" y="1230"/>
      <point x="505" y="1230" type="curve" smooth="yes"/>
      <point x="613" y="1230"/>
      <point x="661" y="1196"/>
      <point x="645" y="1122" type="curve" smooth="yes"/>
      <point x="615" y="984" type="line" smooth="yes"/>
      <point x="601" y="920"/>
      <point x="549" y="884"/>
      <point x="477" y="884" type="curve" smooth="yes"/>
      <point x="429" y="884"/>
      <point x="399" y="902"/>
      <point x="399" y="932" type="curve" smooth="yes"/>
      <point x="399" y="986"/>
      <point x="517" y="1016"/>
      <point x="651" y="996" type="curve"/>
      <point x="681" y="1144" type="line"/>
      <point x="357" y="1170"/>
      <point x="159" y="1086"/>
      <point x="159" y="910" type="curve" smooth="yes"/>
      <point x="159" y="784"/>
      <point x="249" y="704"/>
    </contour>
  </outline>
</glyph>
<glyph name="logicalnot" format="2">
  <advance width="1296"/>
  <unicode hex="00AC"/>
  <outline>
    <contour>
      <point x="897" y="290" type="line"/>
      <point x="1181" y="290" type="line"/>
      <point x="1341" y="1050" type="line"/>
      <point x="181" y="1050" type="line"/>
      <point x="125" y="782" type="line"/>
      <point x="1001" y="782" type="line"/>
    </contour>
  </outline>
</glyph>
<glyph name="degree" format="2">
  <advance width="904"/>
  <unicode hex="00B0"/>
  <outline>
    <contour>
      <point x="516" y="606" type="curve" smooth="yes"/>
      <point x="764" y="606"/>
      <point x="978" y="812"/>
      <point x="978" y="1058" type="curve" smooth="yes"/>
      <point x="978" y="1264"/>
      <point x="822" y="1420"/>
      <point x="600" y="1420" type="curve" smooth="yes"/>
      <point x="352" y="1420"/>
      <point x="136" y="1216"/>
      <point x="136" y="970" type="curve" smooth="yes"/>
      <point x="136" y="766"/>
      <point x="294" y="606"/>
    </contour>
    <contour>
      <point x="544" y="852" type="curve" smooth="yes"/>
      <point x="454" y="852"/>
      <point x="398" y="908"/>
      <point x="398" y="994" type="curve" smooth="yes"/>
      <point x="398" y="1094"/>
      <point x="474" y="1174"/>
      <point x="572" y="1174" type="curve" smooth="yes"/>
      <point x="660" y="1174"/>
      <point x="718" y="1116"/>
      <point x="718" y="1034" type="curve" smooth="yes"/>
      <point x="718" y="930"/>
      <point x="636" y="852"/>
    </contour>
  </outline>
</glyph>
<glyph name="twosuperior" format="2">
  <advance width="856"/>
  <unicode hex="00B2"/>
  <outline>
    <contour>
      <point x="136" y="722" type="line"/>
      <point x="824" y="722" type="line"/>
      <point x="868" y="934" type="line"/>
      <point x="536" y="934" type="line"/>
      <point x="610" y="990" type="line" smooth="yes"/>
      <point x="798" y="1132"/>
      <point x="930" y="1238"/>
      <point x="930" y="1396" type="curve" smooth="yes"/>
      <point x="930" y="1546"/>
      <point x="808" y="1652"/>
      <point x="600" y="1652" type="curve" smooth="yes"/>
      <point x="491" y="1652"/>
      <point x="373" y="1615"/>
      <point x="279" y="1549" type="curve"/>
      <point x="330" y="1350" type="line"/>
      <point x="402" y="1410"/>
      <point x="480" y="1434"/>
      <point x="552" y="1434" type="curve" smooth="yes"/>
      <point x="636" y="1434"/>
      <point x="682" y="1404"/>
      <point x="682" y="1350" type="curve" smooth="yes"/>
      <point x="682" y="1248"/>
      <point x="568" y="1178"/>
      <point x="414" y="1066" type="curve" smooth="yes"/>
      <point x="170" y="890" type="line"/>
    </contour>
  </outline>
</glyph>
<glyph name="threesuperior" format="2">
  <advance width="824"/>
  <unicode hex="00B3"/>
  <outline>
    <contour>
      <point x="454" y="702" type="curve" smooth="yes"/>
      <point x="662" y="702"/>
      <point x="840" y="828"/>
      <point x="840" y="1022" type="curve" smooth="yes"/>
      <point x="840" y="1150"/>
      <point x="750" y="1228"/>
      <point x="654" y="1252" type="curve"/>
      <point x="894" y="1442" type="line"/>
      <point x="932" y="1632" type="line"/>
      <point x="308" y="1632" type="line"/>
      <point x="266" y="1422" type="line"/>
      <point x="592" y="1422" type="line"/>
      <point x="346" y="1256" type="line"/>
      <point x="378" y="1102" type="line"/>
      <point x="412" y="1110"/>
      <point x="444" y="1112"/>
      <point x="468" y="1112" type="curve" smooth="yes"/>
      <point x="548" y="1112"/>
      <point x="600" y="1080"/>
      <point x="600" y="1022" type="curve" smooth="yes"/>
      <point x="600" y="960"/>
      <point x="540" y="918"/>
      <point x="456" y="918" type="curve" smooth="yes"/>
      <point x="370" y="918"/>
      <point x="280" y="958"/>
      <point x="242" y="1018" type="curve"/>
      <point x="131" y="826" type="line"/>
      <point x="179" y="757"/>
      <point x="318" y="702"/>
    </contour>
  </outline>
</glyph>
<glyph name="paragraph" format="2">
  <advance width="1446"/>
  <unicode hex="00B6"/>
  <outline>
    <contour>
      <point x="361" y="-420" type="line"/>
      <point x="621" y="-420" type="line"/>
      <point x="963" y="1186" type="line"/>
      <point x="1095" y="1186" type="line"/>
      <point x="753" y="-420" type="line"/>
      <point x="1013" y="-420" type="line"/>
      <point x="1355" y="1186" type="line"/>
      <point x="1559" y="1186" type="line"/>
      <point x="1605" y="1400" type="line"/>
      <point x="781" y="1400" type="line" smooth="yes"/>
      <point x="417" y="1400"/>
      <point x="125" y="1204"/>
      <point x="125" y="878" type="curve" smooth="yes"/>
      <point x="125" y="624"/>
      <point x="323" y="458"/>
      <point x="621" y="464" type="curve"/>
      <point x="559" y="510" type="line"/>
    </contour>
  </outline>
</glyph>
<glyph name="onesuperior" format="2">
  <advance width="698"/>
  <unicode hex="00B9"/>
  <outline>
    <contour>
      <point x="382" y="722" type="line"/>
      <point x="622" y="722" type="line"/>
      <point x="818" y="1652" type="line"/>
      <point x="800" y="1652" type="line"/>
      <point x="244" y="1480" type="line"/>
      <point x="306" y="1280" type="line"/>
      <point x="516" y="1340" type="line"/>
    </contour>
  </outline>
</glyph>
<glyph name="ordmasculine" format="2">
  <advance width="898"/>
  <unicode hex="00BA"/>
  <anchor x="513" y="722" name="bottom"/>
  <anchor x="889" y="1398" name="horn"/>
  <anchor x="645" y="722" name="ogonek"/>
  <anchor x="621" y="1398" name="top"/>
  <outline>
    <contour>
      <point x="535" y="702" type="curve" smooth="yes"/>
      <point x="765" y="702"/>
      <point x="965" y="880"/>
      <point x="965" y="1096" type="curve" smooth="yes"/>
      <point x="965" y="1272"/>
      <point x="823" y="1418"/>
      <point x="601" y="1418" type="curve" smooth="yes"/>
      <point x="371" y="1418"/>
      <point x="171" y="1240"/>
      <point x="171" y="1026" type="curve" smooth="yes"/>
      <point x="171" y="848"/>
      <point x="311" y="702"/>
    </contour>
    <contour>
      <point x="553" y="924" type="curve" smooth="yes"/>
      <point x="479" y="924"/>
      <point x="425" y="970"/>
      <point x="425" y="1042" type="curve" smooth="yes"/>
      <point x="425" y="1122"/>
      <point x="487" y="1196"/>
      <point x="583" y="1196" type="curve" smooth="yes"/>
      <point x="657" y="1196"/>
      <point x="709" y="1152"/>
      <point x="709" y="1080" type="curve" smooth="yes"/>
      <point x="709" y="1000"/>
      <point x="649" y="924"/>
    </contour>
  </outline>
</glyph>
<glyph name="AE" format="2">
  <advance width="1858"/>
  <unicode hex="00C6"/>
  <anchor x="1385" y="1400" name="top"/>
  <outline>
    <contour>
      <point x="-213" y="0" type="line"/>
      <point x="239" y="0" type="line"/>
      <point x="395" y="250" type="line"/>
      <point x="737" y="250" type="line"/>
      <point x="685" y="0" type="line"/>
      <point x="1647" y="0" type="line"/>
      <point x="1721" y="352" type="line"/>
      <point x="1163" y="352" type="line"/>
      <point x="1205" y="550" type="line"/>
      <point x="1673" y="550" type="line"/>
      <point x="1741" y="870" type="line"/>
      <point x="1273" y="870" type="line"/>
      <point x="1311" y="1052" type="line"/>
      <point x="1861" y="1052" type="line"/>
      <point x="1935" y="1400" type="line"/>
      <point x="709" y="1400" type="line"/>
    </contour>
    <contour>
      <point x="595" y="566" type="line"/>
      <point x="913" y="1074" type="line"/>
      <point x="805" y="566" type="line"/>
    </contour>
  </outline>
</glyph>
<glyph name="Eth" format="2">
  <advance width="1525"/>
  <unicode hex="00D0"/>
  <anchor x="519" y="712" name="bar"/>
  <anchor x="949" y="1400" name="top"/>
  <outline>
    <contour>
      <point x="-15" y="558" type="line"/>
      <point x="871" y="558" type="line"/>
      <point x="937" y="866" type="line"/>
      <point x="51" y="866" type="line"/>
    </contour>
    <component base="D" xOffset="40"/>
  </outline>
</glyph>
<glyph name="multiply" format="2">
  <advance width="1296"/>
  <unicode hex="00D7"/>
  <outline>
    <contour>
      <point x="210" y="134" type="line"/>
      <point x="652" y="490" type="line"/>
      <point x="930" y="142" type="line"/>
      <point x="1138" y="312" type="line"/>
      <point x="860" y="660" type="line"/>
      <point x="1300" y="1016" type="line"/>
      <point x="1150" y="1206" type="line"/>
      <point x="708" y="850" type="line"/>
      <point x="430" y="1198" type="line"/>
      <point x="222" y="1028" type="line"/>
      <point x="500" y="680" type="line"/>
      <point x="60" y="324" type="line"/>
    </contour>
  </outline>
</glyph>
<glyph name="Oslash" format="2">
  <advance width="1658"/>
  <unicode hex="00D8"/>
  <guideline x="665" y="820" angle="134.042"/>
  <guideline x="170" y="-112" angle="134.042"/>
  <anchor x="978" y="1400" name="top"/>
  <outline>
    <contour>
      <point x="236" y="-94" type="line"/>
      <point x="412" y="76" type="line"/>
      <point x="518" y="10"/>
      <point x="648" y="-30"/>
      <point x="794" y="-30" type="curve" smooth="yes"/>
      <point x="1252" y="-30"/>
      <point x="1630" y="332"/>
      <point x="1630" y="786" type="curve" smooth="yes"/>
      <point x="1630" y="920"/>
      <point x="1594" y="1048"/>
      <point x="1524" y="1150" type="curve"/>
      <point x="1680" y="1298" type="line"/>
      <point x="1474" y="1510" type="line"/>
      <point x="1294" y="1336" type="line"/>
      <point x="1202" y="1392"/>
      <point x="1086" y="1430"/>
      <point x="940" y="1430" type="curve" smooth="yes"/>
      <point x="486" y="1430"/>
      <point x="104" y="1074"/>
      <point x="104" y="608" type="curve" smooth="yes"/>
      <point x="104" y="484"/>
      <point x="134" y="372"/>
      <point x="192" y="274" type="curve"/>
      <point x="30" y="118" type="line"/>
    </contour>
    <contour>
      <point x="528" y="588" type="line"/>
      <point x="524" y="608"/>
      <point x="522" y="628"/>
      <point x="522" y="650" type="curve" smooth="yes"/>
      <point x="522" y="874"/>
      <point x="676" y="1066"/>
      <point x="902" y="1066" type="curve" smooth="yes"/>
      <point x="936" y="1066"/>
      <point x="966" y="1064"/>
      <point x="1004" y="1046" type="curve"/>
    </contour>
    <contour>
      <point x="828" y="334" type="curve" smooth="yes"/>
      <point x="776" y="334"/>
      <point x="734" y="344"/>
      <point x="694" y="362" type="curve"/>
      <point x="1202" y="850" type="line"/>
      <point x="1210" y="822"/>
      <point x="1214" y="792"/>
      <point x="1214" y="762" type="curve" smooth="yes"/>
      <point x="1214" y="534"/>
      <point x="1066" y="334"/>
    </contour>
  </outline>
</glyph>
<glyph name="Thorn" format="2">
  <advance width="1385"/>
  <unicode hex="00DE"/>
  <outline>
    <contour>
      <point x="45" y="0" type="line"/>
      <point x="449" y="0" type="line"/>
      <point x="499" y="236" type="line"/>
      <point x="771" y="236" type="line" smooth="yes"/>
      <point x="1125" y="236"/>
      <point x="1379" y="442"/>
      <point x="1379" y="776" type="curve" smooth="yes"/>
      <point x="1379" y="1040"/>
      <point x="1171" y="1204"/>
      <point x="845" y="1204" type="curve" smooth="yes"/>
      <point x="705" y="1204" type="line"/>
      <point x="745" y="1400" type="line"/>
      <point x="341" y="1400" type="line"/>
    </contour>
    <contour>
      <point x="569" y="570" type="line"/>
      <point x="631" y="860" type="line"/>
      <point x="785" y="860" type="line" smooth="yes"/>
      <point x="897" y="860"/>
      <point x="969" y="836"/>
      <point x="969" y="736" type="curve" smooth="yes"/>
      <point x="969" y="630"/>
      <point x="899" y="570"/>
      <point x="791" y="570" type="curve" smooth="yes"/>
    </contour>
  </outline>
</glyph>
<glyph name="germandbls" format="2">
  <advance width="1467"/>
  <unicode hex="00DF"/>
  <guideline x="407" y="306" angle="90"/>
  <outline>
    <contour>
      <point x="881" y="-28" type="curve" smooth="yes"/>
      <point x="1141" y="-28"/>
      <point x="1381" y="136"/>
      <point x="1381" y="374" type="curve" smooth="yes"/>
      <point x="1381" y="490"/>
      <point x="1309" y="570"/>
      <point x="1253" y="636" type="curve" smooth="yes"/>
      <point x="1217" y="678"/>
      <point x="1185" y="712"/>
      <point x="1185" y="746" type="curve" smooth="yes"/>
      <point x="1185" y="780"/>
      <point x="1213" y="816"/>
      <point x="1247" y="862" type="curve" smooth="yes"/>
      <point x="1297" y="928"/>
      <point x="1369" y="1018"/>
      <point x="1369" y="1140" type="curve" smooth="yes"/>
      <point x="1369" y="1332"/>
      <point x="1165" y="1470"/>
      <point x="845" y="1470" type="curve" smooth="yes"/>
      <point x="499" y="1470"/>
      <point x="287" y="1280"/>
      <point x="217" y="946" type="curve" smooth="yes"/>
      <point x="15" y="0" type="line"/>
      <point x="415" y="0" type="line"/>
      <point x="613" y="924" type="line" smooth="yes"/>
      <point x="643" y="1066"/>
      <point x="705" y="1144"/>
      <point x="821" y="1144" type="curve" smooth="yes"/>
      <point x="909" y="1144"/>
      <point x="969" y="1104"/>
      <point x="969" y="1038" type="curve" smooth="yes"/>
      <point x="969" y="990"/>
      <point x="927" y="938"/>
      <point x="881" y="884" type="curve" smooth="yes"/>
      <point x="829" y="824"/>
      <point x="781" y="754"/>
      <point x="781" y="688" type="curve" smooth="yes"/>
      <point x="781" y="608"/>
      <point x="839" y="550"/>
      <point x="889" y="498" type="curve" smooth="yes"/>
      <point x="935" y="450"/>
      <point x="967" y="408"/>
      <point x="967" y="363" type="curve" smooth="yes"/>
      <point x="967" y="300"/>
      <point x="908" y="268"/>
      <point x="830" y="268" type="curve" smooth="yes"/>
      <point x="773" y="268"/>
      <point x="724" y="287"/>
      <point x="678" y="321" type="curve"/>
      <point x="548" y="36" type="line"/>
      <point x="659" y="-15"/>
      <point x="782" y="-28"/>
    </contour>
  </outline>
</glyph>
<glyph name="ae" format="2">
  <advance width="1854"/>
  <unicode hex="00E6"/>
  <anchor x="1000" y="1040" name="top"/>
  <outline>
    <contour>
      <point x="389" y="-30" type="curve" smooth="yes"/>
      <point x="591" y="-30"/>
      <point x="817" y="46"/>
      <point x="933" y="290" type="curve"/>
      <point x="829" y="274" type="line"/>
      <point x="847" y="74"/>
      <point x="1013" y="-30"/>
      <point x="1261" y="-30" type="curve" smooth="yes"/>
      <point x="1395" y="-30"/>
      <point x="1555" y="14"/>
      <point x="1645" y="72" type="curve"/>
      <point x="1585" y="346" type="line"/>
      <point x="1483" y="294"/>
      <point x="1391" y="270"/>
      <point x="1293" y="270" type="curve" smooth="yes"/>
      <point x="1165" y="270"/>
      <point x="1075" y="324"/>
      <point x="1069" y="408" type="curve"/>
      <point x="1779" y="408" type="line"/>
      <point x="1895" y="778"/>
      <point x="1715" y="1070"/>
      <point x="1347" y="1070" type="curve" smooth="yes"/>
      <point x="1169" y="1070"/>
      <point x="1017" y="1000"/>
      <point x="911" y="854" type="curve"/>
      <point x="1051" y="848" type="line"/>
      <point x="985" y="990"/>
      <point x="841" y="1070"/>
      <point x="627" y="1070" type="curve" smooth="yes"/>
      <point x="461" y="1070"/>
      <point x="313" y="1036"/>
      <point x="193" y="962" type="curve"/>
      <point x="249" y="692" type="line"/>
      <point x="315" y="740"/>
      <point x="429" y="772"/>
      <point x="529" y="772" type="curve" smooth="yes"/>
      <point x="689" y="772"/>
      <point x="758" y="725"/>
      <point x="739" y="620" type="curve" smooth="yes"/>
      <point x="691" y="402" type="line" smooth="yes"/>
      <point x="669" y="298"/>
      <point x="597" y="248"/>
      <point x="493" y="248" type="curve" smooth="yes"/>
      <point x="423" y="248"/>
      <point x="381" y="274"/>
      <point x="381" y="322" type="curve" smooth="yes"/>
      <point x="381" y="419"/>
      <point x="549" y="452"/>
      <point x="743" y="422" type="curve"/>
      <point x="791" y="648" type="line"/>
      <point x="303" y="690"/>
      <point x="11" y="558"/>
      <point x="11" y="286" type="curve" smooth="yes"/>
      <point x="11" y="92"/>
      <point x="153" y="-30"/>
    </contour>
    <contour>
      <point x="1115" y="668" type="line"/>
      <point x="1123" y="740"/>
      <point x="1197" y="790"/>
      <point x="1295" y="790" type="curve" smooth="yes"/>
      <point x="1393" y="790"/>
      <point x="1457" y="740"/>
      <point x="1449" y="668" type="curve"/>
    </contour>
  </outline>
</glyph>
<glyph name="eth" format="2">
  <advance width="1266"/>
  <unicode hex="00F0"/>
  <outline>
    <contour>
      <point x="567" y="-30" type="curve" smooth="yes"/>
      <point x="931" y="-30"/>
      <point x="1223" y="262"/>
      <point x="1223" y="638" type="curve" smooth="yes"/>
      <point x="1223" y="964"/>
      <point x="1009" y="1256"/>
      <point x="687" y="1452" type="curve"/>
      <point x="371" y="1260" type="line"/>
      <point x="593" y="1130"/>
      <point x="751" y="972"/>
      <point x="815" y="822" type="curve"/>
      <point x="889" y="832" type="line"/>
      <point x="809" y="918"/>
      <point x="681" y="930"/>
      <point x="605" y="930" type="curve" smooth="yes"/>
      <point x="305" y="930"/>
      <point x="35" y="708"/>
      <point x="35" y="414" type="curve" smooth="yes"/>
      <point x="35" y="164"/>
      <point x="245" y="-30"/>
    </contour>
    <contour>
      <point x="593" y="300" type="curve" smooth="yes"/>
      <point x="493" y="300"/>
      <point x="429" y="366"/>
      <point x="429" y="458" type="curve" smooth="yes"/>
      <point x="429" y="578"/>
      <point x="519" y="660"/>
      <point x="629" y="660" type="curve" smooth="yes"/>
      <point x="729" y="660"/>
      <point x="795" y="596"/>
      <point x="795" y="504" type="curve" smooth="yes"/>
      <point x="795" y="398"/>
      <point x="715" y="300"/>
    </contour>
    <contour>
      <point x="285" y="902" type="line"/>
      <point x="703" y="1068" type="line"/>
      <point x="703" y="1082" type="line"/>
      <point x="1101" y="1244" type="line"/>
      <point x="1149" y="1468" type="line"/>
      <point x="735" y="1300" type="line"/>
      <point x="731" y="1286" type="line"/>
      <point x="335" y="1128" type="line"/>
    </contour>
  </outline>
</glyph>
<glyph name="thorn" format="2">
  <advance width="1366"/>
  <unicode hex="00FE"/>
  <outline>
    <contour>
      <point x="-72" y="-420" type="line"/>
      <point x="326" y="-420" type="line"/>
      <point x="432" y="76" type="line"/>
      <point x="512" y="4"/>
      <point x="618" y="-30"/>
      <point x="728" y="-30" type="curve" smooth="yes"/>
      <point x="1072" y="-30"/>
      <point x="1322" y="260"/>
      <point x="1322" y="608" type="curve" smooth="yes"/>
      <point x="1322" y="876"/>
      <point x="1138" y="1070"/>
      <point x="848" y="1070" type="curve" smooth="yes"/>
      <point x="766" y="1070"/>
      <point x="696" y="1052"/>
      <point x="630" y="1012" type="curve"/>
      <point x="720" y="1440" type="line"/>
      <point x="322" y="1440" type="line"/>
    </contour>
    <contour>
      <point x="702" y="310" type="curve" smooth="yes"/>
      <point x="594" y="310"/>
      <point x="520" y="382"/>
      <point x="520" y="496" type="curve" smooth="yes"/>
      <point x="520" y="618"/>
      <point x="610" y="730"/>
      <point x="746" y="730" type="curve" smooth="yes"/>
      <point x="852" y="730"/>
      <point x="928" y="664"/>
      <point x="928" y="556" type="curve" smooth="yes"/>
      <point x="928" y="404"/>
      <point x="824" y="310"/>
    </contour>
  </outline>
</glyph>
<glyph name="aogonek" format="2">
  <advance width="1213"/>
  <unicode hex="0105"/>
  <anchor x="471" y="0" name="bottom"/>
  <anchor x="989" y="0" name="ogonek"/>
  <anchor x="689" y="1040" name="top"/>
  <outline>
    <contour>
      <point x="716" y="-449" type="curve" smooth="yes"/>
      <point x="787" y="-449"/>
      <point x="866" y="-433"/>
      <point x="943" y="-389" type="curve"/>
      <point x="901" y="-192" type="line"/>
      <point x="869" y="-217"/>
      <point x="824" y="-229"/>
      <point x="792" y="-229" type="curve" smooth="yes"/>
      <point x="748" y="-229"/>
      <point x="714" y="-205"/>
      <point x="714" y="-158" type="curve" smooth="yes"/>
      <point x="714" y="-32"/>
      <point x="862" y="-7"/>
      <point x="989" y="0" type="curve"/>
      <point x="989.0" y="98.5" type="line"/>
      <point x="726.0" y="87.5"/>
      <point x="478.0" y="-23.5"/>
      <point x="478" y="-240" type="curve" smooth="yes"/>
      <point x="478" y="-367"/>
      <point x="575" y="-449"/>
    </contour>
    <component base="a"/>
  </outline>
</glyph>
<glyph name="dcroat" format="2">
  <advance width="1364"/>
  <unicode hex="0111"/>
  <anchor x="1151" y="1224" name="bar"/>
  <anchor x="1435" y="1440" name="caron"/>
  <outline>
    <contour>
      <point x="689" y="1118" type="line"/>
      <point x="1489" y="1118" type="line"/>
      <point x="1533" y="1330" type="line"/>
      <point x="733" y="1330" type="line"/>
    </contour>
    <component base="d"/>
  </outline>
</glyph>
<glyph name="eogonek" format="2">
  <advance width="1232"/>
  <unicode hex="0119"/>
  <anchor x="520" y="0" name="bottom"/>
  <anchor x="991" y="0" name="ogonek"/>
  <anchor x="708" y="1040" name="top"/>
  <outline>
    <contour>
      <point x="590" y="-30" type="curve" smooth="yes"/>
      <point x="738" y="-30"/>
      <point x="922" y="10"/>
      <point x="1022" y="65" type="curve"/>
      <point x="958" y="342" type="line"/>
      <point x="854" y="292"/>
      <point x="756" y="270"/>
      <point x="646" y="270" type="curve" smooth="yes"/>
      <point x="520" y="270"/>
      <point x="402" y="312"/>
      <point x="400" y="408" type="curve"/>
      <point x="1156" y="408" type="line"/>
      <point x="1278" y="774"/>
      <point x="1072" y="1070"/>
      <point x="674" y="1070" type="curve" smooth="yes"/>
      <point x="316" y="1070"/>
      <point x="50" y="816"/>
      <point x="50" y="460" type="curve" smooth="yes"/>
      <point x="50" y="172"/>
      <point x="258" y="-30"/>
    </contour>
    <contour>
      <point x="468" y="668" type="line"/>
      <point x="480" y="742"/>
      <point x="554" y="790"/>
      <point x="652" y="790" type="curve" smooth="yes"/>
      <point x="748" y="790"/>
      <point x="816" y="750"/>
      <point x="816" y="668" type="curve"/>
    </contour>
    <contour>
      <point x="718" y="-449" type="curve" smooth="yes"/>
      <point x="789" y="-449"/>
      <point x="868" y="-433"/>
      <point x="945" y="-389" type="curve"/>
      <point x="903" y="-192" type="line"/>
      <point x="871" y="-217"/>
      <point x="826" y="-229"/>
      <point x="794" y="-229" type="curve" smooth="yes"/>
      <point x="750" y="-229"/>
      <point x="716" y="-205"/>
      <point x="716" y="-158" type="curve" smooth="yes"/>
      <point x="716" y="-38"/>
      <point x="864" y="5"/>
      <point x="908" y="19" type="curve"/>
      <point x="928" y="121" type="line"/>
      <point x="698" y="81"/>
      <point x="480" y="-35"/>
      <point x="480" y="-235" type="curve" smooth="yes"/>
      <point x="480" y="-365"/>
      <point x="577" y="-449"/>
    </contour>
  </outline>
</glyph>
<glyph name="Hbar" format="2">
  <advance width="1621"/>
  <unicode hex="0126"/>
  <outline>
    <contour>
      <point x="935" y="0" type="line"/>
      <point x="1339" y="0" type="line"/>
      <point x="1635" y="1400" type="line"/>
      <point x="1231" y="1400" type="line"/>
    </contour>
    <contour>
      <point x="63" y="0" type="line"/>
      <point x="467" y="0" type="line"/>
      <point x="763" y="1400" type="line"/>
      <point x="359" y="1400" type="line"/>
    </contour>
    <contour>
      <point x="531" y="458" type="line"/>
      <point x="1063" y="458" type="line"/>
      <point x="1141" y="826" type="line"/>
      <point x="609" y="826" type="line"/>
    </contour>
    <contour>
      <point x="105" y="956" type="line"/>
      <point x="1701" y="956" type="line"/>
      <point x="1767" y="1264" type="line"/>
      <point x="171" y="1264" type="line"/>
    </contour>
  </outline>
</glyph>
<glyph name="idotless" format="2">
  <advance width="654"/>
  <unicode hex="0131"/>
  <anchor x="217" y="0" name="bottom"/>
  <anchor x="417" y="0" name="ogonek"/>
  <anchor x="437" y="1040" name="top"/>
  <outline>
    <contour>
      <point x="17" y="0" type="line"/>
      <point x="417" y="0" type="line"/>
      <point x="637" y="1040" type="line"/>
      <point x="237" y="1040" type="line"/>
    </contour>
  </outline>
</glyph>
<glyph name="kgreenlandic" format="2">
  <advance width="1268"/>
  <unicode hex="0138"/>
  <outline>
    <contour>
      <point x="15" y="0" type="line"/>
      <point x="415" y="0" type="line"/>
      <point x="473" y="270" type="line"/>
      <point x="553" y="344" type="line"/>
      <point x="691" y="0" type="line"/>
      <point x="1147" y="0" type="line"/>
      <point x="885" y="594" type="line"/>
      <point x="1345" y="1040" type="line"/>
      <point x="865" y="1040" type="line"/>
      <point x="579" y="766" type="line"/>
      <point x="637" y="1040" type="line"/>
      <point x="237" y="1040" type="line"/>
    </contour>
  </outline>
</glyph>
<glyph name="Lslash" format="2">
  <advance width="1186"/>
  <unicode hex="0141"/>
  <anchor x="553" y="0" name="bottom"/>
  <anchor x="795" y="1440" name="caron"/>
  <anchor x="583" y="1400" name="top"/>
  <outline>
    <contour>
      <point x="39" y="396" type="line"/>
      <point x="377" y="538" type="line"/>
      <point x="369" y="498" type="line"/>
      <point x="1181" y="844" type="line"/>
      <point x="1067" y="1112" type="line"/>
      <point x="443" y="846" type="line"/>
      <point x="451" y="886" type="line"/>
      <point x="-75" y="664" type="line"/>
    </contour>
    <component base="L" xOffset="40"/>
  </outline>
</glyph>
<glyph name="lslash" format="2">
  <advance width="830"/>
  <unicode hex="0142"/>
  <anchor x="301" y="0" name="bottom"/>
  <anchor x="809" y="1440" name="caron"/>
  <anchor x="609" y="1440" name="top"/>
  <outline>
    <contour>
      <point x="99" y="389" type="line"/>
      <point x="429" y="530" type="line"/>
      <point x="423" y="490" type="line"/>
      <point x="912" y="691" type="line"/>
      <point x="797" y="973" type="line"/>
      <point x="471" y="838" type="line"/>
      <point x="475" y="878" type="line"/>
      <point x="-15" y="667" type="line"/>
    </contour>
    <component base="l" xOffset="86"/>
  </outline>
</glyph>
<glyph name="Eng" format="2">
  <advance width="1599"/>
  <unicode hex="014A"/>
  <outline>
    <contour>
      <point x="962" y="-66" type="line"/>
      <point x="1092" y="596" type="line"/>
      <point x="740" y="1400" type="line"/>
      <point x="344" y="1400" type="line"/>
      <point x="48" y="0" type="line"/>
      <point x="438" y="0" type="line"/>
      <point x="604" y="776" type="line"/>
    </contour>
    <contour>
      <point x="864" y="-450" type="curve" smooth="yes"/>
      <point x="1094" y="-450"/>
      <point x="1270" y="-290"/>
      <point x="1324" y="-36" type="curve" smooth="yes"/>
      <point x="1628" y="1400" type="line"/>
      <point x="1238" y="1400" type="line"/>
      <point x="932" y="-40" type="line" smooth="yes"/>
      <point x="920" y="-96"/>
      <point x="878" y="-126"/>
      <point x="814" y="-126" type="curve" smooth="yes"/>
      <point x="772" y="-126"/>
      <point x="738" y="-118"/>
      <point x="704" y="-98" type="curve"/>
      <point x="576" y="-374" type="line"/>
      <point x="658" y="-428"/>
      <point x="734" y="-450"/>
    </contour>
  </outline>
</glyph>
<glyph name="eng" format="2">
  <advance width="1353"/>
  <unicode hex="014B"/>
  <outline>
    <contour>
      <point x="659" y="-450" type="curve" smooth="yes"/>
      <point x="889" y="-450"/>
      <point x="1065" y="-290"/>
      <point x="1119" y="-36" type="curve" smooth="yes"/>
      <point x="1267" y="662" type="line" smooth="yes"/>
      <point x="1313" y="888"/>
      <point x="1177" y="1070"/>
      <point x="933" y="1070" type="curve" smooth="yes"/>
      <point x="811" y="1070"/>
      <point x="697" y="1020"/>
      <point x="607" y="912" type="curve"/>
      <point x="637" y="1040" type="line"/>
      <point x="237" y="1040" type="line"/>
      <point x="15" y="0" type="line"/>
      <point x="415" y="0" type="line"/>
      <point x="529" y="536" type="line" smooth="yes"/>
      <point x="553" y="650"/>
      <point x="625" y="712"/>
      <point x="729" y="712" type="curve" smooth="yes"/>
      <point x="839" y="712"/>
      <point x="867" y="650"/>
      <point x="841" y="536" type="curve" smooth="yes"/>
      <point x="725" y="-14" type="line" smooth="yes"/>
      <point x="709" y="-92"/>
      <point x="663" y="-124"/>
      <point x="599" y="-124" type="curve" smooth="yes"/>
      <point x="561" y="-124"/>
      <point x="531" y="-116"/>
      <point x="501" y="-98" type="curve"/>
      <point x="373" y="-374" type="line"/>
      <point x="409" y="-412"/>
      <point x="519" y="-450"/>
    </contour>
  </outline>
</glyph>
<glyph name="OE" format="2">
  <advance width="2315"/>
  <unicode hex="0152"/>
  <outline>
    <contour>
      <point x="739" y="-30" type="curve" smooth="yes"/>
      <point x="959" y="-30"/>
      <point x="1127" y="48"/>
      <point x="1227" y="176" type="curve"/>
      <point x="1195" y="246" type="line"/>
      <point x="1145" y="0" type="line"/>
      <point x="2101" y="0" type="line"/>
      <point x="2175" y="352" type="line"/>
      <point x="1533" y="352" type="line"/>
      <point x="1575" y="552" type="line"/>
      <point x="2095" y="552" type="line"/>
      <point x="2163" y="870" type="line"/>
      <point x="1643" y="870" type="line"/>
      <point x="1681" y="1052" type="line"/>
      <point x="2315" y="1052" type="line"/>
      <point x="2389" y="1400" type="line"/>
      <point x="1371" y="1400" type="line"/>
      <point x="1311" y="1120" type="line"/>
      <point x="1407" y="1214" type="line"/>
      <point x="1289" y="1368"/>
      <point x="1123" y="1430"/>
      <point x="887" y="1430" type="curve" smooth="yes"/>
      <point x="453" y="1430"/>
      <point x="109" y="1064"/>
      <point x="109" y="612" type="curve" smooth="yes"/>
      <point x="109" y="246"/>
      <point x="371" y="-30"/>
    </contour>
    <contour>
      <point x="839" y="348" type="curve" smooth="yes"/>
      <point x="655" y="348"/>
      <point x="537" y="460"/>
      <point x="537" y="642" type="curve" smooth="yes"/>
      <point x="537" y="870"/>
      <point x="687" y="1052"/>
      <point x="907" y="1052" type="curve" smooth="yes"/>
      <point x="1091" y="1052"/>
      <point x="1209" y="938"/>
      <point x="1209" y="754" type="curve" smooth="yes"/>
      <point x="1209" y="528"/>
      <point x="1059" y="348"/>
    </contour>
  </outline>
</glyph>
<glyph name="oe" format="2">
  <advance width="2022"/>
  <unicode hex="0153"/>
  <outline>
    <contour>
      <point x="580" y="-30" type="curve" smooth="yes"/>
      <point x="914" y="-30"/>
      <point x="1202" y="248"/>
      <point x="1202" y="582" type="curve" smooth="yes"/>
      <point x="1202" y="852"/>
      <point x="1006" y="1070"/>
      <point x="688" y="1070" type="curve" smooth="yes"/>
      <point x="346" y="1070"/>
      <point x="50" y="792"/>
      <point x="50" y="462" type="curve" smooth="yes"/>
      <point x="50" y="190"/>
      <point x="254" y="-30"/>
    </contour>
    <contour>
      <point x="624" y="310" type="curve" smooth="yes"/>
      <point x="518" y="310"/>
      <point x="442" y="380"/>
      <point x="442" y="490" type="curve" smooth="yes"/>
      <point x="442" y="616"/>
      <point x="532" y="730"/>
      <point x="668" y="730" type="curve" smooth="yes"/>
      <point x="776" y="730"/>
      <point x="850" y="662"/>
      <point x="850" y="550" type="curve" smooth="yes"/>
      <point x="850" y="426"/>
      <point x="760" y="310"/>
    </contour>
    <contour>
      <point x="1388" y="-30" type="curve" smooth="yes"/>
      <point x="1532" y="-30"/>
      <point x="1712" y="12"/>
      <point x="1808" y="68" type="curve"/>
      <point x="1746" y="344" type="line"/>
      <point x="1644" y="294"/>
      <point x="1548" y="270"/>
      <point x="1442" y="270" type="curve" smooth="yes"/>
      <point x="1318" y="270"/>
      <point x="1192" y="310"/>
      <point x="1186" y="408" type="curve"/>
      <point x="1944" y="408" type="line"/>
      <point x="2064" y="778"/>
      <point x="1874" y="1070"/>
      <point x="1490" y="1070" type="curve" smooth="yes"/>
      <point x="1134" y="1070"/>
      <point x="878" y="792"/>
      <point x="878" y="440" type="curve" smooth="yes"/>
      <point x="878" y="156"/>
      <point x="1072" y="-30"/>
    </contour>
    <contour>
      <point x="1254" y="668" type="line"/>
      <point x="1264" y="742"/>
      <point x="1340" y="790"/>
      <point x="1440" y="790" type="curve" smooth="yes"/>
      <point x="1536" y="790"/>
      <point x="1604" y="750"/>
      <point x="1604" y="668" type="curve"/>
    </contour>
  </outline>
</glyph>
<glyph name="uogonek" format="2">
  <advance width="1322"/>
  <unicode hex="0173"/>
  <anchor x="543" y="0" name="bottom"/>
  <anchor x="1085" y="0" name="descender"/>
  <anchor x="1307" y="1040" name="horn"/>
  <anchor x="1085" y="0" name="ogonek"/>
  <anchor x="777" y="1040" name="top"/>
  <outline>
    <contour>
      <point x="812" y="-449" type="curve" smooth="yes"/>
      <point x="883" y="-449"/>
      <point x="962" y="-433"/>
      <point x="1039" y="-389" type="curve"/>
      <point x="997" y="-192" type="line"/>
      <point x="965" y="-217"/>
      <point x="920" y="-229"/>
      <point x="888" y="-229" type="curve" smooth="yes"/>
      <point x="844" y="-229"/>
      <point x="810" y="-205"/>
      <point x="810" y="-158" type="curve" smooth="yes"/>
      <point x="810" y="-32"/>
      <point x="958" y="-7"/>
      <point x="1085" y="0" type="curve"/>
      <point x="1085.0" y="98.5" type="line"/>
      <point x="822.0" y="87.5"/>
      <point x="574.0" y="-23.5"/>
      <point x="574" y="-240" type="curve" smooth="yes"/>
      <point x="574" y="-367"/>
      <point x="671" y="-449"/>
    </contour>
    <component base="u"/>
  </outline>
</glyph>
<glyph name="Oogonek" format="2">
  <advance width="1658"/>
  <unicode hex="01EA"/>
  <anchor x="979" y="1400" name="top"/>
  <outline>
    <contour>
      <point x="748" y="-449" type="curve" smooth="yes"/>
      <point x="819" y="-449"/>
      <point x="898" y="-433"/>
      <point x="975" y="-389" type="curve"/>
      <point x="933" y="-192" type="line"/>
      <point x="901" y="-217"/>
      <point x="856" y="-229"/>
      <point x="824" y="-229" type="curve" smooth="yes"/>
      <point x="780" y="-229"/>
      <point x="746" y="-205"/>
      <point x="746" y="-158" type="curve" smooth="yes"/>
      <point x="746" y="-66"/>
      <point x="837" y="-32"/>
      <point x="937" y="-18" type="curve"/>
      <point x="969" y="99" type="line"/>
      <point x="726" y="72"/>
      <point x="510" y="-38"/>
      <point x="510" y="-235" type="curve" smooth="yes"/>
      <point x="510" y="-365"/>
      <point x="607" y="-449"/>
    </contour>
    <contour>
      <point x="799" y="-30" type="curve" smooth="yes"/>
      <point x="1255" y="-30"/>
      <point x="1629" y="332"/>
      <point x="1629" y="782" type="curve" smooth="yes"/>
      <point x="1629" y="1148"/>
      <point x="1353" y="1430"/>
      <point x="933" y="1430" type="curve" smooth="yes"/>
      <point x="477" y="1430"/>
      <point x="105" y="1070"/>
      <point x="105" y="614" type="curve" smooth="yes"/>
      <point x="105" y="244"/>
      <point x="381" y="-30"/>
    </contour>
    <contour>
      <point x="833" y="348" type="curve" smooth="yes"/>
      <point x="649" y="348"/>
      <point x="531" y="462"/>
      <point x="531" y="644" type="curve" smooth="yes"/>
      <point x="531" y="872"/>
      <point x="681" y="1052"/>
      <point x="901" y="1052" type="curve" smooth="yes"/>
      <point x="1085" y="1052"/>
      <point x="1203" y="938"/>
      <point x="1203" y="756" type="curve" smooth="yes"/>
      <point x="1203" y="528"/>
      <point x="1053" y="348"/>
    </contour>
  </outline>
</glyph>
<glyph name="jdotless" format="2">
  <advance width="654"/>
  <unicode hex="0237"/>
  <anchor x="438" y="1040" name="top"/>
  <outline>
    <contour>
      <point x="-50" y="-450" type="curve" smooth="yes"/>
      <point x="180" y="-450"/>
      <point x="356" y="-290"/>
      <point x="410" y="-36" type="curve" smooth="yes"/>
      <point x="638" y="1040" type="line"/>
      <point x="238" y="1040" type="line"/>
      <point x="14" y="-14" type="line" smooth="yes"/>
      <point x="-2" y="-92"/>
      <point x="-46" y="-126"/>
      <point x="-110" y="-126" type="curve" smooth="yes"/>
      <point x="-148" y="-126"/>
      <point x="-180" y="-118"/>
      <point x="-210" y="-98" type="curve"/>
      <point x="-338" y="-372" type="line"/>
      <point x="-256" y="-428"/>
      <point x="-178" y="-450"/>
    </contour>
  </outline>
</glyph>
<glyph name="schwa" format="2">
  <advance width="1232"/>
  <unicode hex="0259"/>
  <outline>
    <contour>
      <point x="562" y="-30" type="curve" smooth="yes"/>
      <point x="908" y="-30"/>
      <point x="1182" y="230"/>
      <point x="1182" y="572" type="curve" smooth="yes"/>
      <point x="1182" y="898"/>
      <point x="942" y="1070"/>
      <point x="620" y="1070" type="curve" smooth="yes"/>
      <point x="481" y="1070"/>
      <point x="302" y="1026"/>
      <point x="204" y="966" type="curve"/>
      <point x="268" y="690" type="line"/>
      <point x="366" y="742"/>
      <point x="468" y="770"/>
      <point x="572" y="770" type="curve" smooth="yes"/>
      <point x="750" y="770"/>
      <point x="836" y="706"/>
      <point x="836" y="572" type="curve" smooth="yes"/>
      <point x="836" y="400"/>
      <point x="750" y="250"/>
      <point x="574" y="250" type="curve" smooth="yes"/>
      <point x="420" y="250"/>
      <point x="358" y="346"/>
      <point x="388" y="540" type="curve"/>
      <point x="208" y="382" type="line"/>
      <point x="916" y="382" type="line"/>
      <point x="972" y="642" type="line"/>
      <point x="76" y="642" type="line"/>
      <point x="-38" y="278"/>
      <point x="170" y="-30"/>
    </contour>
  </outline>
</glyph>
<glyph name="acutecomb" format="2">
  <unicode hex="0301"/>
  <anchor x="320" y="1040" name="_top"/>
  <outline>
    <contour>
      <point x="148" y="1170" type="line"/>
      <point x="518" y="1170" type="line"/>
      <point x="820" y="1544" type="line"/>
      <point x="412" y="1544" type="line"/>
    </contour>
  </outline>
</glyph>
<glyph name="tildecomb" format="2">
  <unicode hex="0303"/>
  <anchor x="584" y="1040" name="_top"/>
  <anchor x="674" y="1464" name="top"/>
  <outline>
    <contour>
      <point x="296" y="1140" type="line"/>
      <point x="342" y="1234"/>
      <point x="400" y="1278"/>
      <point x="464" y="1278" type="curve" smooth="yes"/>
      <point x="572" y="1278"/>
      <point x="668" y="1170"/>
      <point x="826" y="1170" type="curve" smooth="yes"/>
      <point x="960" y="1170"/>
      <point x="1078" y="1248"/>
      <point x="1122" y="1402" type="curve"/>
      <point x="1012" y="1572" type="line"/>
      <point x="966" y="1478"/>
      <point x="912" y="1436"/>
      <point x="850" y="1436" type="curve" smooth="yes"/>
      <point x="734" y="1436"/>
      <point x="654" y="1544"/>
      <point x="502" y="1544" type="curve" smooth="yes"/>
      <point x="374" y="1544"/>
      <point x="262" y="1462"/>
      <point x="178" y="1310" type="curve"/>
    </contour>
  </outline>
</glyph>
<glyph name="macroncomb" format="2">
  <unicode hex="0304"/>
  <anchor x="508" y="1040" name="_top"/>
  <outline>
    <contour>
      <point x="162" y="1230" type="line"/>
      <point x="938" y="1230" type="line"/>
      <point x="986" y="1462" type="line"/>
      <point x="210" y="1462" type="line"/>
    </contour>
  </outline>
</glyph>
<glyph name="brevecomb" format="2">
  <unicode hex="0306"/>
  <anchor x="568" y="1040" name="_top"/>
  <anchor x="662" y="1484" name="top"/>
  <outline>
    <contour>
      <point x="642" y="1160" type="curve" smooth="yes"/>
      <point x="896" y="1160"/>
      <point x="1088" y="1314"/>
      <point x="1108" y="1544" type="curve"/>
      <point x="788" y="1544" type="line"/>
      <point x="782" y="1462"/>
      <point x="730" y="1410"/>
      <point x="656" y="1410" type="curve" smooth="yes"/>
      <point x="574" y="1410"/>
      <point x="536" y="1472"/>
      <point x="550" y="1544" type="curve"/>
      <point x="228" y="1544" type="line"/>
      <point x="198" y="1310"/>
      <point x="376" y="1160"/>
    </contour>
  </outline>
</glyph>
<glyph name="dotaccentcomb" format="2">
  <unicode hex="0307"/>
  <anchor x="353" y="1040" name="_top"/>
  <anchor x="447" y="1484" name="top"/>
  <outline>
    <contour>
      <point x="411" y="1174" type="curve" smooth="yes"/>
      <point x="549" y="1174"/>
      <point x="659" y="1272"/>
      <point x="659" y="1408" type="curve" smooth="yes"/>
      <point x="659" y="1528"/>
      <point x="565" y="1598"/>
      <point x="443" y="1598" type="curve" smooth="yes"/>
      <point x="311" y="1598"/>
      <point x="195" y="1506"/>
      <point x="195" y="1362" type="curve" smooth="yes"/>
      <point x="195" y="1244"/>
      <point x="291" y="1174"/>
    </contour>
  </outline>
</glyph>
<glyph name="hookabovecomb" format="2">
  <unicode hex="0309"/>
  <anchor x="409" y="1040" name="_top"/>
  <outline>
    <contour>
      <point x="321" y="1170" type="curve"/>
      <point x="557" y="1170" type="line"/>
      <point x="545" y="1214"/>
      <point x="567" y="1232"/>
      <point x="635" y="1262" type="curve" smooth="yes"/>
      <point x="725" y="1302"/>
      <point x="787" y="1354"/>
      <point x="787" y="1454" type="curve" smooth="yes"/>
      <point x="787" y="1564"/>
      <point x="677" y="1634"/>
      <point x="489" y="1634" type="curve" smooth="yes"/>
      <point x="401" y="1634"/>
      <point x="305" y="1618"/>
      <point x="237" y="1588" type="curve"/>
      <point x="251" y="1400" type="line"/>
      <point x="293" y="1416"/>
      <point x="333" y="1426"/>
      <point x="383" y="1426" type="curve" smooth="yes"/>
      <point x="433" y="1426"/>
      <point x="473" y="1416"/>
      <point x="473" y="1396" type="curve" smooth="yes"/>
      <point x="473" y="1370"/>
      <point x="455" y="1362"/>
      <point x="405" y="1348" type="curve" smooth="yes"/>
      <point x="307" y="1322"/>
      <point x="281" y="1262"/>
    </contour>
  </outline>
</glyph>
<glyph name="hungarumlautcomb" format="2">
  <unicode hex="030B"/>
  <anchor x="-706" y="1040" name="_top"/>
  <outline>
    <contour>
      <point x="-606" y="1170" type="line"/>
      <point x="-266" y="1170" type="line"/>
      <point x="16" y="1544" type="line"/>
      <point x="-362" y="1544" type="line"/>
    </contour>
    <contour>
      <point x="-1116" y="1170" type="line"/>
      <point x="-776" y="1170" type="line"/>
      <point x="-494" y="1544" type="line"/>
      <point x="-872" y="1544" type="line"/>
    </contour>
  </outline>
</glyph>
<glyph name="caroncomb" format="2">
  <unicode hex="030C"/>
  <anchor x="590" y="1040" name="_top"/>
  <outline>
    <contour>
      <point x="450" y="1170" type="line"/>
      <point x="788" y="1170" type="line"/>
      <point x="1186" y="1544" type="line"/>
      <point x="806" y="1544" type="line"/>
      <point x="658" y="1386" type="line"/>
      <point x="580" y="1544" type="line"/>
      <point x="228" y="1544" type="line"/>
    </contour>
  </outline>
</glyph>
<glyph name="commaturnedabovecomb" format="2">
  <unicode hex="0312"/>
  <anchor x="365" y="1040" name="_top"/>
  <outline>
    <contour>
      <point x="446" y="1174" type="curve" smooth="yes"/>
      <point x="580" y="1174"/>
      <point x="679" y="1269"/>
      <point x="679" y="1393" type="curve" smooth="yes"/>
      <point x="679" y="1507"/>
      <point x="585" y="1578"/>
      <point x="466" y="1582" type="curve"/>
      <point x="521" y="1662"/>
      <point x="638" y="1727"/>
      <point x="777" y="1780" type="curve"/>
      <point x="699" y="1931" type="line"/>
      <point x="437" y="1803"/>
      <point x="206" y="1632"/>
      <point x="206" y="1408" type="curve" smooth="yes"/>
      <point x="206" y="1265"/>
      <point x="305" y="1174"/>
    </contour>
  </outline>
</glyph>
<glyph name="horncomb" format="2">
  <unicode hex="031B"/>
  <anchor x="559" y="1040" name="_horn"/>
  <outline>
    <contour>
      <point x="625" y="752" type="curve" smooth="yes"/>
      <point x="807" y="752"/>
      <point x="939" y="884"/>
      <point x="939" y="1046" type="curve" smooth="yes"/>
      <point x="939" y="1128"/>
      <point x="905" y="1220"/>
      <point x="833" y="1296" type="curve"/>
      <point x="601" y="1180" type="line"/>
      <point x="641" y="1132"/>
      <point x="657" y="1088"/>
      <point x="657" y="1052" type="curve" smooth="yes"/>
      <point x="657" y="1010"/>
      <point x="629" y="978"/>
      <point x="575" y="978" type="curve" smooth="yes"/>
      <point x="481" y="978"/>
      <point x="357" y="1070"/>
      <point x="127" y="1070" type="curve"/>
      <point x="85" y="860" type="line"/>
      <point x="273" y="874"/>
      <point x="445" y="752"/>
    </contour>
  </outline>
</glyph>
<glyph name="dotbelowcomb" format="2">
  <unicode hex="0323"/>
  <anchor x="133" y="0" name="_bottom"/>
  <outline>
    <contour>
      <point x="43" y="-558" type="curve" smooth="yes"/>
      <point x="181" y="-558"/>
      <point x="291" y="-460"/>
      <point x="291" y="-324" type="curve" smooth="yes"/>
      <point x="291" y="-204"/>
      <point x="197" y="-134"/>
      <point x="75" y="-134" type="curve" smooth="yes"/>
      <point x="-57" y="-134"/>
      <point x="-173" y="-226"/>
      <point x="-173" y="-370" type="curve" smooth="yes"/>
      <point x="-173" y="-488"/>
      <point x="-77" y="-558"/>
    </contour>
  </outline>
</glyph>
<glyph name="dieresisbelowcomb" format="2">
  <unicode hex="0324"/>
  <anchor x="387" y="0" name="_bottom"/>
  <outline>
    <contour>
      <point x="21" y="-538" type="curve" smooth="yes"/>
      <point x="135" y="-538"/>
      <point x="253" y="-452"/>
      <point x="253" y="-310" type="curve" smooth="yes"/>
      <point x="253" y="-200"/>
      <point x="165" y="-130"/>
      <point x="61" y="-130" type="curve" smooth="yes"/>
      <point x="-53" y="-130"/>
      <point x="-171" y="-216"/>
      <point x="-171" y="-358" type="curve" smooth="yes"/>
      <point x="-171" y="-468"/>
      <point x="-83" y="-538"/>
    </contour>
    <contour>
      <point x="569" y="-538" type="curve" smooth="yes"/>
      <point x="683" y="-538"/>
      <point x="801" y="-452"/>
      <point x="801" y="-310" type="curve" smooth="yes"/>
      <point x="801" y="-200"/>
      <point x="713" y="-130"/>
      <point x="609" y="-130" type="curve" smooth="yes"/>
      <point x="495" y="-130"/>
      <point x="377" y="-216"/>
      <point x="377" y="-358" type="curve" smooth="yes"/>
      <point x="377" y="-468"/>
      <point x="465" y="-538"/>
    </contour>
  </outline>
</glyph>
<glyph name="commaaccentcomb" format="2">
  <unicode hex="0326"/>
  <anchor x="155" y="0" name="_bottom"/>
  <outline>
    <contour>
      <point x="-180" y="-891" type="line"/>
      <point x="82" y="-763"/>
      <point x="313" y="-592"/>
      <point x="313" y="-368" type="curve" smooth="yes"/>
      <point x="313" y="-225"/>
      <point x="214" y="-134"/>
      <point x="73" y="-134" type="curve" smooth="yes"/>
      <point x="-61" y="-134"/>
      <point x="-160" y="-229"/>
      <point x="-160" y="-353" type="curve" smooth="yes"/>
      <point x="-160" y="-467"/>
      <point x="-66" y="-538"/>
      <point x="53" y="-542" type="curve"/>
      <point x="-2" y="-622"/>
      <point x="-119" y="-687"/>
      <point x="-258" y="-740" type="curve"/>
    </contour>
  </outline>
</glyph>
<glyph name="cedillacomb" format="2">
  <unicode hex="0327"/>
  <anchor x="205" y="0" name="_bottom"/>
  <outline>
    <contour>
      <point x="119" y="-450" type="curve" smooth="yes"/>
      <point x="319" y="-450"/>
      <point x="463" y="-368"/>
      <point x="463" y="-234" type="curve" smooth="yes"/>
      <point x="463" y="-152"/>
      <point x="393" y="-86"/>
      <point x="253" y="-60" type="curve"/>
      <point x="309" y="40" type="line"/>
      <point x="105" y="40" type="line"/>
      <point x="13" y="-76" type="line"/>
      <point x="63" y="-218" type="line"/>
      <point x="135" y="-204"/>
      <point x="189" y="-222"/>
      <point x="189" y="-242" type="curve" smooth="yes"/>
      <point x="189" y="-258"/>
      <point x="167" y="-268"/>
      <point x="117" y="-268" type="curve" smooth="yes"/>
      <point x="41" y="-268"/>
      <point x="-37" y="-246"/>
      <point x="-77" y="-202" type="curve"/>
      <point x="-177" y="-360" type="line"/>
      <point x="-99" y="-418"/>
      <point x="23" y="-450"/>
    </contour>
  </outline>
</glyph>
<glyph name="macronbelowcomb" format="2">
  <unicode hex="0331"/>
  <anchor x="289" y="0" name="_bottom"/>
  <outline>
    <contour>
      <point x="-189" y="-422" type="line"/>
      <point x="587" y="-422" type="line"/>
      <point x="635" y="-190" type="line"/>
      <point x="-141" y="-190" type="line"/>
    </contour>
  </outline>
</glyph>
<glyph name="strokeshortcomb" format="2">
  <unicode hex="0335"/>
  <anchor x="-638" y="534" name="_bar"/>
  <outline>
    <contour>
      <point x="-1060" y="428" type="line"/>
      <point x="-260" y="428" type="line"/>
      <point x="-214" y="640" type="line"/>
      <point x="-1014" y="640" type="line"/>
    </contour>
  </outline>
</glyph>
<glyph name="tonos" format="2">
  <advance width="559"/>
  <unicode hex="0384"/>
  <anchor x="360" y="1040" name="_top"/>
  <outline>
    <contour>
      <point x="180" y="1170" type="line"/>
      <point x="540" y="1170" type="line"/>
      <point x="796" y="1544" type="line"/>
      <point x="400" y="1544" type="line"/>
    </contour>
  </outline>
</glyph>
<glyph name="Delta" format="2">
  <advance width="1454"/>
  <unicode hex="0394"/>
  <guideline x="1319" y="168" angle="258.2317"/>
  <outline>
    <contour>
      <point x="-50" y="0" type="line"/>
      <point x="1284" y="0" type="line"/>
      <point x="1354" y="336" type="line"/>
      <point x="1150" y="1400" type="line"/>
      <point x="680" y="1400" type="line"/>
      <point x="20" y="336" type="line"/>
    </contour>
    <contour>
      <point x="476" y="368" type="line"/>
      <point x="828" y="946" type="line"/>
      <point x="936" y="368" type="line"/>
    </contour>
  </outline>
</glyph>
<glyph name="Lambda" format="2">
  <advance width="1472"/>
  <unicode hex="039B"/>
  <outline>
    <contour>
      <point x="-105" y="0" type="line"/>
      <point x="359" y="0" type="line"/>
      <point x="823" y="890" type="line"/>
      <point x="911" y="0" type="line"/>
      <point x="1355" y="0" type="line"/>
      <point x="1157" y="1400" type="line"/>
      <point x="687" y="1400" type="line"/>
    </contour>
  </outline>
</glyph>
<glyph name="Xi" format="2">
  <advance width="1291"/>
  <unicode hex="039E"/>
  <outline>
    <contour>
      <point x="-10" y="0" type="line"/>
      <point x="1080" y="0" type="line"/>
      <point x="1154" y="352" type="line"/>
      <point x="64" y="352" type="line"/>
    </contour>
    <contour>
      <point x="246" y="548" type="line"/>
      <point x="1056" y="548" type="line"/>
      <point x="1124" y="866" type="line"/>
      <point x="314" y="866" type="line"/>
    </contour>
    <contour>
      <point x="232" y="1052" type="line"/>
      <point x="1282" y="1052" type="line"/>
      <point x="1356" y="1400" type="line"/>
      <point x="306" y="1400" type="line"/>
    </contour>
  </outline>
</glyph>
<glyph name="Sigma" format="2">
  <advance width="1194"/>
  <unicode hex="03A3"/>
  <outline>
    <contour>
      <point x="-47" y="0" type="line"/>
      <point x="1015" y="0" type="line"/>
      <point x="1089" y="356" type="line"/>
      <point x="545" y="356" type="line"/>
      <point x="893" y="716" type="line"/>
      <point x="663" y="1044" type="line"/>
      <point x="1221" y="1044" type="line"/>
      <point x="1295" y="1400" type="line"/>
      <point x="267" y="1400" type="line"/>
      <point x="199" y="1074" type="line"/>
      <point x="443" y="710" type="line"/>
      <point x="21" y="328" type="line"/>
    </contour>
  </outline>
</glyph>
<glyph name="Psi" format="2">
  <advance width="1850"/>
  <unicode hex="03A8"/>
  <outline>
    <contour>
      <point x="616" y="0" type="line"/>
      <point x="1016" y="0" type="line"/>
      <point x="1068" y="245" type="line"/>
      <point x="1489" y="273"/>
      <point x="1741" y="492"/>
      <point x="1825" y="887" type="curve" smooth="yes"/>
      <point x="1859" y="1048"/>
      <point x="1867" y="1255"/>
      <point x="1839" y="1420" type="curve"/>
      <point x="1445" y="1367" type="line"/>
      <point x="1468" y="1223"/>
      <point x="1469" y="1067"/>
      <point x="1441" y="936" type="curve" smooth="yes"/>
      <point x="1404" y="762"/>
      <point x="1315" y="646"/>
      <point x="1143" y="606" type="curve"/>
      <point x="1310" y="1400" type="line"/>
      <point x="910" y="1400" type="line"/>
      <point x="746" y="618" type="line"/>
      <point x="645" y="655"/>
      <point x="582" y="729"/>
      <point x="582" y="873" type="curve" smooth="yes"/>
      <point x="582" y="1010"/>
      <point x="656" y="1247"/>
      <point x="747" y="1357" type="curve"/>
      <point x="378" y="1420" type="line"/>
      <point x="264" y="1289"/>
      <point x="189" y="1016"/>
      <point x="189" y="830" type="curve" smooth="yes"/>
      <point x="189" y="490"/>
      <point x="359" y="325"/>
      <point x="672" y="266" type="curve"/>
    </contour>
  </outline>
</glyph>
<glyph name="Omega" format="2">
  <advance width="1626"/>
  <unicode hex="03A9"/>
  <anchor x="653" y="0" name="bottom"/>
  <anchor x="219" y="1400" name="topleft"/>
  <outline>
    <contour>
      <point x="-59" y="0" type="line"/>
      <point x="645" y="0" type="line"/>
      <point x="719" y="344" type="line"/>
      <point x="595" y="424"/>
      <point x="537" y="534"/>
      <point x="537" y="676" type="curve" smooth="yes"/>
      <point x="537" y="890"/>
      <point x="671" y="1052"/>
      <point x="895" y="1052" type="curve" smooth="yes"/>
      <point x="1087" y="1052"/>
      <point x="1199" y="934"/>
      <point x="1199" y="758" type="curve" smooth="yes"/>
      <point x="1199" y="570"/>
      <point x="1071" y="432"/>
      <point x="859" y="344" type="curve"/>
      <point x="785" y="0" type="line"/>
      <point x="1469" y="0" type="line"/>
      <point x="1543" y="350" type="line"/>
      <point x="1229" y="350" type="line"/>
      <point x="1475" y="456"/>
      <point x="1621" y="636"/>
      <point x="1621" y="884" type="curve" smooth="yes"/>
      <point x="1621" y="1216"/>
      <point x="1325" y="1430"/>
      <point x="929" y="1430" type="curve" smooth="yes"/>
      <point x="467" y="1430"/>
      <point x="115" y="1176"/>
      <point x="115" y="770" type="curve" smooth="yes"/>
      <point x="115" y="544"/>
      <point x="237" y="402"/>
      <point x="349" y="350" type="curve"/>
      <point x="15" y="350" type="line"/>
    </contour>
  </outline>
</glyph>
<glyph name="alpha" format="2">
  <advance width="1404"/>
  <unicode hex="03B1"/>
  <anchor x="842" y="1040" name="top"/>
  <outline>
    <contour>
      <point x="467" y="-30" type="curve" smooth="yes"/>
      <point x="613" y="-30"/>
      <point x="752" y="30"/>
      <point x="832" y="150" type="curve"/>
      <point x="854" y="-40"/>
      <point x="1080" y="-71"/>
      <point x="1262" y="17" type="curve"/>
      <point x="1262" y="318" type="line"/>
      <point x="1114" y="278"/>
      <point x="1126" y="372"/>
      <point x="1186" y="520" type="curve" smooth="yes"/>
      <point x="1396" y="1040" type="line"/>
      <point x="1030" y="1040" type="line"/>
      <point x="974" y="890" type="line"/>
      <point x="882" y="1016"/>
      <point x="751" y="1070"/>
      <point x="611" y="1070" type="curve" smooth="yes"/>
      <point x="277" y="1070"/>
      <point x="47" y="776"/>
      <point x="47" y="445" type="curve" smooth="yes"/>
      <point x="47" y="167"/>
      <point x="197" y="-30"/>
    </contour>
    <contour>
      <point x="572" y="310" type="curve" smooth="yes"/>
      <point x="496" y="310"/>
      <point x="430" y="362"/>
      <point x="430" y="472" type="curve" smooth="yes"/>
      <point x="430" y="588"/>
      <point x="504" y="730"/>
      <point x="632" y="730" type="curve" smooth="yes"/>
      <point x="736" y="730"/>
      <point x="782" y="638"/>
      <point x="782" y="514" type="curve"/>
      <point x="754" y="378"/>
      <point x="658" y="310"/>
    </contour>
  </outline>
</glyph>
<glyph name="gamma" format="2">
  <advance width="1241"/>
  <unicode hex="03B3"/>
  <outline>
    <contour>
      <point x="193" y="-420" type="line"/>
      <point x="593" y="-420" type="line"/>
      <point x="679" y="-20" type="line"/>
      <point x="963" y="300"/>
      <point x="1184" y="656"/>
      <point x="1301" y="995" type="curve"/>
      <point x="897" y="1061" type="line"/>
      <point x="813" y="814"/>
      <point x="675" y="503"/>
      <point x="493" y="276" type="curve"/>
      <point x="587" y="190" type="line"/>
      <point x="533" y="1040" type="line"/>
      <point x="117" y="1040" type="line"/>
      <point x="273" y="-52" type="line"/>
    </contour>
  </outline>
</glyph>
<glyph name="epsilon" format="2">
  <advance width="1094"/>
  <unicode hex="03B5"/>
  <anchor x="677" y="1040" name="top"/>
  <outline>
    <contour>
      <point x="495" y="-30" type="curve" smooth="yes"/>
      <point x="663" y="-30"/>
      <point x="816" y="2"/>
      <point x="975" y="75" type="curve"/>
      <point x="915" y="354" type="line"/>
      <point x="783" y="299"/>
      <point x="684" y="276"/>
      <point x="581" y="276" type="curve" smooth="yes"/>
      <point x="473" y="276"/>
      <point x="429" y="294"/>
      <point x="429" y="339" type="curve" smooth="yes"/>
      <point x="429" y="381"/>
      <point x="478" y="404"/>
      <point x="569" y="404" type="curve" smooth="yes"/>
      <point x="727" y="404" type="line"/>
      <point x="779" y="652" type="line"/>
      <point x="619" y="652" type="line" smooth="yes"/>
      <point x="538" y="652"/>
      <point x="505" y="666"/>
      <point x="505" y="701" type="curve" smooth="yes"/>
      <point x="505" y="747"/>
      <point x="569" y="772"/>
      <point x="685" y="772" type="curve" smooth="yes"/>
      <point x="791" y="772"/>
      <point x="883" y="743"/>
      <point x="951" y="688" type="curve"/>
      <point x="1108" y="972" type="line"/>
      <point x="976" y="1039"/>
      <point x="837" y="1070"/>
      <point x="664" y="1070" type="curve" smooth="yes"/>
      <point x="353" y="1070"/>
      <point x="139" y="930"/>
      <point x="139" y="726" type="curve" smooth="yes"/>
      <point x="139" y="647"/>
      <point x="188" y="580"/>
      <point x="275" y="540" type="curve"/>
      <point x="118" y="503"/>
      <point x="21" y="403"/>
      <point x="21" y="278" type="curve" smooth="yes"/>
      <point x="21" y="87"/>
      <point x="195" y="-30"/>
    </contour>
  </outline>
</glyph>
<glyph name="zeta" format="2">
  <advance width="1056"/>
  <unicode hex="03B6"/>
  <outline>
    <contour>
      <point x="764" y="-450" type="line"/>
      <point x="865" y="-360"/>
      <point x="947" y="-196"/>
      <point x="947" y="-85" type="curve" smooth="yes"/>
      <point x="947" y="209"/>
      <point x="453" y="304"/>
      <point x="451" y="492" type="curve" smooth="yes"/>
      <point x="451" y="690"/>
      <point x="773" y="921"/>
      <point x="1172" y="1180" type="curve"/>
      <point x="1226" y="1440" type="line"/>
      <point x="281" y="1440" type="line"/>
      <point x="213" y="1112" type="line"/>
      <point x="620" y="1112" type="line"/>
      <point x="297" y="937"/>
      <point x="46" y="683"/>
      <point x="46" y="422" type="curve" smooth="yes"/>
      <point x="46" y="85"/>
      <point x="547" y="13"/>
      <point x="547" y="-184" type="curve" smooth="yes"/>
      <point x="547" y="-235"/>
      <point x="507" y="-304"/>
      <point x="419" y="-406" type="curve"/>
    </contour>
  </outline>
</glyph>
<glyph name="iota" format="2">
  <advance width="759"/>
  <unicode hex="03B9"/>
  <anchor x="427" y="1040" name="top"/>
  <outline>
    <contour>
      <point x="417" y="-30" type="curve" smooth="yes"/>
      <point x="479" y="-30"/>
      <point x="551" y="-20"/>
      <point x="635" y="8" type="curve"/>
      <point x="635" y="318" type="line"/>
      <point x="609" y="310"/>
      <point x="585" y="306"/>
      <point x="565" y="306" type="curve" smooth="yes"/>
      <point x="505" y="306"/>
      <point x="477" y="346"/>
      <point x="493" y="416" type="curve" smooth="yes"/>
      <point x="627" y="1040" type="line"/>
      <point x="227" y="1040" type="line"/>
      <point x="81" y="356" type="line" smooth="yes"/>
      <point x="41" y="174"/>
      <point x="135" y="-30"/>
    </contour>
  </outline>
</glyph>
<glyph name="kappa" format="2">
  <advance width="1238"/>
  <unicode hex="03BA"/>
  <outline>
    <contour>
      <point x="15" y="0" type="line"/>
      <point x="415" y="0" type="line"/>
      <point x="481" y="308" type="line"/>
      <point x="579" y="374" type="line"/>
      <point x="675" y="0" type="line"/>
      <point x="1087" y="0" type="line"/>
      <point x="897" y="592" type="line"/>
      <point x="947" y="626" type="line" smooth="yes"/>
      <point x="1043" y="692"/>
      <point x="1099" y="720"/>
      <point x="1221" y="704" type="curve"/>
      <point x="1241" y="1066" type="line"/>
      <point x="1089" y="1088"/>
      <point x="955" y="1040"/>
      <point x="787" y="914" type="curve" smooth="yes"/>
      <point x="575" y="756" type="line"/>
      <point x="637" y="1040" type="line"/>
      <point x="237" y="1040" type="line"/>
    </contour>
  </outline>
</glyph>
<glyph name="lambda" format="2">
  <advance width="1264"/>
  <unicode hex="03BB"/>
  <outline>
    <contour>
      <point x="-102" y="0" type="line"/>
      <point x="330" y="0" type="line"/>
      <point x="666" y="638" type="line"/>
      <point x="722" y="0" type="line"/>
      <point x="1144" y="0" type="line"/>
      <point x="958" y="1118" type="line" smooth="yes"/>
      <point x="911" y="1388"/>
      <point x="775" y="1470"/>
      <point x="540" y="1470" type="curve" smooth="yes"/>
      <point x="456" y="1470"/>
      <point x="350" y="1456"/>
      <point x="264" y="1430" type="curve"/>
      <point x="264" y="1110" type="line"/>
      <point x="326" y="1124"/>
      <point x="388" y="1132"/>
      <point x="430" y="1132" type="curve" smooth="yes"/>
      <point x="494" y="1132"/>
      <point x="548" y="1114"/>
      <point x="550" y="1056" type="curve" smooth="yes"/>
      <point x="550" y="1040" type="line"/>
    </contour>
  </outline>
</glyph>
<glyph name="mu" format="2">
  <advance width="1343"/>
  <unicode hex="03BC"/>
  <outline>
    <contour>
      <point x="-71" y="-420" type="line"/>
      <point x="297" y="-420" type="line"/>
      <point x="389" y="8" type="line"/>
      <point x="429" y="-20"/>
      <point x="471" y="-30"/>
      <point x="525" y="-30" type="curve" smooth="yes"/>
      <point x="617" y="-30"/>
      <point x="715" y="0"/>
      <point x="799" y="136" type="curve"/>
      <point x="767" y="0" type="line"/>
      <point x="1103" y="0" type="line"/>
      <point x="1325" y="1040" type="line"/>
      <point x="925" y="1040" type="line"/>
      <point x="805" y="482" type="line" smooth="yes"/>
      <point x="787" y="392"/>
      <point x="727" y="330"/>
      <point x="629" y="330" type="curve" smooth="yes"/>
      <point x="531" y="330"/>
      <point x="503" y="392"/>
      <point x="521" y="472" type="curve" smooth="yes"/>
      <point x="641" y="1040" type="line"/>
      <point x="241" y="1040" type="line"/>
    </contour>
  </outline>
</glyph>
<glyph name="nu" format="2">
  <advance width="1229"/>
  <unicode hex="03BD"/>
  <outline>
    <contour>
      <point x="243" y="0" type="line"/>
      <point x="679" y="0" type="line"/>
      <point x="946" y="300"/>
      <point x="1170" y="656"/>
      <point x="1289" y="995" type="curve"/>
      <point x="885" y="1061" type="line"/>
      <point x="799" y="814"/>
      <point x="658" y="503"/>
      <point x="504" y="324" type="curve"/>
      <point x="576" y="228" type="line"/>
      <point x="537" y="1040" type="line"/>
      <point x="117" y="1040" type="line"/>
    </contour>
  </outline>
</glyph>
<glyph name="xi" format="2">
  <advance width="1071"/>
  <unicode hex="03BE"/>
  <guideline x="956" y="741" angle="257.9694"/>
  <outline>
    <contour>
      <point x="756" y="-450" type="line"/>
      <point x="857" y="-360"/>
      <point x="939" y="-196"/>
      <point x="939" y="-85" type="curve" smooth="yes"/>
      <point x="939" y="209"/>
      <point x="445" y="304"/>
      <point x="443" y="452" type="curve" smooth="yes"/>
      <point x="442" y="528"/>
      <point x="504" y="568"/>
      <point x="624" y="568" type="curve" smooth="yes"/>
      <point x="919" y="568" type="line"/>
      <point x="988" y="893" type="line"/>
      <point x="728" y="893" type="line" smooth="yes"/>
      <point x="644" y="893"/>
      <point x="592" y="934"/>
      <point x="592" y="1000" type="curve" smooth="yes"/>
      <point x="592" y="1089"/>
      <point x="667" y="1140"/>
      <point x="798" y="1140" type="curve" smooth="yes"/>
      <point x="904" y="1140"/>
      <point x="1019" y="1104"/>
      <point x="1094" y="1048" type="curve"/>
      <point x="1261" y="1354" type="line"/>
      <point x="1135" y="1428"/>
      <point x="962" y="1470"/>
      <point x="778" y="1470" type="curve" smooth="yes"/>
      <point x="453" y="1470"/>
      <point x="229" y="1305"/>
      <point x="229" y="1066" type="curve" smooth="yes"/>
      <point x="229" y="958"/>
      <point x="285" y="868"/>
      <point x="396" y="802" type="curve"/>
      <point x="170" y="755"/>
      <point x="38" y="615"/>
      <point x="38" y="422" type="curve" smooth="yes"/>
      <point x="38" y="85"/>
      <point x="539" y="13"/>
      <point x="539" y="-184" type="curve" smooth="yes"/>
      <point x="539" y="-235"/>
      <point x="499" y="-304"/>
      <point x="411" y="-406" type="curve"/>
    </contour>
  </outline>
</glyph>
<glyph name="pi" format="2">
  <advance width="1403"/>
  <unicode hex="03C0"/>
  <outline>
    <contour>
      <point x="1030" y="-30" type="curve" smooth="yes"/>
      <point x="1084" y="-30"/>
      <point x="1160" y="-22"/>
      <point x="1246" y="4" type="curve"/>
      <point x="1246" y="318" type="line"/>
      <point x="1222" y="310"/>
      <point x="1198" y="306"/>
      <point x="1180" y="306" type="curve" smooth="yes"/>
      <point x="1126" y="306"/>
      <point x="1098" y="342"/>
      <point x="1116" y="426" type="curve" smooth="yes"/>
      <point x="1176" y="712" type="line"/>
      <point x="1362" y="712" type="line"/>
      <point x="1432" y="1040" type="line"/>
      <point x="144" y="1040" type="line"/>
      <point x="74" y="712" type="line"/>
      <point x="236" y="712" type="line"/>
      <point x="58" y="0" type="line"/>
      <point x="452" y="0" type="line"/>
      <point x="630" y="712" type="line"/>
      <point x="794" y="712" type="line"/>
      <point x="728" y="406" type="line" smooth="yes"/>
      <point x="666" y="110"/>
      <point x="812" y="-30"/>
    </contour>
  </outline>
</glyph>
<glyph name="tau" format="2">
  <advance width="964"/>
  <unicode hex="03C4"/>
  <outline>
    <contour>
      <point x="534" y="-30" type="curve" smooth="yes"/>
      <point x="588" y="-30"/>
      <point x="686" y="-24"/>
      <point x="776" y="4" type="curve"/>
      <point x="776" y="324" type="line"/>
      <point x="748" y="314"/>
      <point x="722" y="310"/>
      <point x="702" y="310" type="curve" smooth="yes"/>
      <point x="636" y="310"/>
      <point x="608" y="354"/>
      <point x="626" y="438" type="curve" smooth="yes"/>
      <point x="682" y="704" type="line"/>
      <point x="974" y="704" type="line"/>
      <point x="1046" y="1040" type="line"/>
      <point x="108" y="1040" type="line"/>
      <point x="36" y="704" type="line"/>
      <point x="282" y="704" type="line"/>
      <point x="214" y="384" type="line" smooth="yes"/>
      <point x="154" y="104"/>
      <point x="288" y="-30"/>
    </contour>
  </outline>
</glyph>
<glyph name="upsilon" format="2">
  <advance width="1284"/>
  <unicode hex="03C5"/>
  <anchor x="724" y="1040" name="top"/>
  <outline>
    <contour>
      <point x="576" y="-30" type="curve" smooth="yes"/>
      <point x="987" y="-30"/>
      <point x="1209" y="266"/>
      <point x="1209" y="676" type="curve" smooth="yes"/>
      <point x="1209" y="802"/>
      <point x="1186" y="933"/>
      <point x="1143" y="1060" type="curve"/>
      <point x="773" y="940" type="line"/>
      <point x="802" y="863"/>
      <point x="818" y="780"/>
      <point x="818" y="695" type="curve" smooth="yes"/>
      <point x="818" y="497"/>
      <point x="758" y="310"/>
      <point x="622" y="310" type="curve" smooth="yes"/>
      <point x="524" y="310"/>
      <point x="484" y="370"/>
      <point x="506" y="474" type="curve" smooth="yes"/>
      <point x="626" y="1040" type="line"/>
      <point x="220" y="1040" type="line"/>
      <point x="114" y="542" type="line" smooth="yes"/>
      <point x="38" y="182"/>
      <point x="212" y="-30"/>
    </contour>
  </outline>
</glyph>
<glyph name="phi" format="2">
  <advance width="1606"/>
  <unicode hex="03C6"/>
  <outline>
    <contour>
      <point x="398" y="-420" type="line"/>
      <point x="786" y="-420" type="line"/>
      <point x="1003" y="600" type="line" smooth="yes"/>
      <point x="1021" y="686"/>
      <point x="1056" y="730"/>
      <point x="1106" y="730" type="curve" smooth="yes"/>
      <point x="1163" y="730"/>
      <point x="1194" y="692"/>
      <point x="1194" y="622" type="curve" smooth="yes"/>
      <point x="1194" y="415"/>
      <point x="1036" y="282"/>
      <point x="769" y="282" type="curve" smooth="yes"/>
      <point x="563" y="282"/>
      <point x="448" y="366"/>
      <point x="448" y="554" type="curve" smooth="yes"/>
      <point x="448" y="704"/>
      <point x="528" y="839"/>
      <point x="640" y="940" type="curve"/>
      <point x="348" y="1060" type="line"/>
      <point x="183" y="966"/>
      <point x="62" y="741"/>
      <point x="62" y="531" type="curve" smooth="yes"/>
      <point x="62" y="171"/>
      <point x="270" y="-25"/>
      <point x="766" y="-25" type="curve" smooth="yes"/>
      <point x="1287" y="-25"/>
      <point x="1574" y="267"/>
      <point x="1574" y="676" type="curve" smooth="yes"/>
      <point x="1574" y="917"/>
      <point x="1418" y="1070"/>
      <point x="1150" y="1070" type="curve" smooth="yes"/>
      <point x="841" y="1070"/>
      <point x="674" y="876"/>
      <point x="601" y="534" type="curve" smooth="yes"/>
    </contour>
  </outline>
</glyph>
<glyph name="chi" format="2">
  <advance width="1264"/>
  <unicode hex="03C7"/>
  <outline>
    <contour>
      <point x="-161" y="-420" type="line"/>
      <point x="311" y="-420" type="line"/>
      <point x="645" y="154" type="line"/>
      <point x="521" y="154" type="line"/>
      <point x="647" y="-420" type="line"/>
      <point x="1087" y="-420" type="line"/>
      <point x="829" y="474" type="line"/>
      <point x="745" y="150" type="line"/>
      <point x="1377" y="1040" type="line"/>
      <point x="911" y="1040" type="line"/>
      <point x="573" y="492" type="line"/>
      <point x="713" y="456" type="line"/>
      <point x="623" y="854" type="line" smooth="yes"/>
      <point x="580" y="1046"/>
      <point x="425" y="1126"/>
      <point x="101" y="1050" type="curve"/>
      <point x="101" y="706" type="line"/>
      <point x="225" y="738"/>
      <point x="272" y="704"/>
      <point x="299" y="598" type="curve" smooth="yes"/>
      <point x="411" y="164" type="line"/>
      <point x="467" y="466" type="line"/>
    </contour>
  </outline>
</glyph>
<glyph name="psi" format="2">
  <advance width="1710"/>
  <unicode hex="03C8"/>
  <outline>
    <contour>
      <point x="453" y="-420" type="line"/>
      <point x="853" y="-420" type="line"/>
      <point x="935" y="-30" type="line"/>
      <point x="1393" y="-30"/>
      <point x="1640" y="266"/>
      <point x="1640" y="676" type="curve" smooth="yes"/>
      <point x="1640" y="802"/>
      <point x="1617" y="933"/>
      <point x="1574" y="1060" type="curve"/>
      <point x="1204" y="940" type="line"/>
      <point x="1233" y="863"/>
      <point x="1249" y="780"/>
      <point x="1249" y="695" type="curve" smooth="yes"/>
      <point x="1249" y="497"/>
      <point x="1173" y="310"/>
      <point x="999" y="310" type="curve"/>
      <point x="1205" y="1280" type="line"/>
      <point x="821" y="1280" type="line"/>
      <point x="615" y="310" type="line"/>
      <point x="511" y="310"/>
      <point x="457" y="358"/>
      <point x="499" y="550" type="curve" smooth="yes"/>
      <point x="603" y="1040" type="line"/>
      <point x="217" y="1040" type="line"/>
      <point x="145" y="702" type="line" smooth="yes"/>
      <point x="31" y="166"/>
      <point x="179" y="-6"/>
      <point x="535" y="-30" type="curve"/>
    </contour>
  </outline>
</glyph>
<glyph name="omega" format="2">
  <advance width="1726"/>
  <unicode hex="03C9"/>
  <anchor x="754" y="0" name="bottom"/>
  <anchor x="972" y="1040" name="top"/>
  <outline>
    <contour>
      <point x="451" y="-30" type="curve" smooth="yes"/>
      <point x="573" y="-30"/>
      <point x="688" y="23"/>
      <point x="791" y="136" type="curve"/>
      <point x="865" y="25"/>
      <point x="969" y="-30"/>
      <point x="1103" y="-30" type="curve" smooth="yes"/>
      <point x="1461" y="-30"/>
      <point x="1654" y="306"/>
      <point x="1654" y="676" type="curve" smooth="yes"/>
      <point x="1654" y="802"/>
      <point x="1631" y="933"/>
      <point x="1588" y="1060" type="curve"/>
      <point x="1218" y="940" type="line"/>
      <point x="1247" y="863"/>
      <point x="1263" y="780"/>
      <point x="1263" y="695" type="curve" smooth="yes"/>
      <point x="1263" y="545"/>
      <point x="1211" y="330"/>
      <point x="1092" y="330" type="curve" smooth="yes"/>
      <point x="1013" y="330"/>
      <point x="1011" y="392"/>
      <point x="1033" y="500" type="curve" smooth="yes"/>
      <point x="1100" y="820" type="line"/>
      <point x="752" y="820" type="line"/>
      <point x="685" y="500" type="line" smooth="yes"/>
      <point x="658" y="370"/>
      <point x="616" y="330"/>
      <point x="559" y="330" type="curve" smooth="yes"/>
      <point x="500" y="330"/>
      <point x="479" y="382"/>
      <point x="479" y="457" type="curve" smooth="yes"/>
      <point x="479" y="614"/>
      <point x="568" y="807"/>
      <point x="684" y="940" type="curve"/>
      <point x="366" y="1060" type="line"/>
      <point x="186" y="915"/>
      <point x="71" y="619"/>
      <point x="71" y="376" type="curve" smooth="yes"/>
      <point x="71" y="122"/>
      <point x="216" y="-30"/>
    </contour>
  </outline>
</glyph>
<glyph name="KaiSymbol" format="2">
  <advance width="1524"/>
  <unicode hex="03CF"/>
  <outline>
    <contour>
      <point x="582" y="-420" type="line"/>
      <point x="1062" y="-420" type="line"/>
      <point x="1424" y="0" type="line"/>
      <point x="988" y="736" type="line"/>
      <point x="1658" y="1400" type="line"/>
      <point x="1126" y="1400" type="line"/>
      <point x="644" y="914" type="line"/>
      <point x="748" y="1400" type="line"/>
      <point x="344" y="1400" type="line"/>
      <point x="48" y="0" type="line"/>
      <point x="452" y="0" type="line"/>
      <point x="520" y="314" type="line"/>
      <point x="672" y="450" type="line"/>
      <point x="934" y="-18" type="line"/>
    </contour>
  </outline>
</glyph>
<glyph name="E-cy" format="2">
  <advance width="1432"/>
  <unicode hex="0404"/>
  <outline>
    <contour>
      <point x="813" y="-30" type="curve" smooth="yes"/>
      <point x="1025" y="-30"/>
      <point x="1191" y="24"/>
      <point x="1317" y="102" type="curve"/>
      <point x="1207" y="434" type="line"/>
      <point x="1095" y="364"/>
      <point x="973" y="334"/>
      <point x="863" y="334" type="curve" smooth="yes"/>
      <point x="627" y="334"/>
      <point x="497" y="452"/>
      <point x="497" y="644" type="curve" smooth="yes"/>
      <point x="497" y="888"/>
      <point x="657" y="1066"/>
      <point x="927" y="1066" type="curve" smooth="yes"/>
      <point x="1073" y="1066"/>
      <point x="1183" y="1018"/>
      <point x="1245" y="922" type="curve"/>
      <point x="1503" y="1238" type="line"/>
      <point x="1347" y="1378"/>
      <point x="1181" y="1430"/>
      <point x="933" y="1430" type="curve" smooth="yes"/>
      <point x="443" y="1430"/>
      <point x="107" y="1070"/>
      <point x="107" y="610" type="curve" smooth="yes"/>
      <point x="107" y="204"/>
      <point x="427" y="-30"/>
    </contour>
    <contour>
      <point x="415" y="562" type="line"/>
      <point x="1083" y="562" type="line"/>
      <point x="1147" y="864" type="line"/>
      <point x="477" y="864" type="line"/>
    </contour>
  </outline>
</glyph>
<glyph name="Lje-cy" format="2">
  <advance width="2153"/>
  <unicode hex="0409"/>
  <outline>
    <contour>
      <point x="41" y="-20" type="line"/>
      <point x="483" y="64"/>
      <point x="643" y="336"/>
      <point x="779" y="1012" type="curve" smooth="yes"/>
      <point x="783" y="1032" type="line"/>
      <point x="1069" y="1032" type="line"/>
      <point x="1547" y="1400" type="line"/>
      <point x="481" y="1400" type="line"/>
      <point x="399" y="1012" type="line" smooth="yes"/>
      <point x="289" y="496"/>
      <point x="215" y="400"/>
      <point x="-11" y="360" type="curve"/>
    </contour>
    <contour>
      <point x="1317" y="294" type="line"/>
      <point x="1373" y="566" type="line"/>
      <point x="1501" y="566" type="line" smooth="yes"/>
      <point x="1615" y="566"/>
      <point x="1663" y="514"/>
      <point x="1665" y="442" type="curve" smooth="yes"/>
      <point x="1667" y="370"/>
      <point x="1615" y="294"/>
      <point x="1481" y="294" type="curve" smooth="yes"/>
    </contour>
    <contour>
      <point x="849" y="0" type="line"/>
      <point x="1483" y="0" type="line" smooth="yes"/>
      <point x="1899" y="0"/>
      <point x="2101" y="240"/>
      <point x="2099" y="494" type="curve" smooth="yes"/>
      <point x="2097" y="712"/>
      <point x="1935" y="908"/>
      <point x="1573" y="908" type="curve" smooth="yes"/>
      <point x="1445" y="908" type="line"/>
      <point x="1547" y="1400" type="line"/>
      <point x="1145" y="1400" type="line"/>
    </contour>
  </outline>
</glyph>
<glyph name="Nje-cy" format="2">
  <advance width="2181"/>
  <unicode hex="040A"/>
  <outline>
    <contour>
      <point x="877" y="0" type="line"/>
      <point x="1511" y="0" type="line" smooth="yes"/>
      <point x="1927" y="0"/>
      <point x="2129" y="240"/>
      <point x="2127" y="494" type="curve" smooth="yes"/>
      <point x="2125" y="712"/>
      <point x="1963" y="908"/>
      <point x="1601" y="908" type="curve" smooth="yes"/>
      <point x="567" y="908" type="line"/>
      <point x="499" y="566" type="line"/>
      <point x="1529" y="566" type="line" smooth="yes"/>
      <point x="1643" y="566"/>
      <point x="1691" y="514"/>
      <point x="1693" y="442" type="curve" smooth="yes"/>
      <point x="1695" y="370"/>
      <point x="1643" y="294"/>
      <point x="1509" y="294" type="curve" smooth="yes"/>
      <point x="1345" y="294" type="line"/>
      <point x="1575" y="1400" type="line"/>
      <point x="1173" y="1400" type="line"/>
    </contour>
    <contour>
      <point x="45" y="0" type="line"/>
      <point x="449" y="0" type="line"/>
      <point x="745" y="1400" type="line"/>
      <point x="341" y="1400" type="line"/>
    </contour>
  </outline>
</glyph>
<glyph name="Tshe-cy" format="2">
  <advance width="1706"/>
  <unicode hex="040B"/>
  <outline>
    <contour>
      <point x="139" y="1040" type="line"/>
      <point x="1461" y="1040" type="line"/>
      <point x="1537" y="1400" type="line"/>
      <point x="215" y="1400" type="line"/>
    </contour>
    <contour>
      <point x="281" y="0" type="line"/>
      <point x="685" y="0" type="line"/>
      <point x="797" y="540" type="line"/>
      <point x="863" y="558"/>
      <point x="923" y="568"/>
      <point x="1001" y="568" type="curve" smooth="yes"/>
      <point x="1153" y="568"/>
      <point x="1223" y="502"/>
      <point x="1183" y="318" type="curve" smooth="yes"/>
      <point x="1117" y="0" type="line"/>
      <point x="1521" y="0" type="line"/>
      <point x="1599" y="372" type="line" smooth="yes"/>
      <point x="1683" y="764"/>
      <point x="1489" y="920"/>
      <point x="1159" y="920" type="curve" smooth="yes"/>
      <point x="1061" y="920"/>
      <point x="969" y="902"/>
      <point x="867" y="870" type="curve"/>
      <point x="981" y="1400" type="line"/>
      <point x="577" y="1400" type="line"/>
    </contour>
  </outline>
</glyph>
<glyph name="De-cy" format="2">
  <advance width="1702"/>
  <unicode hex="0414"/>
  <outline>
    <contour>
      <point x="913" y="0" type="line"/>
      <point x="1317" y="0" type="line"/>
      <point x="1615" y="1400" type="line"/>
      <point x="485" y="1400" type="line"/>
      <point x="403" y="1012" type="line" smooth="yes"/>
      <point x="297" y="520"/>
      <point x="219" y="396"/>
      <point x="-17" y="346" type="curve"/>
      <point x="45" y="2" type="line"/>
      <point x="457" y="92"/>
      <point x="651" y="396"/>
      <point x="783" y="1012" type="curve" smooth="yes"/>
      <point x="787" y="1032" type="line"/>
      <point x="1133" y="1032" type="line"/>
    </contour>
    <contour>
      <point x="-165" y="-350" type="line"/>
      <point x="219" y="-350" type="line"/>
      <point x="293" y="0" type="line"/>
      <point x="1161" y="0" type="line"/>
      <point x="1087" y="-350" type="line"/>
      <point x="1471" y="-350" type="line"/>
      <point x="1623" y="368" type="line"/>
      <point x="315" y="368" type="line"/>
      <point x="161" y="338" type="line"/>
      <point x="-17" y="346" type="line"/>
    </contour>
  </outline>
</glyph>
<glyph name="Zhe-cy" format="2">
  <advance width="2136"/>
  <unicode hex="0416"/>
  <anchor x="1892" y="0" name="descender"/>
  <anchor x="1254" y="1400" name="top"/>
  <outline>
    <contour>
      <point x="1582" y="0" type="line"/>
      <point x="2034" y="0" type="line"/>
      <point x="1656" y="698" type="line"/>
      <point x="2278" y="1400" type="line"/>
      <point x="1800" y="1400" type="line"/>
      <point x="1214" y="720" type="line"/>
    </contour>
    <contour>
      <point x="-120" y="0" type="line"/>
      <point x="348" y="0" type="line"/>
      <point x="994" y="710" type="line"/>
      <point x="690" y="1400" type="line"/>
      <point x="236" y="1400" type="line"/>
      <point x="552" y="714" type="line"/>
    </contour>
    <contour>
      <point x="756" y="0" type="line"/>
      <point x="1160" y="0" type="line"/>
      <point x="1274" y="560" type="line"/>
      <point x="1516" y="560" type="line"/>
      <point x="1594" y="892" type="line"/>
      <point x="1352" y="892" type="line"/>
      <point x="1456" y="1400" type="line"/>
      <point x="1052" y="1400" type="line"/>
      <point x="948" y="892" type="line"/>
      <point x="708" y="892" type="line"/>
      <point x="630" y="560" type="line"/>
      <point x="872" y="560" type="line"/>
    </contour>
  </outline>
</glyph>
<glyph name="Ze-cy" format="2">
  <advance width="1294"/>
  <unicode hex="0417"/>
  <anchor x="551" y="0" name="bottom"/>
  <anchor x="797" y="1400" name="top"/>
  <outline>
    <contour>
      <point x="557" y="-30" type="curve" smooth="yes"/>
      <point x="915" y="-30"/>
      <point x="1197" y="154"/>
      <point x="1197" y="438" type="curve" smooth="yes"/>
      <point x="1197" y="558"/>
      <point x="1129" y="672"/>
      <point x="1001" y="732" type="curve"/>
      <point x="1153" y="792"/>
      <point x="1267" y="922"/>
      <point x="1267" y="1080" type="curve" smooth="yes"/>
      <point x="1267" y="1328"/>
      <point x="1003" y="1430"/>
      <point x="725" y="1430" type="curve" smooth="yes"/>
      <point x="509" y="1430"/>
      <point x="331" y="1376"/>
      <point x="191" y="1278" type="curve"/>
      <point x="311" y="972" type="line"/>
      <point x="381" y="1024"/>
      <point x="499" y="1066"/>
      <point x="633" y="1066" type="curve" smooth="yes"/>
      <point x="747" y="1066"/>
      <point x="839" y="1044"/>
      <point x="839" y="965" type="curve" smooth="yes"/>
      <point x="839" y="888"/>
      <point x="757" y="864"/>
      <point x="637" y="864" type="curve" smooth="yes"/>
      <point x="381" y="864" type="line"/>
      <point x="317" y="562" type="line"/>
      <point x="603" y="562" type="line" smooth="yes"/>
      <point x="717" y="562"/>
      <point x="771" y="512"/>
      <point x="771" y="448" type="curve" smooth="yes"/>
      <point x="770" y="366"/>
      <point x="678" y="316"/>
      <point x="554" y="316" type="curve" smooth="yes"/>
      <point x="430" y="316"/>
      <point x="278" y="364"/>
      <point x="181" y="460" type="curve"/>
      <point x="-43" y="162" type="line"/>
      <point x="129" y="32"/>
      <point x="337" y="-30"/>
    </contour>
  </outline>
</glyph>
<glyph name="Ii-cy" format="2">
  <advance width="1598"/>
  <unicode hex="0418"/>
  <anchor x="690" y="0" name="bottom"/>
  <anchor x="986" y="1400" name="top"/>
  <outline>
    <contour>
      <point x="48" y="0" type="line"/>
      <point x="448" y="0" type="line"/>
      <point x="1092" y="760" type="line"/>
      <point x="930" y="0" type="line"/>
      <point x="1330" y="0" type="line"/>
      <point x="1626" y="1400" type="line"/>
      <point x="1224" y="1400" type="line"/>
      <point x="586" y="654" type="line"/>
      <point x="744" y="1400" type="line"/>
      <point x="344" y="1400" type="line"/>
    </contour>
  </outline>
</glyph>
<glyph name="Ka-cy" format="2">
  <advance width="1520"/>
  <unicode hex="041A"/>
  <guideline x="463" y="700" angle="90"/>
  <anchor x="1283" y="0" name="descender"/>
  <anchor x="915" y="1400" name="top"/>
  <outline>
    <contour>
      <point x="921" y="0" type="line"/>
      <point x="1423" y="0" type="line"/>
      <point x="985" y="696" type="line"/>
      <point x="1655" y="1400" type="line"/>
      <point x="1123" y="1400" type="line"/>
      <point x="493" y="724" type="line"/>
    </contour>
    <contour>
      <point x="45" y="0" type="line"/>
      <point x="449" y="0" type="line"/>
      <point x="563" y="538" type="line"/>
      <point x="831" y="538" type="line"/>
      <point x="909" y="906" type="line"/>
      <point x="641" y="906" type="line"/>
      <point x="745" y="1400" type="line"/>
      <point x="341" y="1400" type="line"/>
    </contour>
  </outline>
</glyph>
<glyph name="El-cy" format="2">
  <advance width="1556"/>
  <unicode hex="041B"/>
  <outline>
    <contour>
      <point x="41" y="-20" type="line"/>
      <point x="483" y="64"/>
      <point x="643" y="336"/>
      <point x="779" y="1012" type="curve" smooth="yes"/>
      <point x="783" y="1032" type="line"/>
      <point x="1109" y="1032" type="line"/>
      <point x="891" y="0" type="line"/>
      <point x="1291" y="0" type="line"/>
      <point x="1587" y="1400" type="line"/>
      <point x="481" y="1400" type="line"/>
      <point x="399" y="1012" type="line" smooth="yes"/>
      <point x="289" y="496"/>
      <point x="215" y="400"/>
      <point x="-11" y="360" type="curve"/>
    </contour>
  </outline>
</glyph>
<glyph name="Pe-cy" format="2">
  <advance width="1592"/>
  <unicode hex="041F"/>
  <anchor x="982" y="1400" name="top"/>
  <outline>
    <contour>
      <point x="48" y="0" type="line"/>
      <point x="452" y="0" type="line"/>
      <point x="670" y="1032" type="line"/>
      <point x="1138" y="1032" type="line"/>
      <point x="920" y="0" type="line"/>
      <point x="1324" y="0" type="line"/>
      <point x="1620" y="1400" type="line"/>
      <point x="344" y="1400" type="line"/>
    </contour>
  </outline>
</glyph>
<glyph name="U-cy" format="2">
  <advance width="1386"/>
  <unicode hex="0423"/>
  <anchor x="915" y="1400" name="top"/>
  <outline>
    <contour>
      <point x="115" y="-30" type="line"/>
      <point x="505" y="40"/>
      <point x="773" y="198"/>
      <point x="1095" y="664" type="curve" smooth="yes"/>
      <point x="1603" y="1400" type="line"/>
      <point x="1119" y="1400" type="line"/>
      <point x="747" y="826" type="line" smooth="yes"/>
      <point x="547" y="518"/>
      <point x="347" y="382"/>
      <point x="55" y="336" type="curve"/>
    </contour>
    <contour>
      <point x="561" y="360" type="line"/>
      <point x="905" y="668" type="line"/>
      <point x="715" y="1400" type="line"/>
      <point x="229" y="1400" type="line"/>
    </contour>
  </outline>
</glyph>
<glyph name="Ef-cy" format="2">
  <advance width="1848"/>
  <unicode hex="0424"/>
  <outline>
    <contour>
      <point x="600" y="-72" type="line"/>
      <point x="1000" y="-72" type="line"/>
      <point x="1036" y="97" type="line"/>
      <point x="1459" y="99"/>
      <point x="1766" y="331"/>
      <point x="1824" y="693" type="curve" smooth="yes"/>
      <point x="1878" y="1029"/>
      <point x="1662" y="1284"/>
      <point x="1293" y="1320" type="curve"/>
      <point x="1328" y="1488" type="line"/>
      <point x="928" y="1488" type="line"/>
      <point x="894" y="1328" type="line"/>
      <point x="471" y="1326"/>
      <point x="165" y="1094"/>
      <point x="106" y="732" type="curve" smooth="yes"/>
      <point x="52" y="396"/>
      <point x="268" y="141"/>
      <point x="637" y="105" type="curve"/>
    </contour>
    <contour>
      <point x="706" y="432" type="line"/>
      <point x="547" y="454"/>
      <point x="482" y="546"/>
      <point x="508" y="712" type="curve" smooth="yes"/>
      <point x="534" y="884"/>
      <point x="653" y="993"/>
      <point x="824" y="999" type="curve"/>
    </contour>
    <contour>
      <point x="1106" y="426" type="curve"/>
      <point x="1224" y="993" type="line"/>
      <point x="1383" y="971"/>
      <point x="1448" y="879"/>
      <point x="1422" y="713" type="curve" smooth="yes"/>
      <point x="1396" y="541"/>
      <point x="1277" y="432"/>
    </contour>
  </outline>
</glyph>
<glyph name="Che-cy" format="2">
  <advance width="1471"/>
  <unicode hex="0427"/>
  <anchor x="722" y="636" name="center"/>
  <anchor x="1206" y="0" name="descender"/>
  <anchor x="802" y="0" name="descender_alt"/>
  <anchor x="882" y="1400" name="top"/>
  <outline>
    <contour>
      <point x="802" y="0" type="line"/>
      <point x="1206" y="0" type="line"/>
      <point x="1502" y="1400" type="line"/>
      <point x="1098" y="1400" type="line"/>
      <point x="980" y="840" type="line"/>
      <point x="916" y="822"/>
      <point x="854" y="812"/>
      <point x="776" y="812" type="curve" smooth="yes"/>
      <point x="624" y="812"/>
      <point x="556" y="878"/>
      <point x="594" y="1062" type="curve" smooth="yes"/>
      <point x="666" y="1400" type="line"/>
      <point x="262" y="1400" type="line"/>
      <point x="178" y="1008" type="line" smooth="yes"/>
      <point x="96" y="616"/>
      <point x="288" y="460"/>
      <point x="618" y="460" type="curve" smooth="yes"/>
      <point x="716" y="460"/>
      <point x="808" y="478"/>
      <point x="910" y="510" type="curve"/>
    </contour>
  </outline>
</glyph>
<glyph name="Sha-cy" format="2">
  <advance width="2292"/>
  <unicode hex="0428"/>
  <anchor x="2024" y="0" name="descender"/>
  <outline>
    <contour>
      <point x="48" y="0" type="line"/>
      <point x="2024" y="0" type="line"/>
      <point x="2320" y="1400" type="line"/>
      <point x="1916" y="1400" type="line"/>
      <point x="1698" y="368" type="line"/>
      <point x="1316" y="368" type="line"/>
      <point x="1534" y="1400" type="line"/>
      <point x="1130" y="1400" type="line"/>
      <point x="912" y="368" type="line"/>
      <point x="530" y="368" type="line"/>
      <point x="748" y="1400" type="line"/>
      <point x="344" y="1400" type="line"/>
    </contour>
  </outline>
</glyph>
<glyph name="Hardsign-cy" format="2">
  <advance width="1578"/>
  <unicode hex="042A"/>
  <guideline x="383" y="700" angle="180"/>
  <anchor x="775" y="1400" name="top"/>
  <outline>
    <contour>
      <point x="497" y="1032" type="line"/>
      <point x="975" y="1400" type="line"/>
      <point x="215" y="1400" type="line"/>
      <point x="137" y="1032" type="line"/>
    </contour>
    <contour>
      <point x="277" y="0" type="line"/>
      <point x="911" y="0" type="line" smooth="yes"/>
      <point x="1327" y="0"/>
      <point x="1533" y="276"/>
      <point x="1533" y="534" type="curve" smooth="yes"/>
      <point x="1533" y="758"/>
      <point x="1375" y="968"/>
      <point x="1013" y="968" type="curve" smooth="yes"/>
      <point x="881" y="968" type="line"/>
      <point x="975" y="1400" type="line"/>
      <point x="573" y="1400" type="line"/>
    </contour>
    <contour>
      <point x="753" y="334" type="line"/>
      <point x="813" y="626" type="line"/>
      <point x="941" y="626" type="line" smooth="yes"/>
      <point x="1051" y="626"/>
      <point x="1103" y="558"/>
      <point x="1103" y="488" type="curve" smooth="yes"/>
      <point x="1103" y="412"/>
      <point x="1045" y="334"/>
      <point x="917" y="334" type="curve" smooth="yes"/>
    </contour>
  </outline>
</glyph>
<glyph name="Yeru-cy" format="2">
  <advance width="2016"/>
  <unicode hex="042B"/>
  <guideline x="592" y="700" angle="0"/>
  <anchor x="897" y="0" name="bottom"/>
  <anchor x="1193" y="1400" name="top"/>
  <outline>
    <contour>
      <point x="45" y="0" type="line"/>
      <point x="669" y="0" type="line" smooth="yes"/>
      <point x="1085" y="0"/>
      <point x="1291" y="276"/>
      <point x="1291" y="534" type="curve" smooth="yes"/>
      <point x="1291" y="758"/>
      <point x="1133" y="968"/>
      <point x="771" y="968" type="curve" smooth="yes"/>
      <point x="649" y="968" type="line"/>
      <point x="743" y="1400" type="line"/>
      <point x="341" y="1400" type="line"/>
    </contour>
    <contour>
      <point x="521" y="334" type="line"/>
      <point x="581" y="626" type="line"/>
      <point x="699" y="626" type="line" smooth="yes"/>
      <point x="809" y="626"/>
      <point x="861" y="558"/>
      <point x="861" y="488" type="curve" smooth="yes"/>
      <point x="861" y="412"/>
      <point x="803" y="334"/>
      <point x="675" y="334" type="curve" smooth="yes"/>
    </contour>
    <contour>
      <point x="1347" y="0" type="line"/>
      <point x="1751" y="0" type="line"/>
      <point x="2047" y="1400" type="line"/>
      <point x="1643" y="1400" type="line"/>
    </contour>
  </outline>
</glyph>
<glyph name="Softsign-cy" format="2">
  <advance width="1346"/>
  <unicode hex="042C"/>
  <anchor x="495" y="1170" name="bar"/>
  <outline>
    <contour>
      <point x="45" y="0" type="line"/>
      <point x="679" y="0" type="line" smooth="yes"/>
      <point x="1095" y="0"/>
      <point x="1301" y="276"/>
      <point x="1301" y="534" type="curve" smooth="yes"/>
      <point x="1301" y="758"/>
      <point x="1143" y="968"/>
      <point x="781" y="968" type="curve" smooth="yes"/>
      <point x="649" y="968" type="line"/>
      <point x="743" y="1400" type="line"/>
      <point x="341" y="1400" type="line"/>
    </contour>
    <contour>
      <point x="521" y="334" type="line"/>
      <point x="581" y="626" type="line"/>
      <point x="709" y="626" type="line" smooth="yes"/>
      <point x="819" y="626"/>
      <point x="871" y="558"/>
      <point x="871" y="488" type="curve" smooth="yes"/>
      <point x="871" y="412"/>
      <point x="813" y="334"/>
      <point x="685" y="334" type="curve" smooth="yes"/>
    </contour>
  </outline>
</glyph>
<glyph name="Ereversed-cy" format="2">
  <advance width="1395"/>
  <unicode hex="042D"/>
  <anchor x="522" y="0" name="bottom"/>
  <anchor x="814" y="1400" name="top"/>
  <outline>
    <contour>
      <point x="548" y="-30" type="curve" smooth="yes"/>
      <point x="1026" y="-30"/>
      <point x="1364" y="336"/>
      <point x="1364" y="782" type="curve" smooth="yes"/>
      <point x="1364" y="1174"/>
      <point x="1080" y="1430"/>
      <point x="682" y="1430" type="curve" smooth="yes"/>
      <point x="504" y="1430"/>
      <point x="340" y="1388"/>
      <point x="194" y="1312" type="curve"/>
      <point x="316" y="1002" type="line"/>
      <point x="400" y="1042"/>
      <point x="506" y="1066"/>
      <point x="628" y="1066" type="curve" smooth="yes"/>
      <point x="840" y="1066"/>
      <point x="974" y="968"/>
      <point x="974" y="738" type="curve" smooth="yes"/>
      <point x="974" y="510"/>
      <point x="818" y="336"/>
      <point x="566" y="336" type="curve" smooth="yes"/>
      <point x="442" y="336"/>
      <point x="314" y="386"/>
      <point x="210" y="476" type="curve"/>
      <point x="-18" y="174" type="line"/>
      <point x="88" y="46"/>
      <point x="308" y="-30"/>
    </contour>
    <contour>
      <point x="374" y="562" type="line"/>
      <point x="1042" y="562" type="line"/>
      <point x="1108" y="864" type="line"/>
      <point x="438" y="864" type="line"/>
    </contour>
  </outline>
</glyph>
<glyph name="Iu-cy" format="2">
  <advance width="2326"/>
  <unicode hex="042E"/>
  <anchor x="1385" y="1400" name="top"/>
  <outline>
    <contour>
      <point x="45" y="0" type="line"/>
      <point x="449" y="0" type="line"/>
      <point x="563" y="538" type="line"/>
      <point x="973" y="538" type="line"/>
      <point x="1051" y="906" type="line"/>
      <point x="641" y="906" type="line"/>
      <point x="745" y="1400" type="line"/>
      <point x="341" y="1400" type="line"/>
    </contour>
    <contour>
      <point x="1467" y="-30" type="curve" smooth="yes"/>
      <point x="1923" y="-30"/>
      <point x="2297" y="332"/>
      <point x="2297" y="782" type="curve" smooth="yes"/>
      <point x="2297" y="1148"/>
      <point x="2021" y="1430"/>
      <point x="1601" y="1430" type="curve" smooth="yes"/>
      <point x="1145" y="1430"/>
      <point x="773" y="1070"/>
      <point x="773" y="614" type="curve" smooth="yes"/>
      <point x="773" y="244"/>
      <point x="1049" y="-30"/>
    </contour>
    <contour>
      <point x="1501" y="348" type="curve" smooth="yes"/>
      <point x="1317" y="348"/>
      <point x="1199" y="462"/>
      <point x="1199" y="644" type="curve" smooth="yes"/>
      <point x="1199" y="872"/>
      <point x="1349" y="1052"/>
      <point x="1569" y="1052" type="curve" smooth="yes"/>
      <point x="1753" y="1052"/>
      <point x="1871" y="938"/>
      <point x="1871" y="756" type="curve" smooth="yes"/>
      <point x="1871" y="528"/>
      <point x="1721" y="348"/>
    </contour>
  </outline>
</glyph>
<glyph name="be-cy" format="2">
  <advance width="1277"/>
  <unicode hex="0431"/>
  <outline>
    <contour>
      <point x="629" y="-30" type="curve" smooth="yes"/>
      <point x="966" y="-30"/>
      <point x="1206" y="210"/>
      <point x="1206" y="510" type="curve" smooth="yes"/>
      <point x="1206" y="766"/>
      <point x="1038" y="942"/>
      <point x="774" y="942" type="curve" smooth="yes"/>
      <point x="684" y="942"/>
      <point x="592" y="922"/>
      <point x="500" y="872" type="curve"/>
      <point x="552" y="1014"/>
      <point x="656" y="1056"/>
      <point x="802" y="1078" type="curve" smooth="yes"/>
      <point x="1252" y="1146" type="line"/>
      <point x="1270" y="1470" type="line"/>
      <point x="818" y="1398" type="line" smooth="yes"/>
      <point x="528" y="1352"/>
      <point x="234" y="1248"/>
      <point x="120" y="790" type="curve" smooth="yes"/>
      <point x="6" y="342"/>
      <point x="222" y="-30"/>
    </contour>
    <contour>
      <point x="638" y="310" type="curve" smooth="yes"/>
      <point x="550" y="310"/>
      <point x="486" y="374"/>
      <point x="486" y="466" type="curve" smooth="yes"/>
      <point x="486" y="572"/>
      <point x="566" y="650"/>
      <point x="662" y="650" type="curve" smooth="yes"/>
      <point x="750" y="650"/>
      <point x="816" y="586"/>
      <point x="816" y="494" type="curve" smooth="yes"/>
      <point x="816" y="390"/>
      <point x="736" y="310"/>
    </contour>
  </outline>
</glyph>
<glyph name="ve-cy" format="2">
  <advance width="1210"/>
  <unicode hex="0432"/>
  <outline>
    <contour>
      <point x="19" y="0" type="line"/>
      <point x="587" y="0" type="line" smooth="yes"/>
      <point x="867" y="0"/>
      <point x="1105" y="112"/>
      <point x="1105" y="342" type="curve" smooth="yes"/>
      <point x="1105" y="490"/>
      <point x="965" y="586"/>
      <point x="729" y="596" type="curve"/>
      <point x="845" y="506" type="line"/>
      <point x="1011" y="550"/>
      <point x="1155" y="632"/>
      <point x="1155" y="802" type="curve" smooth="yes"/>
      <point x="1155" y="964"/>
      <point x="1001" y="1040"/>
      <point x="745" y="1040" type="curve" smooth="yes"/>
      <point x="237" y="1040" type="line"/>
    </contour>
    <contour>
      <point x="453" y="266" type="line"/>
      <point x="565" y="774" type="line"/>
      <point x="697" y="774" type="line" smooth="yes"/>
      <point x="751" y="774"/>
      <point x="785" y="754"/>
      <point x="785" y="718" type="curve" smooth="yes"/>
      <point x="785" y="670"/>
      <point x="745" y="644"/>
      <point x="683" y="644" type="curve" smooth="yes"/>
      <point x="501" y="644" type="line"/>
      <point x="451" y="400" type="line"/>
      <point x="627" y="400" type="line" smooth="yes"/>
      <point x="685" y="400"/>
      <point x="715" y="376"/>
      <point x="715" y="340" type="curve" smooth="yes"/>
      <point x="715" y="296"/>
      <point x="675" y="266"/>
      <point x="611" y="266" type="curve" smooth="yes"/>
    </contour>
  </outline>
</glyph>
<glyph name="ge-cy" format="2">
  <advance width="898"/>
  <unicode hex="0433"/>
  <anchor x="337" y="462" name="bar"/>
  <anchor x="419" y="0" name="descender"/>
  <anchor x="611" y="1040" name="top"/>
  <outline>
    <contour>
      <point x="19" y="0" type="line"/>
      <point x="419" y="0" type="line"/>
      <point x="573" y="728" type="line"/>
      <point x="905" y="728" type="line"/>
      <point x="971" y="1040" type="line"/>
      <point x="237" y="1040" type="line"/>
    </contour>
  </outline>
</glyph>
<glyph name="de-cy" format="2">
  <advance width="1466"/>
  <unicode hex="0434"/>
  <outline>
    <contour>
      <point x="728" y="0" type="line"/>
      <point x="1128" y="0" type="line"/>
      <point x="1348" y="1040" type="line"/>
      <point x="368" y="1040" type="line"/>
      <point x="310" y="778" type="line" smooth="yes"/>
      <point x="258" y="542"/>
      <point x="180" y="336"/>
      <point x="2" y="302" type="curve"/>
      <point x="10" y="20" type="line"/>
      <point x="418" y="92"/>
      <point x="594" y="418"/>
      <point x="654" y="698" type="curve" smooth="yes"/>
      <point x="660" y="728" type="line"/>
      <point x="882" y="728" type="line"/>
    </contour>
    <contour>
      <point x="-126" y="-300" type="line"/>
      <point x="238" y="-300" type="line"/>
      <point x="302" y="0" type="line"/>
      <point x="970" y="0" type="line"/>
      <point x="906" y="-300" type="line"/>
      <point x="1270" y="-300" type="line"/>
      <point x="1400" y="312" type="line"/>
      <point x="262" y="312" type="line"/>
      <point x="192" y="290" type="line"/>
      <point x="2" y="302" type="line"/>
    </contour>
  </outline>
</glyph>
<glyph name="zhe-cy" format="2">
  <advance width="1798"/>
  <unicode hex="0436"/>
  <guideline x="498" y="520" angle="0"/>
  <anchor x="1557" y="0" name="descender"/>
  <anchor x="1003" y="1040" name="top"/>
  <outline>
    <contour>
      <point x="583" y="0" type="line"/>
      <point x="983" y="0" type="line"/>
      <point x="1057" y="370" type="line"/>
      <point x="1351" y="370" type="line"/>
      <point x="1423" y="682" type="line"/>
      <point x="1131" y="682" type="line"/>
      <point x="1205" y="1040" type="line"/>
      <point x="805" y="1040" type="line"/>
      <point x="731" y="682" type="line"/>
      <point x="437" y="682" type="line"/>
      <point x="365" y="370" type="line"/>
      <point x="657" y="370" type="line"/>
    </contour>
    <contour>
      <point x="-97" y="0" type="line"/>
      <point x="363" y="0" type="line"/>
      <point x="745" y="540" type="line"/>
      <point x="541" y="1040" type="line"/>
      <point x="121" y="1040" type="line"/>
      <point x="325" y="564" type="line"/>
    </contour>
    <contour>
      <point x="1225" y="0" type="line"/>
      <point x="1677" y="0" type="line"/>
      <point x="1475" y="540" type="line"/>
      <point x="1891" y="1040" type="line"/>
      <point x="1457" y="1040" type="line"/>
      <point x="1051" y="540" type="line"/>
    </contour>
  </outline>
</glyph>
<glyph name="ze-cy" format="2">
  <advance width="1100"/>
  <unicode hex="0437"/>
  <anchor x="422" y="0" name="bottom"/>
  <anchor x="620" y="1040" name="top"/>
  <outline>
    <contour>
      <point x="488" y="-30" type="curve" smooth="yes"/>
      <point x="748" y="-30"/>
      <point x="982" y="92"/>
      <point x="982" y="312" type="curve" smooth="yes"/>
      <point x="982" y="420"/>
      <point x="924" y="492"/>
      <point x="816" y="542" type="curve"/>
      <point x="934" y="572"/>
      <point x="1032" y="678"/>
      <point x="1032" y="790" type="curve" smooth="yes"/>
      <point x="1032" y="994"/>
      <point x="804" y="1076"/>
      <point x="588" y="1076" type="curve" smooth="yes"/>
      <point x="436" y="1076"/>
      <point x="270" y="1046"/>
      <point x="130" y="972" type="curve"/>
      <point x="208" y="710" type="line"/>
      <point x="290" y="760"/>
      <point x="396" y="784"/>
      <point x="506" y="784" type="curve" smooth="yes"/>
      <point x="582" y="784"/>
      <point x="674" y="766"/>
      <point x="666" y="708" type="curve" smooth="yes"/>
      <point x="658" y="666"/>
      <point x="618" y="662"/>
      <point x="514" y="662" type="curve" smooth="yes"/>
      <point x="336" y="662" type="line"/>
      <point x="278" y="394" type="line"/>
      <point x="468" y="394" type="line" smooth="yes"/>
      <point x="570" y="394"/>
      <point x="620" y="370"/>
      <point x="620" y="330" type="curve" smooth="yes"/>
      <point x="620" y="275"/>
      <point x="565" y="252"/>
      <point x="469" y="252" type="curve" smooth="yes"/>
      <point x="361" y="252"/>
      <point x="223" y="290"/>
      <point x="151" y="372" type="curve"/>
      <point x="-30" y="140" type="line"/>
      <point x="88" y="24"/>
      <point x="304" y="-30"/>
    </contour>
  </outline>
</glyph>
<glyph name="ii-cy" format="2">
  <advance width="1370"/>
  <unicode hex="0438"/>
  <anchor x="575" y="0" name="bottom"/>
  <anchor x="795" y="1040" name="top"/>
  <outline>
    <contour>
      <point x="17" y="0" type="line"/>
      <point x="377" y="0" type="line"/>
      <point x="847" y="460" type="line"/>
      <point x="753" y="0" type="line"/>
      <point x="1133" y="0" type="line"/>
      <point x="1353" y="1040" type="line"/>
      <point x="991" y="1040" type="line"/>
      <point x="521" y="590" type="line"/>
      <point x="617" y="1040" type="line"/>
      <point x="237" y="1040" type="line"/>
    </contour>
  </outline>
</glyph>
<glyph name="ka-cy" format="2">
  <advance width="1268"/>
  <unicode hex="043A"/>
  <guideline x="384" y="520" angle="90"/>
  <anchor x="1027" y="0" name="descender"/>
  <anchor x="755" y="1040" name="top"/>
  <outline>
    <contour>
      <point x="691" y="0" type="line"/>
      <point x="1147" y="0" type="line"/>
      <point x="905" y="538" type="line"/>
      <point x="1349" y="1040" type="line"/>
      <point x="913" y="1040" type="line"/>
      <point x="479" y="536" type="line"/>
    </contour>
    <contour>
      <point x="17" y="0" type="line"/>
      <point x="417" y="0" type="line"/>
      <point x="495" y="370" type="line"/>
      <point x="815" y="370" type="line"/>
      <point x="881" y="682" type="line"/>
      <point x="561" y="682" type="line"/>
      <point x="637" y="1040" type="line"/>
      <point x="237" y="1040" type="line"/>
    </contour>
  </outline>
</glyph>
<glyph name="el-cy" format="2">
  <advance width="1338"/>
  <unicode hex="043B"/>
  <outline>
    <contour>
      <point x="34" y="-30" type="line"/>
      <point x="424" y="32"/>
      <point x="576" y="356"/>
      <point x="644" y="698" type="curve" smooth="yes"/>
      <point x="650" y="728" type="line"/>
      <point x="852" y="728" type="line"/>
      <point x="698" y="0" type="line"/>
      <point x="1098" y="0" type="line"/>
      <point x="1318" y="1040" type="line"/>
      <point x="356" y="1040" type="line"/>
      <point x="284" y="698" type="line" smooth="yes"/>
      <point x="244" y="504"/>
      <point x="195" y="379"/>
      <point x="-14" y="321" type="curve"/>
    </contour>
  </outline>
</glyph>
<glyph name="em-cy" format="2">
  <advance width="1532"/>
  <unicode hex="043C"/>
  <outline>
    <contour>
      <point x="17" y="0" type="line"/>
      <point x="343" y="0" type="line"/>
      <point x="475" y="622" type="line"/>
      <point x="389" y="612" type="line"/>
      <point x="577" y="156" type="line"/>
      <point x="805" y="156" type="line"/>
      <point x="1149" y="550" type="line"/>
      <point x="1089" y="594" type="line"/>
      <point x="949" y="0" type="line"/>
      <point x="1295" y="0" type="line"/>
      <point x="1515" y="1040" type="line"/>
      <point x="1169" y="1040" type="line"/>
      <point x="669" y="436" type="line"/>
      <point x="833" y="404" type="line"/>
      <point x="585" y="1040" type="line"/>
      <point x="573" y="1040" type="line"/>
      <point x="237" y="1040" type="line"/>
    </contour>
  </outline>
</glyph>
<glyph name="en-cy" format="2">
  <advance width="1374"/>
  <unicode hex="043D"/>
  <anchor x="1137" y="0" name="descender"/>
  <anchor x="797" y="1040" name="top"/>
  <outline>
    <contour>
      <point x="17" y="0" type="line"/>
      <point x="417" y="0" type="line"/>
      <point x="495" y="370" type="line"/>
      <point x="815" y="370" type="line"/>
      <point x="737" y="0" type="line"/>
      <point x="1137" y="0" type="line"/>
      <point x="1357" y="1040" type="line"/>
      <point x="957" y="1040" type="line"/>
      <point x="881" y="682" type="line"/>
      <point x="561" y="682" type="line"/>
      <point x="637" y="1040" type="line"/>
      <point x="237" y="1040" type="line"/>
    </contour>
  </outline>
</glyph>
<glyph name="te-cy" format="2">
  <advance width="1030"/>
  <unicode hex="0442"/>
  <anchor x="503" y="452" name="bar"/>
  <anchor x="405" y="0" name="bottom"/>
  <anchor x="625" y="1040" name="top"/>
  <outline>
    <contour>
      <point x="205" y="0" type="line"/>
      <point x="605" y="0" type="line"/>
      <point x="759" y="728" type="line"/>
      <point x="1031" y="728" type="line"/>
      <point x="1097" y="1040" type="line"/>
      <point x="153" y="1040" type="line"/>
      <point x="87" y="728" type="line"/>
      <point x="359" y="728" type="line"/>
    </contour>
  </outline>
</glyph>
<glyph name="ef-cy" format="2">
  <advance width="1670"/>
  <unicode hex="0444"/>
  <outline>
    <contour>
      <point x="434" y="-420" type="line"/>
      <point x="832" y="-420" type="line"/>
      <point x="1226" y="1440" type="line"/>
      <point x="826" y="1440" type="line"/>
    </contour>
    <contour>
      <point x="762" y="-26" type="curve" smooth="yes"/>
      <point x="1312" y="-26"/>
      <point x="1620" y="208"/>
      <point x="1620" y="588" type="curve" smooth="yes"/>
      <point x="1620" y="892"/>
      <point x="1386" y="1066"/>
      <point x="906" y="1066" type="curve" smooth="yes"/>
      <point x="356" y="1066"/>
      <point x="50" y="832"/>
      <point x="50" y="454" type="curve" smooth="yes"/>
      <point x="50" y="152"/>
      <point x="288" y="-26"/>
    </contour>
    <contour>
      <point x="814" y="310" type="curve" smooth="yes"/>
      <point x="526" y="310"/>
      <point x="436" y="372"/>
      <point x="436" y="496" type="curve" smooth="yes"/>
      <point x="436" y="660"/>
      <point x="546" y="730"/>
      <point x="856" y="730" type="curve" smooth="yes"/>
      <point x="1144" y="730"/>
      <point x="1232" y="668"/>
      <point x="1232" y="544" type="curve" smooth="yes"/>
      <point x="1232" y="380"/>
      <point x="1124" y="310"/>
    </contour>
  </outline>
</glyph>
<glyph name="che-cy" format="2">
  <advance width="1230"/>
  <unicode hex="0447"/>
  <anchor x="561" y="486" name="center"/>
  <anchor x="993" y="0" name="descender"/>
  <anchor x="593" y="0" name="descender_alt"/>
  <anchor x="679" y="1040" name="top"/>
  <outline>
    <contour>
      <point x="593" y="0" type="line"/>
      <point x="993" y="0" type="line"/>
      <point x="1213" y="1040" type="line"/>
      <point x="813" y="1040" type="line"/>
      <point x="727" y="644" type="line"/>
      <point x="689" y="636"/>
      <point x="651" y="626"/>
      <point x="591" y="626" type="curve" smooth="yes"/>
      <point x="495" y="626"/>
      <point x="471" y="680"/>
      <point x="493" y="782" type="curve" smooth="yes"/>
      <point x="547" y="1040" type="line"/>
      <point x="147" y="1040" type="line"/>
      <point x="81" y="730" type="line" smooth="yes"/>
      <point x="15" y="422"/>
      <point x="181" y="302"/>
      <point x="433" y="302" type="curve" smooth="yes"/>
      <point x="503" y="302"/>
      <point x="575" y="314"/>
      <point x="665" y="336" type="curve"/>
    </contour>
  </outline>
</glyph>
<glyph name="sha-cy" format="2">
  <advance width="1906"/>
  <unicode hex="0448"/>
  <anchor x="1669" y="0" name="descender"/>
  <outline>
    <contour>
      <point x="17" y="0" type="line"/>
      <point x="1669" y="0" type="line"/>
      <point x="1889" y="1040" type="line"/>
      <point x="1509" y="1040" type="line"/>
      <point x="1355" y="312" type="line"/>
      <point x="1099" y="312" type="line"/>
      <point x="1253" y="1040" type="line"/>
      <point x="873" y="1040" type="line"/>
      <point x="719" y="312" type="line"/>
      <point x="463" y="312" type="line"/>
      <point x="617" y="1040" type="line"/>
      <point x="237" y="1040" type="line"/>
    </contour>
  </outline>
</glyph>
<glyph name="yeru-cy" format="2">
  <advance width="1788"/>
  <unicode hex="044B"/>
  <guideline x="503" y="520" angle="180"/>
  <anchor x="814" y="0" name="bottom"/>
  <anchor x="1004" y="1040" name="top"/>
  <outline>
    <contour>
      <point x="20" y="0" type="line"/>
      <point x="608" y="0" type="line" smooth="yes"/>
      <point x="908" y="0"/>
      <point x="1116" y="166"/>
      <point x="1116" y="404" type="curve" smooth="yes"/>
      <point x="1116" y="632"/>
      <point x="956" y="758"/>
      <point x="666" y="758" type="curve" smooth="yes"/>
      <point x="544" y="758" type="line"/>
      <point x="488" y="490" type="line"/>
      <point x="594" y="490" type="line" smooth="yes"/>
      <point x="664" y="490"/>
      <point x="702" y="450"/>
      <point x="702" y="388" type="curve" smooth="yes"/>
      <point x="702" y="316"/>
      <point x="650" y="272"/>
      <point x="582" y="272" type="curve" smooth="yes"/>
      <point x="476" y="272" type="line"/>
      <point x="640" y="1040" type="line"/>
      <point x="240" y="1040" type="line"/>
    </contour>
    <contour>
      <point x="1148" y="0" type="line"/>
      <point x="1548" y="0" type="line"/>
      <point x="1768" y="1040" type="line"/>
      <point x="1368" y="1040" type="line"/>
    </contour>
  </outline>
</glyph>
<glyph name="softsign-cy" format="2">
  <advance width="1213"/>
  <unicode hex="044C"/>
  <outline>
    <contour>
      <point x="17" y="0" type="line"/>
      <point x="615" y="0" type="line" smooth="yes"/>
      <point x="915" y="0"/>
      <point x="1123" y="166"/>
      <point x="1123" y="404" type="curve" smooth="yes"/>
      <point x="1123" y="632"/>
      <point x="963" y="758"/>
      <point x="673" y="758" type="curve" smooth="yes"/>
      <point x="541" y="758" type="line"/>
      <point x="485" y="490" type="line"/>
      <point x="601" y="490" type="line" smooth="yes"/>
      <point x="671" y="490"/>
      <point x="709" y="454"/>
      <point x="709" y="392" type="curve" smooth="yes"/>
      <point x="709" y="320"/>
      <point x="657" y="272"/>
      <point x="589" y="272" type="curve" smooth="yes"/>
      <point x="473" y="272" type="line"/>
      <point x="637" y="1040" type="line"/>
      <point x="237" y="1040" type="line"/>
    </contour>
  </outline>
</glyph>
<glyph name="ereversed-cy" format="2">
  <advance width="1119"/>
  <unicode hex="044D"/>
  <anchor x="383" y="0" name="bottom"/>
  <anchor x="603" y="1040" name="top"/>
  <outline>
    <contour>
      <point x="437" y="-30" type="curve" smooth="yes"/>
      <point x="819" y="-30"/>
      <point x="1065" y="224"/>
      <point x="1065" y="556" type="curve" smooth="yes"/>
      <point x="1065" y="884"/>
      <point x="849" y="1070"/>
      <point x="515" y="1070" type="curve" smooth="yes"/>
      <point x="367" y="1070"/>
      <point x="227" y="1030"/>
      <point x="119" y="966" type="curve"/>
      <point x="199" y="702" type="line"/>
      <point x="267" y="748"/>
      <point x="357" y="778"/>
      <point x="455" y="778" type="curve" smooth="yes"/>
      <point x="619" y="778"/>
      <point x="709" y="714"/>
      <point x="709" y="546" type="curve" smooth="yes"/>
      <point x="709" y="390"/>
      <point x="645" y="262"/>
      <point x="443" y="262" type="curve" smooth="yes"/>
      <point x="331" y="262"/>
      <point x="219" y="304"/>
      <point x="153" y="384" type="curve"/>
      <point x="-39" y="142" type="line"/>
      <point x="71" y="32"/>
      <point x="271" y="-30"/>
    </contour>
    <contour>
      <point x="271" y="396" type="line"/>
      <point x="799" y="396" type="line"/>
      <point x="855" y="664" type="line"/>
      <point x="327" y="664" type="line"/>
    </contour>
  </outline>
</glyph>
<glyph name="iu-cy" format="2">
  <advance width="1902"/>
  <unicode hex="044E"/>
  <anchor x="1095" y="1040" name="top"/>
  <outline>
    <contour>
      <point x="17" y="0" type="line"/>
      <point x="417" y="0" type="line"/>
      <point x="495" y="370" type="line"/>
      <point x="815" y="370" type="line"/>
      <point x="881" y="682" type="line"/>
      <point x="561" y="682" type="line"/>
      <point x="637" y="1040" type="line"/>
      <point x="237" y="1040" type="line"/>
    </contour>
    <contour>
      <point x="1207" y="-30" type="curve" smooth="yes"/>
      <point x="1553" y="-30"/>
      <point x="1855" y="244"/>
      <point x="1855" y="578" type="curve" smooth="yes"/>
      <point x="1855" y="848"/>
      <point x="1645" y="1070"/>
      <point x="1311" y="1070" type="curve" smooth="yes"/>
      <point x="965" y="1070"/>
      <point x="663" y="796"/>
      <point x="663" y="464" type="curve" smooth="yes"/>
      <point x="663" y="192"/>
      <point x="871" y="-30"/>
    </contour>
    <contour>
      <point x="1237" y="310" type="curve" smooth="yes"/>
      <point x="1131" y="310"/>
      <point x="1055" y="380"/>
      <point x="1055" y="490" type="curve" smooth="yes"/>
      <point x="1055" y="616"/>
      <point x="1145" y="730"/>
      <point x="1281" y="730" type="curve" smooth="yes"/>
      <point x="1389" y="730"/>
      <point x="1463" y="662"/>
      <point x="1463" y="552" type="curve" smooth="yes"/>
      <point x="1463" y="426"/>
      <point x="1375" y="310"/>
    </contour>
  </outline>
</glyph>
<glyph name="e-cy" format="2">
  <advance width="1145"/>
  <unicode hex="0454"/>
  <outline>
    <contour>
      <point x="615" y="-30" type="curve" smooth="yes"/>
      <point x="755" y="-30"/>
      <point x="909" y="10"/>
      <point x="1027" y="80" type="curve"/>
      <point x="937" y="338" type="line"/>
      <point x="849" y="284"/>
      <point x="761" y="262"/>
      <point x="673" y="262" type="curve" smooth="yes"/>
      <point x="483" y="262"/>
      <point x="409" y="340"/>
      <point x="409" y="488" type="curve" smooth="yes"/>
      <point x="409" y="650"/>
      <point x="481" y="778"/>
      <point x="683" y="778" type="curve" smooth="yes"/>
      <point x="779" y="778"/>
      <point x="881" y="744"/>
      <point x="953" y="658" type="curve"/>
      <point x="1155" y="908" type="line"/>
      <point x="1037" y="1014"/>
      <point x="873" y="1070"/>
      <point x="705" y="1070" type="curve" smooth="yes"/>
      <point x="337" y="1070"/>
      <point x="53" y="820"/>
      <point x="53" y="488" type="curve" smooth="yes"/>
      <point x="53" y="180"/>
      <point x="277" y="-30"/>
    </contour>
    <contour>
      <point x="265" y="396" type="line"/>
      <point x="805" y="396" type="line"/>
      <point x="861" y="664" type="line"/>
      <point x="321" y="664" type="line"/>
    </contour>
  </outline>
</glyph>
<glyph name="lje-cy" format="2">
  <advance width="1873"/>
  <unicode hex="0459"/>
  <outline>
    <contour>
      <point x="33" y="-30" type="line"/>
      <point x="423" y="32"/>
      <point x="575" y="356"/>
      <point x="643" y="698" type="curve" smooth="yes"/>
      <point x="649" y="728" type="line"/>
      <point x="831" y="728" type="line"/>
      <point x="1297" y="1040" type="line"/>
      <point x="355" y="1040" type="line"/>
      <point x="283" y="698" type="line" smooth="yes"/>
      <point x="243" y="502"/>
      <point x="195" y="390"/>
      <point x="-15" y="332" type="curve"/>
    </contour>
    <contour>
      <point x="677" y="0" type="line"/>
      <point x="1275" y="0" type="line" smooth="yes"/>
      <point x="1575" y="0"/>
      <point x="1783" y="166"/>
      <point x="1783" y="404" type="curve" smooth="yes"/>
      <point x="1783" y="632"/>
      <point x="1623" y="758"/>
      <point x="1333" y="758" type="curve" smooth="yes"/>
      <point x="1201" y="758" type="line"/>
      <point x="1145" y="490" type="line"/>
      <point x="1261" y="490" type="line" smooth="yes"/>
      <point x="1331" y="490"/>
      <point x="1369" y="450"/>
      <point x="1369" y="388" type="curve" smooth="yes"/>
      <point x="1369" y="316"/>
      <point x="1317" y="272"/>
      <point x="1249" y="272" type="curve" smooth="yes"/>
      <point x="1133" y="272" type="line"/>
      <point x="1297" y="1040" type="line"/>
      <point x="897" y="1040" type="line"/>
    </contour>
  </outline>
</glyph>
<glyph name="nje-cy" format="2">
  <advance width="1900"/>
  <unicode hex="045A"/>
  <outline>
    <contour>
      <point x="17" y="0" type="line"/>
      <point x="417" y="0" type="line"/>
      <point x="637" y="1040" type="line"/>
      <point x="237" y="1040" type="line"/>
    </contour>
    <contour>
      <point x="717" y="0" type="line"/>
      <point x="1315" y="0" type="line" smooth="yes"/>
      <point x="1605" y="0"/>
      <point x="1803" y="152"/>
      <point x="1803" y="366" type="curve" smooth="yes"/>
      <point x="1803" y="582"/>
      <point x="1643" y="704"/>
      <point x="1355" y="704" type="curve" smooth="yes"/>
      <point x="499" y="704" type="line"/>
      <point x="449" y="420" type="line"/>
      <point x="939" y="420" type="line"/>
      <point x="1105" y="440" type="line"/>
      <point x="1289" y="440" type="line" smooth="yes"/>
      <point x="1353" y="440"/>
      <point x="1389" y="408"/>
      <point x="1389" y="359" type="curve" smooth="yes"/>
      <point x="1389" y="304"/>
      <point x="1343" y="268"/>
      <point x="1283" y="268" type="curve" smooth="yes"/>
      <point x="1171" y="268" type="line"/>
      <point x="1337" y="1040" type="line"/>
      <point x="937" y="1040" type="line"/>
    </contour>
  </outline>
</glyph>
<glyph name="Yat-cy" format="2">
  <advance width="1546"/>
  <unicode hex="0462"/>
  <outline>
    <contour>
      <point x="242" y="0" type="line"/>
      <point x="876" y="0" type="line" smooth="yes"/>
      <point x="1292" y="0"/>
      <point x="1494" y="240"/>
      <point x="1492" y="494" type="curve" smooth="yes"/>
      <point x="1488" y="701"/>
      <point x="1324" y="888"/>
      <point x="962" y="888" type="curve" smooth="yes"/>
      <point x="802" y="888" type="line"/>
      <point x="734" y="566" type="line"/>
      <point x="894" y="566" type="line" smooth="yes"/>
      <point x="1008" y="566"/>
      <point x="1056" y="514"/>
      <point x="1058" y="442" type="curve" smooth="yes"/>
      <point x="1060" y="370"/>
      <point x="1008" y="294"/>
      <point x="874" y="294" type="curve" smooth="yes"/>
      <point x="710" y="294" type="line"/>
      <point x="948" y="1440" type="line"/>
      <point x="548" y="1440" type="line"/>
    </contour>
    <contour>
      <point x="154" y="996" type="line"/>
      <point x="1160" y="996" type="line"/>
      <point x="1224" y="1304" type="line"/>
      <point x="218" y="1304" type="line"/>
    </contour>
  </outline>
</glyph>
<glyph name="yat-cy" format="2">
  <advance width="1384"/>
  <unicode hex="0463"/>
  <outline>
    <contour>
      <point x="198" y="0" type="line"/>
      <point x="796" y="0" type="line" smooth="yes"/>
      <point x="1086" y="0"/>
      <point x="1284" y="152"/>
      <point x="1284" y="366" type="curve" smooth="yes"/>
      <point x="1284" y="563"/>
      <point x="1128" y="674"/>
      <point x="846" y="674" type="curve" smooth="yes"/>
      <point x="468" y="674" type="line"/>
      <point x="586" y="440" type="line"/>
      <point x="770" y="440" type="line" smooth="yes"/>
      <point x="834" y="440"/>
      <point x="870" y="405"/>
      <point x="870" y="356" type="curve" smooth="yes"/>
      <point x="870" y="301"/>
      <point x="824" y="268"/>
      <point x="764" y="268" type="curve" smooth="yes"/>
      <point x="652" y="268" type="line"/>
      <point x="902" y="1440" type="line"/>
      <point x="502" y="1440" type="line"/>
    </contour>
    <contour>
      <point x="94" y="748" type="line"/>
      <point x="1018" y="748" type="line"/>
      <point x="1080" y="1040" type="line"/>
      <point x="156" y="1040" type="line"/>
    </contour>
  </outline>
</glyph>
<glyph name="Yusbig-cy" format="2">
  <advance width="2130"/>
  <unicode hex="046A"/>
  <anchor x="1889" y="0" name="descender"/>
  <anchor x="1251" y="1400" name="top"/>
  <outline>
    <contour>
      <point x="-123" y="0" type="line"/>
      <point x="345" y="0" type="line"/>
      <point x="963" y="680" type="line"/>
      <point x="743" y="1092" type="line"/>
      <point x="1611" y="1092" type="line"/>
      <point x="1225" y="692" type="line"/>
      <point x="1579" y="0" type="line"/>
      <point x="2031" y="0" type="line"/>
      <point x="1667" y="670" type="line"/>
      <point x="2057" y="1062" type="line"/>
      <point x="2127" y="1400" type="line"/>
      <point x="381" y="1400" type="line"/>
      <point x="307" y="1062" type="line"/>
      <point x="523" y="686" type="line"/>
    </contour>
    <contour>
      <point x="753" y="0" type="line"/>
      <point x="1157" y="0" type="line"/>
      <point x="1271" y="560" type="line"/>
      <point x="1513" y="560" type="line"/>
      <point x="1591" y="832" type="line"/>
      <point x="705" y="832" type="line"/>
      <point x="627" y="560" type="line"/>
      <point x="869" y="560" type="line"/>
    </contour>
  </outline>
</glyph>
<glyph name="yusbig-cy" format="2">
  <advance width="1794"/>
  <unicode hex="046B"/>
  <anchor x="1553" y="0" name="descender"/>
  <outline>
    <contour>
      <point x="-101" y="0" type="line"/>
      <point x="359" y="0" type="line"/>
      <point x="715" y="504" type="line"/>
      <point x="607" y="770" type="line"/>
      <point x="1273" y="770" type="line"/>
      <point x="1057" y="504" type="line"/>
      <point x="1221" y="0" type="line"/>
      <point x="1673" y="0" type="line"/>
      <point x="1483" y="506" type="line"/>
      <point x="1713" y="780" type="line"/>
      <point x="1767" y="1040" type="line"/>
      <point x="245" y="1040" type="line"/>
      <point x="189" y="780" type="line"/>
      <point x="295" y="530" type="line"/>
    </contour>
    <contour>
      <point x="579" y="0" type="line"/>
      <point x="979" y="0" type="line"/>
      <point x="1053" y="370" type="line"/>
      <point x="1347" y="370" type="line"/>
      <point x="1399" y="602" type="line"/>
      <point x="413" y="602" type="line"/>
      <point x="361" y="370" type="line"/>
      <point x="653" y="370" type="line"/>
    </contour>
  </outline>
</glyph>
<glyph name="Fita-cy" format="2">
  <advance width="1658"/>
  <unicode hex="0472"/>
  <anchor x="755" y="0" name="bottom"/>
  <anchor x="1383" y="1400" name="horn"/>
  <anchor x="1021" y="0" name="ogonek"/>
  <anchor x="979" y="1400" name="top"/>
  <anchor x="273" y="1400" name="topleft"/>
  <outline>
    <contour>
      <point x="301" y="450" type="line"/>
      <point x="407" y="544"/>
      <point x="513" y="588"/>
      <point x="625" y="588" type="curve" smooth="yes"/>
      <point x="767" y="588"/>
      <point x="921" y="514"/>
      <point x="1077" y="514" type="curve" smooth="yes"/>
      <point x="1185" y="514"/>
      <point x="1285" y="552"/>
      <point x="1385" y="630" type="curve"/>
      <point x="1451" y="952" type="line"/>
      <point x="1349" y="858"/>
      <point x="1249" y="816"/>
      <point x="1137" y="816" type="curve" smooth="yes"/>
      <point x="999" y="816"/>
      <point x="843" y="890"/>
      <point x="685" y="890" type="curve" smooth="yes"/>
      <point x="577" y="890"/>
      <point x="475" y="852"/>
      <point x="367" y="772" type="curve"/>
    </contour>
    <component base="O"/>
  </outline>
</glyph>
<glyph name="fita-cy" format="2">
  <advance width="1286"/>
  <unicode hex="0473"/>
  <outline>
    <contour>
      <point x="591" y="-30" type="curve" smooth="yes"/>
      <point x="937" y="-30"/>
      <point x="1239" y="244"/>
      <point x="1239" y="578" type="curve" smooth="yes"/>
      <point x="1239" y="848"/>
      <point x="1029" y="1070"/>
      <point x="695" y="1070" type="curve" smooth="yes"/>
      <point x="349" y="1070"/>
      <point x="47" y="796"/>
      <point x="47" y="464" type="curve" smooth="yes"/>
      <point x="47" y="192"/>
      <point x="255" y="-30"/>
    </contour>
    <contour>
      <point x="617" y="268" type="curve" smooth="yes"/>
      <point x="489" y="268"/>
      <point x="397" y="350"/>
      <point x="397" y="484" type="curve" smooth="yes"/>
      <point x="397" y="636"/>
      <point x="505" y="772"/>
      <point x="669" y="772" type="curve" smooth="yes"/>
      <point x="799" y="772"/>
      <point x="889" y="692"/>
      <point x="889" y="560" type="curve" smooth="yes"/>
      <point x="889" y="406"/>
      <point x="783" y="268"/>
    </contour>
    <contour>
      <point x="727" y="410" type="curve" smooth="yes"/>
      <point x="805" y="410"/>
      <point x="865" y="432"/>
      <point x="909" y="456" type="curve"/>
      <point x="947" y="642" type="line"/>
      <point x="897" y="624"/>
      <point x="851" y="614"/>
      <point x="805" y="614" type="curve" smooth="yes"/>
      <point x="731" y="614"/>
      <point x="659" y="644"/>
      <point x="563" y="644" type="curve" smooth="yes"/>
      <point x="485" y="644"/>
      <point x="425" y="622"/>
      <point x="381" y="598" type="curve"/>
      <point x="343" y="412" type="line"/>
      <point x="393" y="430"/>
      <point x="439" y="440"/>
      <point x="485" y="440" type="curve" smooth="yes"/>
      <point x="559" y="440"/>
      <point x="631" y="410"/>
    </contour>
  </outline>
</glyph>
<glyph name="Izhitsa-cy" format="2">
  <advance width="1526"/>
  <unicode hex="0474"/>
  <outline>
    <contour>
      <point x="374" y="0" type="line"/>
      <point x="844" y="0" type="line"/>
      <point x="1250" y="736" type="line" smooth="yes"/>
      <point x="1382" y="976"/>
      <point x="1442" y="1030"/>
      <point x="1720" y="1064" type="curve"/>
      <point x="1660" y="1430" type="line"/>
      <point x="1298" y="1408"/>
      <point x="1132" y="1274"/>
      <point x="926" y="900" type="curve" smooth="yes"/>
      <point x="714" y="514" type="line"/>
      <point x="618" y="1400" type="line"/>
      <point x="170" y="1400" type="line"/>
    </contour>
  </outline>
</glyph>
